SplineFontDB: 3.2
FontName: Untitled1
FullName: Untitled1
FamilyName: Untitled1
Weight: Regular
Copyright: Copyright (c) 2021, Jack
UComments: "2021-7-22: Created with FontForge (http://fontforge.org)"
Version: 001.000
ItalicAngle: 0
UnderlinePosition: -100
UnderlineWidth: 50
Ascent: 800
Descent: 200
InvalidEm: 0
LayerCount: 2
Layer: 0 0 "Back" 1
Layer: 1 0 "Fore" 0
XUID: [1021 424 2030559194 29343]
StyleMap: 0x0000
FSType: 0
OS2Version: 0
OS2_WeightWidthSlopeOnly: 0
OS2_UseTypoMetrics: 1
CreationTime: 1626979397
ModificationTime: 1627504001
OS2TypoAscent: 0
OS2TypoAOffset: 1
OS2TypoDescent: 0
OS2TypoDOffset: 1
OS2TypoLinegap: 90
OS2WinAscent: 0
OS2WinAOffset: 1
OS2WinDescent: 0
OS2WinDOffset: 1
HheadAscent: 0
HheadAOffset: 1
HheadDescent: 0
HheadDOffset: 1
Lookup: 1 0 0 "ascii_input" { "ascii_input subtable"  } ['liga' ('latn' <'dflt' > 'DFLT' <'dflt' > ) ]
Lookup: 6 0 0 "cvc_3v_c1" { "cvc_3v_c1 contextual 0"  "cvc_3v_c1 contextual 1"  } ['liga' ('latn' <'dflt' > 'DFLT' <'dflt' > ) ]
Lookup: 1 0 0 "Single Substitution lookup 2" { "Single Substitution lookup 2 subtable"  } []
Lookup: 6 0 0 "cvc_3v_v" { "cvc_3v_v subtable"  } ['liga' ('latn' <'dflt' > 'DFLT' <'dflt' > ) ]
Lookup: 1 0 0 "Single Substitution lookup 4" { "Single Substitution lookup 4 subtable"  } []
Lookup: 6 0 0 "cvc_3v_c3" { "cvc_3v_c3 subtable"  } ['liga' ('latn' <'dflt' > 'DFLT' <'dflt' > ) ]
Lookup: 1 0 0 "Single Substitution lookup 6" { "Single Substitution lookup 6 subtable"  } []
Lookup: 6 0 0 "cvc_3h_c1" { "cvc_3h_c1 contextual 0"  "cvc_3h_c1 contextual 1"  } ['liga' ('latn' <'dflt' > 'DFLT' <'dflt' > ) ]
Lookup: 1 0 0 "Single Substitution lookup 8" { "Single Substitution lookup 8 subtable"  } []
Lookup: 6 0 0 "cvc_3h_v" { "cvc_3h_v subtable"  } ['liga' ('latn' <'dflt' > 'DFLT' <'dflt' > ) ]
Lookup: 1 0 0 "Single Substitution lookup 10" { "Single Substitution lookup 10 subtable"  } []
Lookup: 6 0 0 "cvc_3h_c3" { "cvc_3h_c3 subtable"  } ['liga' ('latn' <'dflt' > 'DFLT' <'dflt' > ) ]

StartChar: tv_a
Encoding: 0 -1 0
Width: 1000
HStem: -100 100<109.23 790.77> 100 500<109.23 400 500 790.77> 700 100<109.23 790.77>
VStem: 0 400<100 600> 0 100<9.2299 90.7701 609.23 690.77> 500 400<100 600> 800 100<9.2299 90.7701 609.23 690.77>
CounterMasks: 1 e0
LayerCount: 2
Fore
SplineSet
450 650 m 1
 450 50 l 1025xe0
150 50 m 1
 750 50 l 1025
150 650 m 1
 750 650 l 1025
750 700 m 0
 550 700 350 700 150 700 c 0
 122.404296875 700 100 677.595703125 100 650 c 0xea
 100 622.404296875 122.404296875 600 150 600 c 2
 400 600 l 1
 400 100 l 1xf0
 150 100 l 2
 122.404296875 100 100 77.595703125 100 50 c 0
 100 22.404296875 122.404296875 0 150 0 c 2
 750 0 l 2
 777.595703125 0 800 22.404296875 800 50 c 0xea
 800 77.595703125 777.595703125 100 750 100 c 2
 500 100 l 1
 500 600 l 1xe4
 750 600 l 2
 777.595703125 600 800 622.404296875 800 650 c 0xe2
 800 677.595703125 777.595703125 700 750 700 c 0
50 800 m 2
 850 800 l 2
 877.594726562 799.997070312 899.997070312 777.594726562 900 750 c 2
 900 -50 l 2
 899.997070312 -77.5947265625 877.594726562 -99.9970703125 850 -100 c 2
 50 -100 l 2
 22.4052734375 -99.9970703125 0.0029296875 -77.5947265625 0 -50 c 2
 0 750 l 2
 0.0029296875 777.594726562 22.4052734375 800 50 800 c 2
EndSplineSet
Substitution2: "Single Substitution lookup 38 subtable" tv_a.3
Substitution2: "Single Substitution lookup 34 subtable" tv_a.1
Substitution2: "Single Substitution lookup 30 subtable" tv_a.3
Substitution2: "Single Substitution lookup 26 subtable" tv_a.2
Substitution2: "Single Substitution lookup 24 subtable" tv_a.7
Substitution2: "Single Substitution lookup 20 subtable" tv_a.5
Substitution2: "Single Substitution lookup 18 subtable" tv_a.8
Substitution2: "Single Substitution lookup 14 subtable" tv_a.6
Substitution2: "Single Substitution lookup 12 subtable" tv_a.7
Substitution2: "Single Substitution lookup 8 subtable" tv_a.4
Substitution2: "Single Substitution lookup 6 subtable" tv_a.7
Substitution2: "Single Substitution lookup 2 subtable" tv_a.5
EndChar

StartChar: tv_a.1
Encoding: 1 -1 1
Width: 1000
HStem: 0 100<109.23 150 750 790.77> 600 100<109.23 150 750 790.77>
LayerCount: 2
Fore
SplineSet
150 100 m 2
 122.404296875 100 100 77.595703125 100 50 c 0
 100 22.404296875 122.404296875 0 150 0 c 0
 350 -0 550 0 750 0 c 0
 777.595703125 0 800 22.404296875 800 50 c 0
 800 77.595703125 777.595703125 100 750 100 c 2
 500 100 l 1
 500 600 l 1
 750 600 l 2
 777.595703125 600 800 622.404296875 800 650 c 0
 800 677.595703125 777.595703125 700 750 700 c 0
 550 700 350 700 150 700 c 0
 122.404296875 700 100 677.595703125 100 650 c 0
 100 622.404296875 122.404296875 600 150 600 c 2
 400 600 l 1
 400 100 l 1
 150 100 l 2
EndSplineSet
EndChar

StartChar: tv_a.2
Encoding: 2 -1 2
Width: 1000
HStem: 0 100<9.2299 50 450 490.77> 600 100<9.2299 50 450 490.77>
AnchorPoint: "MarkBaseSet" -50 50 basechar 0
LayerCount: 2
Fore
SplineSet
50 100 m 2
 22.404296875 100 0 77.595703125 0 50 c 0
 0 22.404296875 22.404296875 0 50 0 c 0
 183.333333333 -0 316.666666667 0 450 0 c 0
 477.595703125 0 500 22.404296875 500 50 c 0
 500 77.595703125 477.595703125 100 450 100 c 2
 300 100 l 1
 300 600 l 1
 450 600 l 2
 477.595703125 600 500 622.404296875 500 650 c 0
 500 677.595703125 477.595703125 700 450 700 c 0
 316.666666667 700 183.333333333 700 50 700 c 0
 22.404296875 700 0 677.595703125 0 650 c 0
 0 622.404296875 22.404296875 600 50 600 c 2
 200 600 l 1
 200 100 l 1
 50 100 l 2
EndSplineSet
EndChar

StartChar: tv_a.3
Encoding: 3 -1 3
Width: 1000
HStem: 300 100<109.23 150 750 790.77> 700 100<109.23 150 750 790.77>
AnchorPoint: "MarkBaseSet" -50 50 basechar 0
LayerCount: 2
Fore
SplineSet
150 400 m 2
 122.404296875 400 100 377.595703125 100 350 c 0
 100 322.404296875 122.404296875 300 150 300 c 0
 350 300 550 300 750 300 c 0
 777.595703125 300 800 322.404296875 800 350 c 0
 800 377.595703125 777.595703125 400 750 400 c 2
 500 400 l 1
 500 700 l 1
 750 700 l 2
 777.595703125 700 800 722.404296875 800 750 c 0
 800 777.595703125 777.595703125 800 750 800 c 0
 550 800 350 800 150 800 c 0
 122.404296875 800 100 777.595703125 100 750 c 0
 100 722.404296875 122.404296875 700 150 700 c 2
 400 700 l 1
 400 400 l 1
 150 400 l 2
EndSplineSet
EndChar

StartChar: tv_a.4
Encoding: 4 -1 4
Width: 1000
HStem: 300 100<9.2299 50 450 490.77> 700 100<9.2299 50 450 490.77>
AnchorPoint: "MarkBaseSet" -50 50 basechar 0
LayerCount: 2
Fore
SplineSet
50 400 m 2
 22.404296875 400 0 377.595703125 0 350 c 0
 0 322.404296875 22.404296875 300 50 300 c 0
 183.333333333 300 316.666666667 300 450 300 c 0
 477.595703125 300 500 322.404296875 500 350 c 0
 500 377.595703125 477.595703125 400 450 400 c 2
 300 400 l 1
 300 700 l 1
 450 700 l 2
 477.595703125 700 500 722.404296875 500 750 c 0
 500 777.595703125 477.595703125 800 450 800 c 0
 316.666666667 800 183.333333333 800 50 800 c 0
 22.404296875 800 0 777.595703125 0 750 c 0
 0 722.404296875 22.404296875 700 50 700 c 2
 200 700 l 1
 200 400 l 1
 50 400 l 2
EndSplineSet
EndChar

StartChar: tv_a.5
Encoding: 5 -1 5
Width: 1000
HStem: 500 100<109.23 150 750 790.77> 700 100<109.23 150 750 790.77>
AnchorPoint: "MarkBaseSet" -50 50 basechar 0
LayerCount: 2
Fore
SplineSet
150 600 m 2
 122.404296875 600 100 577.595703125 100 550 c 0
 100 522.404296875 122.404296875 500 150 500 c 0
 350 500 550 500 750 500 c 0
 777.595703125 500 800 522.404296875 800 550 c 0
 800 577.595703125 777.595703125 600 750 600 c 2
 500 600 l 1
 500 700 l 1
 750 700 l 2
 777.595703125 700 800 722.404296875 800 750 c 0
 800 777.595703125 777.595703125 800 750 800 c 0
 550 800 350 800 150 800 c 0
 122.404296875 800 100 777.595703125 100 750 c 0
 100 722.404296875 122.404296875 700 150 700 c 2
 400 700 l 1
 400 600 l 1
 150 600 l 2
EndSplineSet
EndChar

StartChar: tv_a.6
Encoding: 6 -1 6
Width: 1000
HStem: 400 100<109.23 150 750 790.77> 700 100<109.23 150 750 790.77>
AnchorPoint: "MarkBaseSet" -50 50 basechar 0
LayerCount: 2
Fore
SplineSet
150 500 m 2
 122.404296875 500 100 477.595703125 100 450 c 0
 100 422.404296875 122.404296875 400 150 400 c 0
 350 400 550 400 750 400 c 0
 777.595703125 400 800 422.404296875 800 450 c 0
 800 477.595703125 777.595703125 500 750 500 c 2
 500 500 l 1
 500 700 l 1
 750 700 l 2
 777.595703125 700 800 722.404296875 800 750 c 0
 800 777.595703125 777.595703125 800 750 800 c 0
 550 800 350 800 150 800 c 0
 122.404296875 800 100 777.595703125 100 750 c 0
 100 722.404296875 122.404296875 700 150 700 c 2
 400 700 l 1
 400 500 l 1
 150 500 l 2
EndSplineSet
EndChar

StartChar: tv_a.7
Encoding: 7 -1 7
Width: 0
Flags: W
HStem: -100 100<109.23 150 750 790.77> 100 100<109.23 150 750 790.77>
AnchorPoint: "MarkBaseSet" -50 50 mark 0
LayerCount: 2
Fore
SplineSet
150 0 m 2
 122.404296875 0 100 -22.404296875 100 -50 c 0
 100 -77.595703125 122.404296875 -100 150 -100 c 0
 350 -100 550 -100 750 -100 c 0
 777.595703125 -100 800 -77.595703125 800 -50 c 0
 800 -22.404296875 777.595703125 0 750 0 c 2
 500 0 l 1
 500 100 l 1
 750 100 l 2
 777.595703125 100 800 122.404296875 800 150 c 0
 800 177.595703125 777.595703125 200 750 200 c 0
 550 200 350 200 150 200 c 0
 122.404296875 200 100 177.595703125 100 150 c 0
 100 122.404296875 122.404296875 100 150 100 c 2
 400 100 l 1
 400 0 l 1
 150 0 l 2
EndSplineSet
EndChar

StartChar: tv_a.8
Encoding: 8 -1 8
Width: 0
Flags: W
HStem: -100 100<109.23 150 750 790.77> 200 100<109.23 150 750 790.77>
AnchorPoint: "MarkBaseSet" -50 50 mark 0
LayerCount: 2
Fore
SplineSet
150 0 m 2
 122.404296875 0 100 -22.404296875 100 -50 c 0
 100 -77.595703125 122.404296875 -100 150 -100 c 0
 350 -100 550 -100 750 -100 c 0
 777.595703125 -100 800 -77.595703125 800 -50 c 0
 800 -22.404296875 777.595703125 0 750 0 c 2
 500 0 l 1
 500 200 l 1
 750 200 l 2
 777.595703125 200 800 222.404296875 800 250 c 0
 800 277.595703125 777.595703125 300 750 300 c 0
 550 300 350 300 150 300 c 0
 122.404296875 300 100 277.595703125 100 250 c 0
 100 222.404296875 122.404296875 200 150 200 c 2
 400 200 l 1
 400 0 l 1
 150 0 l 2
EndSplineSet
EndChar

StartChar: tv_u
Encoding: 9 -1 9
Width: 1000
HStem: -100 100<109.23 790.77> 100 500<109.23 250 350 550 650 790.77> 700 100<109.23 790.77>
VStem: 0 250<100 600> 0 100<9.2299 90.7701 609.23 690.77> 350 200<100 600> 650 250<100 600> 800 100<9.2299 90.7701 609.23 690.77>
CounterMasks: 1 e0
LayerCount: 2
Fore
SplineSet
750 700 m 2xe5
 150 700 l 2
 122.404296875 700 100 677.595703125 100 650 c 0xed
 100 622.404296875 122.404296875 600 150 600 c 2
 250 600 l 1
 250 100 l 1xf4
 150 100 l 2
 122.404296875 100 100 77.595703125 100 50 c 0
 100 22.404296875 122.404296875 0 150 0 c 2
 750 0 l 2
 777.595703125 0 800 22.404296875 800 50 c 0xed
 800 77.595703125 777.595703125 100 750 100 c 2
 650 100 l 1
 650 600 l 1xe6
 750 600 l 2
 777.595703125 600 800 622.404296875 800 650 c 0
 800 677.595703125 777.595703125 700 750 700 c 2xe5
50 800 m 2
 850 800 l 2
 877.594726562 799.997070312 899.997070312 777.594726562 900 750 c 2
 900 -50 l 2
 899.997070312 -77.5947265625 877.594726562 -99.9970703125 850 -100 c 2
 50 -100 l 2
 22.4052734375 -99.9970703125 0.0029296875 -77.5947265625 0 -50 c 2
 0 750 l 2
 0.0029296875 777.594726562 22.4052734375 800 50 800 c 2
350 100 m 1
 350 600 l 1
 550 600 l 1
 550 100 l 1
 350 100 l 1
EndSplineSet
Substitution2: "Single Substitution lookup 38 subtable" tv_u.3
Substitution2: "Single Substitution lookup 34 subtable" tv_u.1
Substitution2: "Single Substitution lookup 30 subtable" tv_u.3
Substitution2: "Single Substitution lookup 26 subtable" tv_u.2
Substitution2: "Single Substitution lookup 24 subtable" tv_u.7
Substitution2: "Single Substitution lookup 20 subtable" tv_u.5
Substitution2: "Single Substitution lookup 18 subtable" tv_u.8
Substitution2: "Single Substitution lookup 14 subtable" tv_u.6
Substitution2: "Single Substitution lookup 12 subtable" tv_u.7
Substitution2: "Single Substitution lookup 8 subtable" tv_u.4
Substitution2: "Single Substitution lookup 6 subtable" tv_u.7
Substitution2: "Single Substitution lookup 2 subtable" tv_u.5
EndChar

StartChar: tv_u.1
Encoding: 10 -1 10
Width: 1000
HStem: 0 100<109.23 150 750 790.77> 600 100<109.23 150 750 790.77>
LayerCount: 2
Fore
SplineSet
350 100 m 1
 350 600 l 1
 550 600 l 1
 550 100 l 1
 350 100 l 1
150 100 m 2
 122.404296875 100 100 77.595703125 100 50 c 0
 100 22.404296875 122.404296875 0 150 0 c 2
 750 0 l 2
 777.595703125 0 800 22.404296875 800 50 c 0
 800 77.595703125 777.595703125 100 750 100 c 2
 650 100 l 1
 650 600 l 1
 750 600 l 2
 777.595703125 600 800 622.404296875 800 650 c 0
 800 677.595703125 777.595703125 700 750 700 c 2
 150 700 l 2
 122.404296875 700 100 677.595703125 100 650 c 0
 100 622.404296875 122.404296875 600 150 600 c 2
 250 600 l 1
 250 100 l 1
 150 100 l 2
EndSplineSet
EndChar

StartChar: tv_u.2
Encoding: 11 -1 11
Width: 1000
HStem: 0 100<9.2299 50 450 490.77> 600 100<9.2299 50 450 490.77>
AnchorPoint: "MarkBaseSet" -50 50 basechar 0
LayerCount: 2
Fore
SplineSet
200 100 m 1
 200 600 l 1
 300 600 l 1
 300 100 l 1
 200 100 l 1
50 100 m 2
 22.404296875 100 0 77.595703125 0 50 c 0
 0 22.404296875 22.404296875 0 50 0 c 2
 450 0 l 2
 477.595703125 0 500 22.404296875 500 50 c 0
 500 77.595703125 477.595703125 100 450 100 c 2
 400 100 l 1
 400 600 l 1
 450 600 l 2
 477.595703125 600 500 622.404296875 500 650 c 0
 500 677.595703125 477.595703125 700 450 700 c 2
 50 700 l 2
 22.404296875 700 0 677.595703125 0 650 c 0
 0 622.404296875 22.404296875 600 50 600 c 2
 100 600 l 1
 100 100 l 1
 50 100 l 2
EndSplineSet
EndChar

StartChar: tv_u.3
Encoding: 12 -1 12
Width: 1000
HStem: 300 100<109.23 150 750 790.77> 700 100<109.23 150 750 790.77>
AnchorPoint: "MarkBaseSet" -50 50 basechar 0
LayerCount: 2
Fore
SplineSet
550 400 m 1
 350 400 l 1
 350 700 l 1
 550 700 l 1
 550 400 l 1
150 400 m 2
 122.404296875 400 100 377.595703125 100 350 c 0
 100 322.404296875 122.404296875 300 150 300 c 2
 750 300 l 2
 777.595703125 300 800 322.404296875 800 350 c 0
 800 377.595703125 777.595703125 400 750 400 c 2
 650 400 l 1
 650 700 l 1
 750 700 l 2
 777.595703125 700 800 722.404296875 800 750 c 0
 800 777.595703125 777.595703125 800 750 800 c 2
 150 800 l 2
 122.404296875 800 100 777.595703125 100 750 c 0
 100 722.404296875 122.404296875 700 150 700 c 2
 250 700 l 1
 250 400 l 1
 150 400 l 2
EndSplineSet
EndChar

StartChar: tv_u.4
Encoding: 13 -1 13
Width: 1000
HStem: 300 100<9.2299 50 450 490.77> 700 100<9.2299 50 450 490.77>
AnchorPoint: "MarkBaseSet" -50 50 basechar 0
LayerCount: 2
Fore
SplineSet
200 400 m 1
 200 700 l 1
 300 700 l 1
 300 400 l 1
 200 400 l 1
50 400 m 2
 22.404296875 400 0 377.595703125 0 350 c 0
 0 322.404296875 22.404296875 300 50 300 c 2
 450 300 l 2
 477.595703125 300 500 322.404296875 500 350 c 0
 500 377.595703125 477.595703125 400 450 400 c 2
 400 400 l 1
 400 700 l 1
 450 700 l 2
 477.595703125 700 500 722.404296875 500 750 c 0
 500 777.595703125 477.595703125 800 450 800 c 2
 50 800 l 2
 22.404296875 800 0 777.595703125 0 750 c 0
 0 722.404296875 22.404296875 700 50 700 c 2
 100 700 l 1
 100 400 l 1
 50 400 l 2
EndSplineSet
EndChar

StartChar: tv_u.5
Encoding: 14 -1 14
Width: 1000
HStem: 500 100<109.23 150 750 790.77> 700 100<109.23 150 750 790.77>
AnchorPoint: "MarkBaseSet" -50 50 basechar 0
LayerCount: 2
Fore
SplineSet
350 600 m 1
 350 700 l 1
 550 700 l 1
 550 600 l 1
 350 600 l 1
150 600 m 2
 122.404296875 600 100 577.595703125 100 550 c 0
 100 522.404296875 122.404296875 500 150 500 c 2
 750 500 l 2
 777.595703125 500 800 522.404296875 800 550 c 0
 800 577.595703125 777.595703125 600 750 600 c 2
 650 600 l 1
 650 700 l 1
 750 700 l 2
 777.595703125 700 800 722.404296875 800 750 c 0
 800 777.595703125 777.595703125 800 750 800 c 2
 150 800 l 2
 122.404296875 800 100 777.595703125 100 750 c 0
 100 722.404296875 122.404296875 700 150 700 c 2
 250 700 l 1
 250 600 l 1
 150 600 l 2
EndSplineSet
EndChar

StartChar: tv_u.6
Encoding: 15 -1 15
Width: 1000
HStem: 400 100<109.229 149.999 749.999 790.769> 700 100<109.229 149.999 749.999 790.769>
AnchorPoint: "MarkBaseSet" -50 50 basechar 0
LayerCount: 2
Fore
SplineSet
549.999023438 500 m 1
 349.999023438 500 l 1
 349.999023438 700 l 1
 549.999023438 700 l 1
 549.999023438 500 l 1
149.999023438 500 m 2
 122.403320312 500 99.9990234375 477.595703125 99.9990234375 450 c 0
 99.9990234375 422.404296875 122.403320312 400 149.999023438 400 c 2
 749.999023438 400 l 2
 777.594726562 400 799.999023438 422.404296875 799.999023438 450 c 0
 799.999023438 477.595703125 777.594726562 500 749.999023438 500 c 2
 649.999023438 500 l 1
 649.999023438 700 l 1
 749.999023438 700 l 2
 777.594726562 700 799.999023438 722.404296875 799.999023438 750 c 0
 799.999023438 777.595703125 777.594726562 800 749.999023438 800 c 2
 149.999023438 800 l 2
 122.403320312 800 99.9990234375 777.595703125 99.9990234375 750 c 0
 99.9990234375 722.404296875 122.403320312 700 149.999023438 700 c 2
 249.999023438 700 l 1
 249.999023438 500 l 1
 149.999023438 500 l 2
EndSplineSet
EndChar

StartChar: tv_u.7
Encoding: 16 -1 16
Width: 0
Flags: W
HStem: -100 100<109.23 150 750 790.77> 100 100<109.23 150 750 790.77>
AnchorPoint: "MarkBaseSet" -50 50 mark 0
LayerCount: 2
Fore
SplineSet
350 0 m 1
 350 100 l 1
 550 100 l 1
 550 0 l 1
 350 0 l 1
150 0 m 2
 122.404296875 0 100 -22.404296875 100 -50 c 0
 100 -77.595703125 122.404296875 -100 150 -100 c 2
 750 -100 l 2
 777.595703125 -100 800 -77.595703125 800 -50 c 0
 800 -22.404296875 777.595703125 0 750 0 c 2
 650 0 l 1
 650 100 l 1
 750 100 l 2
 777.595703125 100 800 122.404296875 800 150 c 0
 800 177.595703125 777.595703125 200 750 200 c 2
 150 200 l 2
 122.404296875 200 100 177.595703125 100 150 c 0
 100 122.404296875 122.404296875 100 150 100 c 2
 250 100 l 1
 250 0 l 1
 150 0 l 2
EndSplineSet
EndChar

StartChar: tv_u.8
Encoding: 17 -1 17
Width: 0
Flags: W
HStem: -100 100<109.23 150 750 790.77> 200 100<109.23 150 750 790.77>
AnchorPoint: "MarkBaseSet" -50 50 mark 0
LayerCount: 2
Fore
SplineSet
550 0 m 1
 350 0 l 1
 350 200 l 1
 550 200 l 1
 550 0 l 1
150 0 m 2
 122.404296875 0 100 -22.404296875 100 -50 c 0
 100 -77.595703125 122.404296875 -100 150 -100 c 2
 750 -100 l 2
 777.595703125 -100 800 -77.595703125 800 -50 c 0
 800 -22.404296875 777.595703125 0 750 0 c 2
 650 0 l 1
 650 200 l 1
 750 200 l 2
 777.595703125 200 800 222.404296875 800 250 c 0
 800 277.595703125 777.595703125 300 750 300 c 2
 150 300 l 2
 122.404296875 300 100 277.595703125 100 250 c 0
 100 222.404296875 122.404296875 200 150 200 c 2
 250 200 l 1
 250 0 l 1
 150 0 l 2
EndSplineSet
EndChar

StartChar: nsfu_p
Encoding: 18 -1 18
Width: 1000
HStem: -100 100<309.093 390.907 709.093 791.418> 700 100<108.582 190.907 509.093 590.907>
VStem: 0 100<577.947 691.02> 800 100<8.98038 122.053>
LayerCount: 2
Fore
SplineSet
550 700 m 0
 527.92578125 700 509.172851562 685.6640625 502.552734375 665.802734375 c 2
 350 208.14453125 l 1
 197.447265625 665.802734375 l 2
 190.827148438 685.6640625 172.07421875 700 150 700 c 0
 124.331054688 700 102.005859375 679.893554688 100 654.217773438 c 1
 100 646.668945312 l 2
 100.315429688 642.592773438 101.145507812 638.41796875 102.552734375 634.197265625 c 2
 302.552734375 34.197265625 l 2
 309.172851562 14.3359375 327.92578125 0 350 0 c 0
 372.07421875 0 390.827148438 14.3359375 397.447265625 34.197265625 c 2
 550 491.85546875 l 1
 702.552734375 34.197265625 l 2
 709.172851562 14.3359375 727.92578125 0 750 0 c 0
 775.668945312 0 797.994140625 20.1064453125 800 45.7822265625 c 1
 800 53.3310546875 l 2
 799.684570312 57.4072265625 798.854492188 61.58203125 797.447265625 65.802734375 c 2
 597.447265625 665.802734375 l 2
 590.827148438 685.6640625 572.07421875 700 550 700 c 0
50 800 m 2
 850 800 l 2
 877.594726562 799.997070312 899.997070312 777.594726562 900 750 c 2
 900 -50 l 2
 899.997070312 -77.5947265625 877.594726562 -99.9970703125 850 -100 c 2
 50 -100 l 2
 22.4052734375 -99.9970703125 0.0029296875 -77.5947265625 0 -50 c 2
 0 750 l 2
 0.0029296875 777.594726562 22.4052734375 800 50 800 c 2
EndSplineSet
Substitution2: "Single Substitution lookup 38 subtable" nsfu_p.3
Substitution2: "Single Substitution lookup 34 subtable" nsfu_p.1
Substitution2: "Single Substitution lookup 30 subtable" nsfu_p.3
Substitution2: "Single Substitution lookup 26 subtable" nsfu_p.2
Substitution2: "Single Substitution lookup 24 subtable" nsfu_p.7
Substitution2: "Single Substitution lookup 20 subtable" nsfu_p.5
Substitution2: "Single Substitution lookup 18 subtable" nsfu_p.8
Substitution2: "Single Substitution lookup 14 subtable" nsfu_p.6
Substitution2: "Single Substitution lookup 12 subtable" nsfu_p.7
Substitution2: "Single Substitution lookup 8 subtable" nsfu_p.4
Substitution2: "Single Substitution lookup 6 subtable" nsfu_p.7
Substitution2: "Single Substitution lookup 2 subtable" nsfu_p.5
EndChar

StartChar: nsfu_p.1
Encoding: 19 -1 19
Width: 1000
LayerCount: 2
Fore
SplineSet
750 0 m 0
 776.910705022 0 800.146584637 22.099838872 800.146584637 49.5469125344 c 0
 800.146584637 54.8083623039 799.292741918 60.2663054951 797.447265625 65.802734375 c 2
 597.447265625 665.802734375 l 2
 590.827148438 685.6640625 572.07421875 700 550 700 c 0
 527.92578125 700 509.172851562 685.6640625 502.552734375 665.802734375 c 2
 350 208.14453125 l 1
 197.447265625 665.802734375 l 2
 190.827148438 685.6640625 172.07421875 700 150 700 c 0
 123.089294978 700 99.8534153631 677.900161128 99.8534153631 650.453087466 c 0
 99.8534153631 645.191637696 100.707258082 639.733694505 102.552734375 634.197265625 c 2
 302.552734375 34.197265625 l 2
 309.172851562 14.3359375 327.92578125 0 350 0 c 0
 372.07421875 0 390.827148438 14.3359375 397.447265625 34.197265625 c 2
 550 491.85546875 l 1
 702.552734375 34.197265625 l 2
 709.172851562 14.3359375 727.92578125 0 750 0 c 0
EndSplineSet
EndChar

StartChar: nsfu_p.2
Encoding: 20 -1 20
Width: 1000
VStem: -0.081779 98.8923<629.378 691.03> 134.522 97.6211<8.10788 70.6217> 267.856 97.6211<629.378 691.892> 401.189 98.8923<8.97048 70.622>
AnchorPoint: "MarkBaseSet" -50 50 basechar 0
LayerCount: 2
Fore
SplineSet
450 0 m 0
 476.793508886 0 500.081778972 21.5827673436 500.081778972 49.492255572 c 0
 500.081778972 53.1883336881 499.673350729 56.9953694445 498.810546875 60.8779296875 c 2
 365.477539062 660.877929688 l 2
 360.505859375 683.25 340.52734375 700 316.666992188 700 c 0
 292.806640625 700 272.828125 683.250976562 267.856445312 660.877929688 c 2
 183.333007812 280.52734375 l 1
 98.810546875 660.877929688 l 2
 93.8388671875 683.25 73.8603515625 700 50 700 c 0
 23.2064911136 700 -0.0817789722718 678.417232656 -0.0817789722718 650.507744428 c 0
 -0.0817789722718 646.811666312 0.326649270667 643.004630555 1.189453125 639.122070312 c 2
 134.522460938 39.1220703125 l 2
 139.494140625 16.75 159.47265625 0 183.333007812 0 c 0
 207.193359375 0 227.171875 16.7490234375 232.143554688 39.1220703125 c 2
 316.666992188 419.47265625 l 1
 401.189453125 39.1220703125 l 2
 406.161132812 16.75 426.139648438 0 450 0 c 0
EndSplineSet
EndChar

StartChar: nv_p.6
Encoding: 168 -1 21
Width: 1000
VStem: 100 100<750 790.77> 700 100<750 790.77>
AnchorPoint: "MarkBaseSet" -50 50 basechar 0
LayerCount: 2
Fore
SplineSet
700 500 m 1
 200 500 l 1
 200 750 l 2
 200 777.595703125 177.595703125 800 150 800 c 0
 122.404296875 800 100 777.595703125 100 750 c 2
 100 450 l 2
 100 422.404296875 122.404296875 400 150 400 c 2
 750 400 l 2
 777.595703125 400 800 422.404296875 800 450 c 2
 800 750 l 2
 800 777.595703125 777.595703125 800 750 800 c 0
 722.404296875 800 700 777.595703125 700 750 c 2
 700 500 l 1
EndSplineSet
EndChar

StartChar: nv_p.7
Encoding: 169 -1 22
Width: 0
Flags: W
HStem: -100 300<109.23 190.77 709.23 790.77> 0 21G<200 700>
VStem: 100 100<150 190.77> 700 100<150 190.77>
AnchorPoint: "MarkBaseSet" -50 50 mark 0
LayerCount: 2
Fore
SplineSet
700 0 m 1x70
 200 0 l 1x70
 200 150 l 2
 200 177.595703125 177.595703125 200 150 200 c 0
 122.404296875 200 100 177.595703125 100 150 c 2
 100 -50 l 2
 100 -77.595703125 122.404296875 -100 150 -100 c 2
 750 -100 l 2
 777.595703125 -100 800 -77.595703125 800 -50 c 2
 800 150 l 2
 800 177.595703125 777.595703125 200 750 200 c 0xb0
 722.404296875 200 700 177.595703125 700 150 c 2
 700 0 l 1x70
EndSplineSet
EndChar

StartChar: nv_p.8
Encoding: 170 -1 23
Width: 0
Flags: W
HStem: 0 21G<200 700>
VStem: 100 100<250 290.77> 700 100<250 290.77>
AnchorPoint: "MarkBaseSet" -50 50 mark 0
LayerCount: 2
Fore
SplineSet
700 0 m 1
 200 0 l 1
 200 250 l 2
 200 277.595703125 177.595703125 300 150 300 c 0
 122.404296875 300 100 277.595703125 100 250 c 2
 100 -50 l 2
 100 -77.595703125 122.404296875 -100 150 -100 c 2
 750 -100 l 2
 777.595703125 -100 800 -77.595703125 800 -50 c 2
 800 250 l 2
 800 277.595703125 777.595703125 300 750 300 c 0
 722.404296875 300 700 277.595703125 700 250 c 2
 700 0 l 1
EndSplineSet
EndChar

StartChar: pa_p
Encoding: 171 -1 24
Width: 1000
HStem: -100 100<109.23 790.77> 700 100<109.23 190.77 409.23 490.77 709.23 790.77>
VStem: 0 100<9.2299 690.77> 200 200<100 690.77> 500 200<100 690.77> 800 100<9.2299 690.77>
LayerCount: 2
Fore
SplineSet
450 650 m 1
 450 50 l 1025
150 650 m 1
 150 50 l 1
 750 50 l 1
 750 650 l 1025
450 700 m 0
 422.404296875 700 400 677.595703125 400 650 c 2
 400 100 l 1
 200 100 l 1
 200 650 l 2
 200 677.595703125 177.595703125 700 150 700 c 0
 122.404296875 700 100 677.595703125 100 650 c 2
 100 50 l 2
 100 22.404296875 122.404296875 0 150 0 c 2
 750 0 l 2
 777.595703125 0 800 22.404296875 800 50 c 2
 800 650 l 2
 800 677.595703125 777.595703125 700 750 700 c 0
 722.404296875 700 700 677.595703125 700 650 c 2
 700 100 l 1
 500 100 l 1
 500 650 l 2
 500 677.595703125 477.595703125 700 450 700 c 0
50 800 m 2
 850 800 l 2
 877.594726562 799.997070312 899.997070312 777.594726562 900 750 c 2
 900 -50 l 2
 899.997070312 -77.5947265625 877.594726562 -99.9970703125 850 -100 c 2
 50 -100 l 2
 22.4052734375 -99.9970703125 0.0029296875 -77.5947265625 0 -50 c 2
 0 750 l 2
 0.0029296875 777.594726562 22.4052734375 800 50 800 c 2
EndSplineSet
Substitution2: "Single Substitution lookup 38 subtable" pa_p.3
Substitution2: "Single Substitution lookup 34 subtable" pa_p.1
Substitution2: "Single Substitution lookup 30 subtable" pa_p.3
Substitution2: "Single Substitution lookup 26 subtable" pa_p.2
Substitution2: "Single Substitution lookup 24 subtable" pa_p.7
Substitution2: "Single Substitution lookup 20 subtable" pa_p.5
Substitution2: "Single Substitution lookup 18 subtable" pa_p.8
Substitution2: "Single Substitution lookup 14 subtable" pa_p.6
Substitution2: "Single Substitution lookup 12 subtable" pa_p.7
Substitution2: "Single Substitution lookup 8 subtable" pa_p.4
Substitution2: "Single Substitution lookup 6 subtable" pa_p.7
Substitution2: "Single Substitution lookup 2 subtable" pa_p.5
EndChar

StartChar: pa_p.1
Encoding: 172 -1 25
Width: 1000
VStem: 100 100<650 690.77> 400 100<650 690.77> 700 100<650 690.77>
CounterMasks: 1 e0
LayerCount: 2
Fore
SplineSet
500 650 m 2
 500 677.595703125 477.595703125 700 450 700 c 0
 422.404296875 700 400 677.595703125 400 650 c 2
 400 100 l 1
 200 100 l 1
 200 650 l 2
 200 677.595703125 177.595703125 700 150 700 c 0
 122.404296875 700 100 677.595703125 100 650 c 2
 100 50 l 2
 100 22.404296875 122.404296875 0 150 0 c 0
 350 -0 550 0 750 0 c 0
 777.595703125 0 800 22.404296875 800 50 c 2
 800 650 l 2
 800 677.595703125 777.595703125 700 750 700 c 0
 722.404296875 700 700 677.595703125 700 650 c 2
 700 100 l 1
 500 100 l 1
 500 650 l 2
EndSplineSet
EndChar

StartChar: pa_p.2
Encoding: 173 -1 26
Width: 1000
VStem: 0 100<650 690.77> 200 100<650 690.77> 400 100<650 690.77>
CounterMasks: 1 e0
AnchorPoint: "MarkBaseSet" -50 50 basechar 0
LayerCount: 2
Fore
SplineSet
300 650 m 2
 300 677.595703125 277.595703125 700 250 700 c 0
 222.404296875 700 200 677.595703125 200 650 c 2
 200 100 l 1
 100 100 l 1
 100 650 l 2
 100 677.595703125 77.595703125 700 50 700 c 0
 22.404296875 700 0 677.595703125 0 650 c 2
 0 50 l 2
 0 22.404296875 22.404296875 0 50 0 c 0
 183.333333333 -0 316.666666667 0 450 0 c 0
 477.595703125 0 500 22.404296875 500 50 c 2
 500 650 l 2
 500 677.595703125 477.595703125 700 450 700 c 0
 422.404296875 700 400 677.595703125 400 650 c 2
 400 100 l 1
 300 100 l 1
 300 650 l 2
EndSplineSet
EndChar

StartChar: pa_p.3
Encoding: 174 -1 27
Width: 1000
VStem: 100 100<750 790.77> 400 100<750 790.77> 700 100<750 790.77>
CounterMasks: 1 e0
AnchorPoint: "MarkBaseSet" -50 50 basechar 0
LayerCount: 2
Fore
SplineSet
500 750 m 2
 500 777.595703125 477.595703125 800 450 800 c 0
 422.404296875 800 400 777.595703125 400 750 c 2
 400 400 l 1
 200 400 l 1
 200 750 l 2
 200 777.595703125 177.595703125 800 150 800 c 0
 122.404296875 800 100 777.595703125 100 750 c 2
 100 350 l 2
 100 322.404296875 122.404296875 300 150 300 c 0
 350 300 550 300 750 300 c 0
 777.595703125 300 800 322.404296875 800 350 c 2
 800 750 l 2
 800 777.595703125 777.595703125 800 750 800 c 0
 722.404296875 800 700 777.595703125 700 750 c 2
 700 400 l 1
 500 400 l 1
 500 750 l 2
EndSplineSet
EndChar

StartChar: pa_p.4
Encoding: 175 -1 28
Width: 1000
VStem: 0 100<750 790.77> 200 100<750 790.77> 400 100<750 790.77>
CounterMasks: 1 e0
AnchorPoint: "MarkBaseSet" -50 50 basechar 0
LayerCount: 2
Fore
SplineSet
300 750 m 2
 300 777.595703125 277.595703125 800 250 800 c 0
 222.404296875 800 200 777.595703125 200 750 c 2
 200 400 l 1
 100 400 l 1
 100 750 l 2
 100 777.595703125 77.595703125 800 50 800 c 0
 22.404296875 800 0 777.595703125 0 750 c 2
 0 350 l 2
 0 322.404296875 22.404296875 300 50 300 c 0
 183.333333333 300 316.666666667 300 450 300 c 0
 477.595703125 300 500 322.404296875 500 350 c 2
 500 750 l 2
 500 777.595703125 477.595703125 800 450 800 c 0
 422.404296875 800 400 777.595703125 400 750 c 2
 400 400 l 1
 300 400 l 1
 300 750 l 2
EndSplineSet
EndChar

StartChar: pa_p.5
Encoding: 176 -1 29
Width: 1000
HStem: 500 300<109.23 190.77 409.23 490.77 709.23 790.77>
VStem: 100 100<750 790.77> 400 100<750 790.77> 700 100<750 790.77>
CounterMasks: 1 70
AnchorPoint: "MarkBaseSet" -50 50 basechar 0
LayerCount: 2
Fore
SplineSet
500 750 m 2
 500 777.595703125 477.595703125 800 450 800 c 0
 422.404296875 800 400 777.595703125 400 750 c 2
 400 600 l 1
 200 600 l 1
 200 750 l 2
 200 777.595703125 177.595703125 800 150 800 c 0
 122.404296875 800 100 777.595703125 100 750 c 2
 100 550 l 2
 100 522.404296875 122.404296875 500 150 500 c 0
 350 500 550 500 750 500 c 0
 777.595703125 500 800 522.404296875 800 550 c 2
 800 750 l 2
 800 777.595703125 777.595703125 800 750 800 c 0
 722.404296875 800 700 777.595703125 700 750 c 2
 700 600 l 1
 500 600 l 1
 500 750 l 2
EndSplineSet
EndChar

StartChar: pa_p.6
Encoding: 177 -1 30
Width: 1000
VStem: 100 100<750 790.77> 400 100<750 790.77> 700 100<750 790.77>
CounterMasks: 1 e0
AnchorPoint: "MarkBaseSet" -50 50 basechar 0
LayerCount: 2
Fore
SplineSet
500 750 m 2
 500 777.595703125 477.595703125 800 450 800 c 0
 422.404296875 800 400 777.595703125 400 750 c 2
 400 500 l 1
 200 500 l 1
 200 750 l 2
 200 777.595703125 177.595703125 800 150 800 c 0
 122.404296875 800 100 777.595703125 100 750 c 2
 100 450 l 2
 100 422.404296875 122.404296875 400 150 400 c 0
 350 400 550 400 750 400 c 0
 777.595703125 400 800 422.404296875 800 450 c 2
 800 750 l 2
 800 777.595703125 777.595703125 800 750 800 c 0
 722.404296875 800 700 777.595703125 700 750 c 2
 700 500 l 1
 500 500 l 1
 500 750 l 2
EndSplineSet
EndChar

StartChar: pa_p.7
Encoding: 178 -1 31
Width: 0
Flags: W
HStem: -100 300<109.23 190.77 409.23 490.77 709.23 790.77> 0 21G<200 400 500 700>
VStem: 100 100<150 190.77> 400 100<150 190.77> 700 100<150 190.77>
CounterMasks: 1 38
AnchorPoint: "MarkBaseSet" -50 50 mark 0
LayerCount: 2
Fore
SplineSet
500 150 m 2x78
 500 177.595703125 477.595703125 200 450 200 c 0xb8
 422.404296875 200 400 177.595703125 400 150 c 2
 400 0 l 1
 200 0 l 1x78
 200 150 l 2
 200 177.595703125 177.595703125 200 150 200 c 0
 122.404296875 200 100 177.595703125 100 150 c 2
 100 -50 l 2
 100 -77.595703125 122.404296875 -100 150 -100 c 0
 350 -100 550 -100 750 -100 c 0
 777.595703125 -100 800 -77.595703125 800 -50 c 2
 800 150 l 2
 800 177.595703125 777.595703125 200 750 200 c 0xb8
 722.404296875 200 700 177.595703125 700 150 c 2
 700 0 l 1
 500 0 l 1
 500 150 l 2x78
EndSplineSet
EndChar

StartChar: pa_p.8
Encoding: 179 -1 32
Width: 0
Flags: W
HStem: 0 21G<200 400 500 700>
VStem: 100 100<250 290.77> 400 100<250 290.77> 700 100<250 290.77>
CounterMasks: 1 70
AnchorPoint: "MarkBaseSet" -50 50 mark 0
LayerCount: 2
Fore
SplineSet
500 250 m 2
 500 277.595703125 477.595703125 300 450 300 c 0
 422.404296875 300 400 277.595703125 400 250 c 2
 400 0 l 1
 200 0 l 1
 200 250 l 2
 200 277.595703125 177.595703125 300 150 300 c 0
 122.404296875 300 100 277.595703125 100 250 c 2
 100 -50 l 2
 100 -77.595703125 122.404296875 -100 150 -100 c 0
 350 -100 550 -100 750 -100 c 0
 777.595703125 -100 800 -77.595703125 800 -50 c 2
 800 250 l 2
 800 277.595703125 777.595703125 300 750 300 c 0
 722.404296875 300 700 277.595703125 700 250 c 2
 700 0 l 1
 500 0 l 1
 500 250 l 2
EndSplineSet
EndChar

StartChar: nsfu_p.3
Encoding: 21 -1 33
Width: 1000
AnchorPoint: "MarkBaseSet" -50 50 basechar 0
LayerCount: 2
Fore
SplineSet
750 300 m 0
 777.595703125 300 800 322.404296875 800 350 c 0
 800 358.015625 798.109375 365.59375 794.75 372.3125 c 2
 594.75 772.3125 l 2
 586.545898438 788.720703125 569.580078125 800 550 800 c 0
 530.419921875 800 513.454101562 788.720703125 505.25 772.3125 c 2
 350 461.8125 l 1
 194.75 772.3125 l 2
 186.545898438 788.720703125 169.580078125 800 150 800 c 0
 122.404296875 800 100 777.595703125 100 750 c 0
 100 741.984375 101.890625 734.40625 105.25 727.6875 c 2
 305.25 327.6875 l 2
 313.454101562 311.279296875 330.419921875 300 350 300 c 0
 369.580078125 300 386.545898438 311.279296875 394.75 327.6875 c 2
 550 638.1875 l 1
 705.25 327.6875 l 2
 713.454101562 311.279296875 730.419921875 300 750 300 c 0
EndSplineSet
EndChar

StartChar: nsfu_p.4
Encoding: 22 -1 34
Width: 1000
AnchorPoint: "MarkBaseSet" -50 50 basechar 0
LayerCount: 2
Fore
SplineSet
450 300 m 0
 476.910705022 300 500.146584637 322.099838872 500.146584637 349.546912534 c 0
 500.146584637 354.808362304 499.292741918 360.266305495 497.447265625 365.802734375 c 2
 364.114257812 765.802734375 l 2
 357.494140625 785.6640625 338.741210938 800 316.666992188 800 c 0
 294.592773438 800 275.840820312 785.6640625 269.219726562 765.802734375 c 2
 183.333007812 508.14453125 l 1
 97.447265625 765.802734375 l 2
 90.8271484375 785.6640625 72.07421875 800 50 800 c 0
 23.089294978 800 -0.146584636855 777.900161128 -0.146584636855 750.453087466 c 0
 -0.146584636855 745.191637696 0.707258081695 739.733694505 2.552734375 734.197265625 c 2
 135.885742188 334.197265625 l 2
 142.505859375 314.3359375 161.258789062 300 183.333007812 300 c 0
 205.407226562 300 224.159179688 314.3359375 230.780273438 334.197265625 c 2
 316.666992188 591.85546875 l 1
 402.552734375 334.197265625 l 2
 409.172851562 314.3359375 427.92578125 300 450 300 c 0
EndSplineSet
EndChar

StartChar: nsfu_p.5
Encoding: 23 -1 35
Width: 1000
HStem: 500 300
AnchorPoint: "MarkBaseSet" -50 50 basechar 0
LayerCount: 2
Fore
SplineSet
750 500 m 0
 777.595703125 500 800 522.404296875 800 550 c 0
 800 563.797851562 794.399414062 576.297851562 785.348632812 585.348632812 c 2
 585.348632812 785.348632812 l 2
 576.297851562 794.399414062 563.797851562 800 550 800 c 0
 536.202148438 800 523.702148438 794.399414062 514.651367188 785.348632812 c 2
 350 620.697265625 l 1
 185.348632812 785.348632812 l 2
 176.297851562 794.399414062 163.797851562 800 150 800 c 0
 122.404296875 800 100 777.595703125 100 750 c 0
 100 736.202148438 105.600585938 723.702148438 114.651367188 714.651367188 c 2
 314.651367188 514.651367188 l 2
 323.702148438 505.600585938 336.202148438 500 350 500 c 0
 363.797851562 500 376.297851562 505.600585938 385.348632812 514.651367188 c 2
 550 679.302734375 l 1
 714.651367188 514.651367188 l 2
 723.702148438 505.600585938 736.202148438 500 750 500 c 0
EndSplineSet
EndChar

StartChar: nsfu_p.6
Encoding: 24 -1 36
Width: 1000
AnchorPoint: "MarkBaseSet" -50 50 basechar 0
LayerCount: 2
Fore
SplineSet
750 400 m 0
 777.595703125 400 800 422.404296875 800 450 c 0
 800 460.235351562 796.91796875 469.755859375 791.631835938 477.684570312 c 2
 591.631835938 777.684570312 l 2
 582.666992188 791.1328125 567.360351562 800 550 800 c 0
 532.639648438 800 517.333007812 791.1328125 508.368164062 777.684570312 c 2
 350 540.1328125 l 1
 191.631835938 777.684570312 l 2
 182.666992188 791.1328125 167.360351562 800 150 800 c 0
 122.404296875 800 100 777.595703125 100 750 c 0
 100 739.764648438 103.08203125 730.244140625 108.368164062 722.315429688 c 2
 308.368164062 422.315429688 l 2
 317.333007812 408.8671875 332.639648438 400 350 400 c 0
 367.360351562 400 382.666992188 408.8671875 391.631835938 422.315429688 c 2
 550 659.8671875 l 1
 708.368164062 422.315429688 l 2
 717.333007812 408.8671875 732.639648438 400 750 400 c 0
EndSplineSet
EndChar

StartChar: nsfu_p.7
Encoding: 25 -1 37
Width: 0
Flags: W
HStem: -100 300
AnchorPoint: "MarkBaseSet" -50 50 mark 0
LayerCount: 2
Fore
SplineSet
750 -100 m 0
 777.595703125 -100 800 -77.595703125 800 -50 c 0
 800 -36.2021484375 794.399414062 -23.7021484375 785.348632812 -14.6513671875 c 2
 585.348632812 185.348632812 l 2
 576.297851562 194.399414062 563.797851562 200 550 200 c 0
 536.202148438 200 523.702148438 194.399414062 514.651367188 185.348632812 c 2
 350 20.697265625 l 1
 185.348632812 185.348632812 l 2
 176.297851562 194.399414062 163.797851562 200 150 200 c 0
 122.404296875 200 100 177.595703125 100 150 c 0
 100 136.202148438 105.600585938 123.702148438 114.651367188 114.651367188 c 2
 314.651367188 -85.3486328125 l 2
 323.702148438 -94.3994140625 336.202148438 -100 350 -100 c 0
 363.797851562 -100 376.297851562 -94.3994140625 385.348632812 -85.3486328125 c 2
 550 79.302734375 l 1
 714.651367188 -85.3486328125 l 2
 723.702148438 -94.3994140625 736.202148438 -100 750 -100 c 0
EndSplineSet
EndChar

StartChar: nsfu_p.8
Encoding: 26 -1 38
Width: 0
Flags: W
AnchorPoint: "MarkBaseSet" -50 50 mark 0
LayerCount: 2
Fore
SplineSet
750 -100 m 0
 777.595703125 -100 800 -77.595703125 800 -50 c 0
 800 -39.7646484375 796.91796875 -30.244140625 791.631835938 -22.3154296875 c 2
 591.631835938 277.684570312 l 2
 582.666992188 291.1328125 567.360351562 300 550 300 c 0
 532.639648438 300 517.333007812 291.1328125 508.368164062 277.684570312 c 2
 350 40.1328125 l 1
 191.631835938 277.684570312 l 2
 182.666992188 291.1328125 167.360351562 300 150 300 c 0
 122.404296875 300 100 277.595703125 100 250 c 0
 100 239.764648438 103.08203125 230.244140625 108.368164062 222.315429688 c 2
 308.368164062 -77.6845703125 l 2
 317.333007812 -91.1328125 332.639648438 -100 350 -100 c 0
 367.360351562 -100 382.666992188 -91.1328125 391.631835938 -77.6845703125 c 2
 550 159.8671875 l 1
 708.368164062 -77.6845703125 l 2
 717.333007812 -91.1328125 732.639648438 -100 750 -100 c 0
EndSplineSet
EndChar

StartChar: nsfu_v
Encoding: 27 -1 39
Width: 1000
HStem: -100 100<108.573 190.907 509.093 590.907> 700 100<309.093 390.907 709.093 791.427>
VStem: 0 100<8.99244 122.053> 800 100<577.947 691.008>
LayerCount: 2
Fore
SplineSet
750 700 m 0
 727.92578125 700 709.172851562 685.6640625 702.552734375 665.802734375 c 2
 550 208.14453125 l 1
 397.447265625 665.802734375 l 2
 390.827148438 685.6640625 372.07421875 700 350 700 c 0
 327.92578125 700 309.172851562 685.6640625 302.552734375 665.802734375 c 2
 102.552734375 65.802734375 l 2
 101.143554688 61.5751953125 100.313476562 57.3935546875 100 53.3095703125 c 2
 100 45.8251953125 l 1
 101.990234375 20.1376953125 124.321289062 0 150 0 c 0
 172.07421875 0 190.827148438 14.3359375 197.447265625 34.197265625 c 2
 350 491.85546875 l 1
 502.552734375 34.197265625 l 2
 509.172851562 14.3359375 527.92578125 0 550 0 c 0
 572.07421875 0 590.827148438 14.3359375 597.447265625 34.197265625 c 2
 797.447265625 634.197265625 l 2
 798.856445312 638.424804688 799.686523438 642.606445312 800 646.690429688 c 2
 800 654.174804688 l 1
 798.009765625 679.862304688 775.678710938 700 750 700 c 0
50 800 m 2
 850 800 l 2
 877.594726562 799.997070312 899.997070312 777.594726562 900 750 c 2
 900 -50 l 2
 899.997070312 -77.59375 877.594726562 -99.9970703125 850 -100 c 2
 50 -100 l 2
 22.4052734375 -99.9970703125 0.0029296875 -77.59375 0 -50 c 2
 0 750 l 2
 0.0029296875 777.594726562 22.4052734375 800 50 800 c 2
EndSplineSet
Substitution2: "Single Substitution lookup 38 subtable" nsfu_v.3
Substitution2: "Single Substitution lookup 34 subtable" nsfu_v.1
Substitution2: "Single Substitution lookup 30 subtable" nsfu_v.3
Substitution2: "Single Substitution lookup 26 subtable" nsfu_v.2
Substitution2: "Single Substitution lookup 24 subtable" nsfu_v.7
Substitution2: "Single Substitution lookup 20 subtable" nsfu_v.5
Substitution2: "Single Substitution lookup 18 subtable" nsfu_v.8
Substitution2: "Single Substitution lookup 14 subtable" nsfu_v.6
Substitution2: "Single Substitution lookup 12 subtable" nsfu_v.7
Substitution2: "Single Substitution lookup 8 subtable" nsfu_v.4
Substitution2: "Single Substitution lookup 6 subtable" nsfu_v.7
Substitution2: "Single Substitution lookup 2 subtable" nsfu_v.5
EndChar

StartChar: nsfu_v.1
Encoding: 28 -1 40
Width: 1000
LayerCount: 2
Fore
SplineSet
102.552734375 65.802734375 m 2
 100.708956345 60.2710862097 99.8558652381 54.816913191 99.8558652381 49.5583396463 c 0
 99.8558652381 22.115656109 123.089259652 0 150 0 c 0
 172.07421875 0 190.827148438 14.3359375 197.447265625 34.197265625 c 2
 350 491.85546875 l 1
 502.552734375 34.197265625 l 2
 509.172851562 14.3359375 527.92578125 0 550 0 c 0
 572.07421875 0 590.827148438 14.3359375 597.447265625 34.197265625 c 2
 797.447265625 634.197265625 l 2
 799.291043655 639.72891379 800.144134762 645.183086809 800.144134762 650.441660354 c 0
 800.144134762 677.884343891 776.910740348 700 750 700 c 0
 727.92578125 700 709.172851562 685.6640625 702.552734375 665.802734375 c 2
 550 208.14453125 l 1
 397.447265625 665.802734375 l 2
 390.827148438 685.6640625 372.07421875 700 350 700 c 0
 327.92578125 700 309.172851562 685.6640625 302.552734375 665.802734375 c 2
 102.552734375 65.802734375 l 2
EndSplineSet
EndChar

StartChar: nsfu_v.2
Encoding: 29 -1 41
Width: 1000
VStem: -0.0818339 98.8924<8.96975 70.622> 134.522 97.6211<629.378 691.892> 267.856 97.6211<8.10788 70.6217> 401.189 98.8924<629.378 691.03>
AnchorPoint: "MarkBaseSet" -50 50 basechar 0
LayerCount: 2
Fore
SplineSet
1.189453125 60.8779296875 m 2
 0.326605498963 56.995229564 -0.0818338595388 53.1881484244 -0.0818338595388 49.4920920095 c 0
 -0.0818338595388 21.5801878094 23.2113757154 0 50 0 c 0
 73.8603515625 0 93.8388671875 16.75 98.810546875 39.1220703125 c 2
 183.333007812 419.47265625 l 1
 267.856445312 39.1220703125 l 2
 272.828125 16.7490234375 292.806640625 0 316.666992188 0 c 0
 340.52734375 0 360.505859375 16.75 365.477539062 39.1220703125 c 2
 498.810546875 639.122070312 l 2
 499.673394501 643.004770436 500.08183386 646.811851576 500.08183386 650.507907991 c 0
 500.08183386 678.419812191 476.788624285 700 450 700 c 0
 426.139648438 700 406.161132812 683.25 401.189453125 660.877929688 c 2
 316.666992188 280.52734375 l 1
 232.143554688 660.877929688 l 2
 227.171875 683.250976562 207.193359375 700 183.333007812 700 c 0
 159.47265625 700 139.494140625 683.25 134.522460938 660.877929688 c 2
 1.189453125 60.8779296875 l 2
EndSplineSet
EndChar

StartChar: nsfu_v.3
Encoding: 30 -1 42
Width: 1000
AnchorPoint: "MarkBaseSet" -50 50 basechar 0
LayerCount: 2
Fore
SplineSet
100 350 m 0
 100 322.404296875 122.404296875 300 150 300 c 0
 169.580078125 300 186.545898438 311.279296875 194.75 327.6875 c 2
 350 638.1875 l 1
 505.25 327.6875 l 2
 513.454101562 311.279296875 530.419921875 300 550 300 c 0
 569.580078125 300 586.545898438 311.279296875 594.75 327.6875 c 2
 794.75 727.6875 l 2
 798.109375 734.40625 800 741.984375 800 750 c 0
 800 777.595703125 777.595703125 800 750 800 c 0
 730.419921875 800 713.454101562 788.720703125 705.25 772.3125 c 2
 550 461.8125 l 1
 394.75 772.3125 l 2
 386.545898438 788.720703125 369.580078125 800 350 800 c 0
 330.419921875 800 313.454101562 788.720703125 305.25 772.3125 c 2
 105.25 372.3125 l 2
 101.890625 365.59375 100 358.015625 100 350 c 0
EndSplineSet
EndChar

StartChar: nsfu_v.4
Encoding: 31 -1 43
Width: 1000
AnchorPoint: "MarkBaseSet" -50 50 basechar 0
LayerCount: 2
Fore
SplineSet
2.552734375 365.802734375 m 2
 0.708956344926 360.27108621 -0.144134761903 354.816913191 -0.144134761903 349.558339646 c 0
 -0.144134761903 322.115656109 23.0892596518 300 50 300 c 0
 72.07421875 300 90.8271484375 314.3359375 97.447265625 334.197265625 c 2
 183.333007812 591.85546875 l 1
 269.219726562 334.197265625 l 2
 275.840820312 314.3359375 294.592773438 300 316.666992188 300 c 0
 338.741210938 300 357.494140625 314.3359375 364.114257812 334.197265625 c 2
 497.447265625 734.197265625 l 2
 499.291043655 739.72891379 500.144134762 745.183086809 500.144134762 750.441660354 c 0
 500.144134762 777.884343891 476.910740348 800 450 800 c 0
 427.92578125 800 409.172851562 785.6640625 402.552734375 765.802734375 c 2
 316.666992188 508.14453125 l 1
 230.780273438 765.802734375 l 2
 224.159179688 785.6640625 205.407226562 800 183.333007812 800 c 0
 161.258789062 800 142.505859375 785.6640625 135.885742188 765.802734375 c 2
 2.552734375 365.802734375 l 2
EndSplineSet
EndChar

StartChar: nsfu_v.5
Encoding: 32 -1 44
Width: 1000
HStem: 500 300
AnchorPoint: "MarkBaseSet" -50 50 basechar 0
LayerCount: 2
Fore
SplineSet
100 550 m 0
 100 522.404296875 122.404296875 500 150 500 c 0
 163.797851562 500 176.297851562 505.600585938 185.348632812 514.651367188 c 2
 350 679.302734375 l 1
 514.651367188 514.651367188 l 2
 523.702148438 505.600585938 536.202148438 500 550 500 c 0
 563.797851562 500 576.297851562 505.600585938 585.348632812 514.651367188 c 2
 785.348632812 714.651367188 l 2
 794.399414062 723.702148438 800 736.202148438 800 750 c 0
 800 777.595703125 777.595703125 800 750 800 c 0
 736.202148438 800 723.702148438 794.399414062 714.651367188 785.348632812 c 2
 550 620.697265625 l 1
 385.348632812 785.348632812 l 2
 376.297851562 794.399414062 363.797851562 800 350 800 c 0
 336.202148438 800 323.702148438 794.399414062 314.651367188 785.348632812 c 2
 114.651367188 585.348632812 l 2
 105.600585938 576.297851562 100 563.797851562 100 550 c 0
EndSplineSet
EndChar

StartChar: nsfu_v.6
Encoding: 33 -1 45
Width: 1000
AnchorPoint: "MarkBaseSet" -50 50 basechar 0
LayerCount: 2
Fore
SplineSet
100 450 m 0
 100 422.404296875 122.404296875 400 150 400 c 0
 167.360351562 400 182.666992188 408.8671875 191.631835938 422.315429688 c 2
 350 659.8671875 l 1
 508.368164062 422.315429688 l 2
 517.333007812 408.8671875 532.639648438 400 550 400 c 0
 567.360351562 400 582.666992188 408.8671875 591.631835938 422.315429688 c 2
 791.631835938 722.315429688 l 2
 796.91796875 730.244140625 800 739.764648438 800 750 c 0
 800 777.595703125 777.595703125 800 750 800 c 0
 732.639648438 800 717.333007812 791.1328125 708.368164062 777.684570312 c 2
 550 540.1328125 l 1
 391.631835938 777.684570312 l 2
 382.666992188 791.1328125 367.360351562 800 350 800 c 0
 332.639648438 800 317.333007812 791.1328125 308.368164062 777.684570312 c 2
 108.368164062 477.684570312 l 2
 103.08203125 469.755859375 100 460.235351562 100 450 c 0
EndSplineSet
EndChar

StartChar: nsfu_v.7
Encoding: 34 -1 46
Width: 0
Flags: W
HStem: -100 300
AnchorPoint: "MarkBaseSet" -50 50 mark 0
LayerCount: 2
Fore
SplineSet
100 -50 m 0
 100 -77.595703125 122.404296875 -100 150 -100 c 0
 163.797851562 -100 176.297851562 -94.3994140625 185.348632812 -85.3486328125 c 2
 350 79.302734375 l 1
 514.651367188 -85.3486328125 l 2
 523.702148438 -94.3994140625 536.202148438 -100 550 -100 c 0
 563.797851562 -100 576.297851562 -94.3994140625 585.348632812 -85.3486328125 c 2
 785.348632812 114.651367188 l 2
 794.399414062 123.702148438 800 136.202148438 800 150 c 0
 800 177.595703125 777.595703125 200 750 200 c 0
 736.202148438 200 723.702148438 194.399414062 714.651367188 185.348632812 c 2
 550 20.697265625 l 1
 385.348632812 185.348632812 l 2
 376.297851562 194.399414062 363.797851562 200 350 200 c 0
 336.202148438 200 323.702148438 194.399414062 314.651367188 185.348632812 c 2
 114.651367188 -14.6513671875 l 2
 105.600585938 -23.7021484375 100 -36.2021484375 100 -50 c 0
EndSplineSet
EndChar

StartChar: nsfu_v.8
Encoding: 35 -1 47
Width: 0
Flags: W
AnchorPoint: "MarkBaseSet" -50 50 mark 0
LayerCount: 2
Fore
SplineSet
100 -50 m 0
 100 -77.595703125 122.404296875 -100 150 -100 c 0
 167.360351562 -100 182.666992188 -91.1328125 191.631835938 -77.6845703125 c 2
 350 159.8671875 l 1
 508.368164062 -77.6845703125 l 2
 517.333007812 -91.1328125 532.639648438 -100 550 -100 c 0
 567.360351562 -100 582.666992188 -91.1328125 591.631835938 -77.6845703125 c 2
 791.631835938 222.315429688 l 2
 796.91796875 230.244140625 800 239.764648438 800 250 c 0
 800 277.595703125 777.595703125 300 750 300 c 0
 732.639648438 300 717.333007812 291.1328125 708.368164062 277.684570312 c 2
 550 40.1328125 l 1
 391.631835938 277.684570312 l 2
 382.666992188 291.1328125 367.360351562 300 350 300 c 0
 332.639648438 300 317.333007812 291.1328125 308.368164062 277.684570312 c 2
 108.368164062 -22.3154296875 l 2
 103.08203125 -30.244140625 100 -39.7646484375 100 -50 c 0
EndSplineSet
EndChar

StartChar: sfu_p
Encoding: 36 -1 48
Width: 1000
HStem: -100 100<109.23 790.77> 700 100<109.23 191.275 708.725 790.77>
VStem: 0 100<9.2299 90.7701 594.707 690.77> 800 100<9.2299 90.7701 594.707 690.77>
LayerCount: 2
Fore
SplineSet
750 700 m 0
 730.419921875 700 713.454101562 688.721679688 705.249023438 672.3125 c 2
 450 161.813476562 l 1
 194.750976562 672.3125 l 2
 186.545898438 688.721679688 169.580078125 700 150 700 c 0
 122.404296875 700 100 677.595703125 100 650 c 0
 100 641.984375 101.890625 634.40625 105.249023438 627.6875 c 2
 369.09375 100 l 1
 150 100 l 2
 122.404296875 100 100 77.595703125 100 50 c 0
 100 22.404296875 122.404296875 0 150 0 c 2
 750 0 l 2
 777.595703125 0 800 22.404296875 800 50 c 0
 800 77.595703125 777.595703125 100 750 100 c 2
 530.90625 100 l 1
 794.750976562 627.6875 l 2
 798.109375 634.40625 800 641.984375 800 650 c 0
 800 677.595703125 777.595703125 700 750 700 c 0
50 800 m 2
 850 800 l 2
 877.594726562 799.997070312 899.997070312 777.594726562 900 750 c 2
 900 -50 l 2
 899.997070312 -77.5947265625 877.594726562 -99.9970703125 850 -100 c 2
 50 -100 l 2
 22.4052734375 -99.9970703125 0.0029296875 -77.5947265625 0 -50 c 2
 0 750 l 2
 0.0029296875 777.594726562 22.4052734375 800 50 800 c 2
EndSplineSet
Substitution2: "Single Substitution lookup 38 subtable" sfu_p.3
Substitution2: "Single Substitution lookup 34 subtable" sfu_p.1
Substitution2: "Single Substitution lookup 30 subtable" sfu_p.3
Substitution2: "Single Substitution lookup 26 subtable" sfu_p.2
Substitution2: "Single Substitution lookup 24 subtable" sfu_p.7
Substitution2: "Single Substitution lookup 20 subtable" sfu_p.5
Substitution2: "Single Substitution lookup 18 subtable" sfu_p.8
Substitution2: "Single Substitution lookup 14 subtable" sfu_p.6
Substitution2: "Single Substitution lookup 12 subtable" sfu_p.7
Substitution2: "Single Substitution lookup 8 subtable" sfu_p.4
Substitution2: "Single Substitution lookup 6 subtable" sfu_p.7
Substitution2: "Single Substitution lookup 2 subtable" sfu_p.5
EndChar

StartChar: sfu_p.1
Encoding: 37 -1 49
Width: 1000
HStem: 0 100<109.23 150 750 790.77>
LayerCount: 2
Fore
SplineSet
150 700 m 0
 122.404296875 700 100 677.595703125 100 650 c 0
 100 641.984375 101.890625 634.40625 105.249023438 627.6875 c 2
 369.092773438 100 l 1
 150 100 l 2
 122.404296875 100 100 77.595703125 100 50 c 0
 100 22.404296875 122.404296875 0 150 0 c 0
 350 -0 550 0 750 0 c 0
 777.595703125 0 800 22.404296875 800 50 c 0
 800 77.595703125 777.595703125 100 750 100 c 2
 530.907226562 100 l 1
 794.750976562 627.6875 l 2
 798.109375 634.40625 800 641.984375 800 650 c 0
 800 677.595703125 777.595703125 700 750 700 c 0
 730.419921875 700 713.454101562 688.721679688 705.249023438 672.3125 c 2
 450 161.813476562 l 1
 194.750976562 672.3125 l 2
 186.545898438 688.721679688 169.580078125 700 150 700 c 0
EndSplineSet
EndChar

StartChar: sfu_p.2
Encoding: 38 -1 50
Width: 1000
HStem: 0 100<9.2299 50 450 490.77>
AnchorPoint: "MarkBaseSet" -50 50 basechar 0
LayerCount: 2
Fore
SplineSet
50 700 m 0
 23.0899986271 700 -0.146521025218 677.899970884 -0.146521025218 650.452733054 c 0
 -0.146521025218 645.191392598 0.707299518773 639.733570194 2.552734375 634.197265625 c 2
 180.618164062 100 l 1
 50 100 l 2
 22.404296875 100 0 77.595703125 0 50 c 0
 0 22.404296875 22.404296875 0 50 0 c 0
 183.333333333 -0 316.666666667 0 450 0 c 0
 477.595703125 0 500 22.404296875 500 50 c 0
 500 77.595703125 477.595703125 100 450 100 c 2
 319.381835938 100 l 1
 497.447265625 634.197265625 l 2
 499.291043655 639.72891379 500.144134762 645.183086809 500.144134762 650.441660354 c 0
 500.144134762 677.884343891 476.910740348 700 450 700 c 0
 427.92578125 700 409.173828125 685.6640625 402.552734375 665.802734375 c 2
 250 208.143554688 l 1
 97.447265625 665.802734375 l 2
 90.826171875 685.6640625 72.07421875 700 50 700 c 0
EndSplineSet
EndChar

StartChar: sfu_p.3
Encoding: 39 -1 51
Width: 1000
HStem: 300 100<109.23 150 750 790.77>
AnchorPoint: "MarkBaseSet" -50 50 basechar 0
LayerCount: 2
Fore
SplineSet
150 800 m 0
 122.404296875 800 100 777.595703125 100 750 c 0
 100 738.766601562 103.712890625 728.393554688 109.9765625 720.041992188 c 2
 350.0078125 400 l 1
 150 400 l 2
 122.404296875 400 100 377.595703125 100 350 c 0
 100 322.404296875 122.404296875 300 150 300 c 0
 350 300 550 300 750 300 c 0
 777.595703125 300 800 322.404296875 800 350 c 0
 800 377.595703125 777.595703125 400 750 400 c 2
 549.9921875 400 l 1
 790.0234375 720.041992188 l 2
 796.287109375 728.393554688 800 738.766601562 800 750 c 0
 800 777.595703125 777.595703125 800 750 800 c 0
 733.637695312 800 719.100585938 792.123046875 709.9765625 779.958007812 c 2
 450 433.322265625 l 1
 190.0234375 779.958007812 l 2
 180.899414062 792.123046875 166.362304688 800 150 800 c 0
EndSplineSet
EndChar

StartChar: sfu_p.4
Encoding: 40 -1 52
Width: 1000
HStem: 300 100<9.2299 50 450 490.77>
AnchorPoint: "MarkBaseSet" -50 50 basechar 0
LayerCount: 2
Fore
SplineSet
50 800 m 0
 22.404296875 800 0 777.595703125 0 750 c 0
 0 741.984375 1.890625 734.40625 5.25 727.6875 c 2
 169.09375 400 l 1
 50 400 l 2
 22.404296875 400 0 377.595703125 0 350 c 0
 0 322.404296875 22.404296875 300 50 300 c 0
 183.333333333 300 316.666666667 300 450 300 c 0
 477.595703125 300 500 322.404296875 500 350 c 0
 500 377.595703125 477.595703125 400 450 400 c 2
 330.90625 400 l 1
 494.75 727.6875 l 2
 498.109375 734.40625 500 741.984375 500 750 c 0
 500 777.595703125 477.595703125 800 450 800 c 0
 430.419921875 800 413.454101562 788.720703125 405.25 772.3125 c 2
 250 461.8125 l 1
 94.75 772.3125 l 2
 86.5458984375 788.720703125 69.580078125 800 50 800 c 0
EndSplineSet
EndChar

StartChar: sfu_p.5
Encoding: 41 -1 53
Width: 1000
HStem: 500 100<109.23 150 750 790.77>
AnchorPoint: "MarkBaseSet" -50 50 basechar 0
LayerCount: 2
Fore
SplineSet
150 800 m 0
 122.404296875 800 100 777.595703125 100 750 c 0
 100 732.639648438 108.8671875 717.333007812 122.315429688 708.3671875 c 2
 284.866210938 600 l 1
 150 600 l 2
 122.404296875 600 100 577.595703125 100 550 c 0
 100 522.404296875 122.404296875 500 150 500 c 2
 750 500 l 2
 777.595703125 500 800 522.404296875 800 550 c 0
 800 577.595703125 777.595703125 600 750 600 c 2
 615.133789062 600 l 1
 777.684570312 708.3671875 l 2
 791.1328125 717.333007812 800 732.639648438 800 750 c 0
 800 777.595703125 777.595703125 800 750 800 c 0
 739.764648438 800 730.244140625 796.91796875 722.315429688 791.6328125 c 2
 450 610.088867188 l 1
 177.684570312 791.6328125 l 2
 169.755859375 796.91796875 160.235351562 800 150 800 c 0
EndSplineSet
EndChar

StartChar: sfu_p.6
Encoding: 42 -1 54
Width: 1000
HStem: 400 100<109.23 150 750 790.77>
AnchorPoint: "MarkBaseSet" -50 50 basechar 0
LayerCount: 2
Fore
SplineSet
150 800 m 0
 122.404296875 800 100 777.595703125 100 750 c 0
 100 736.202148438 105.6015625 723.702148438 114.651367188 714.651367188 c 2
 329.302734375 500 l 1
 150 500 l 2
 122.404296875 500 100 477.595703125 100 450 c 0
 100 422.404296875 122.404296875 400 150 400 c 0
 350 400 550 400 750 400 c 0
 777.595703125 400 800 422.404296875 800 450 c 0
 800 477.595703125 777.595703125 500 750 500 c 2
 570.697265625 500 l 1
 785.348632812 714.651367188 l 2
 794.3984375 723.702148438 800 736.202148438 800 750 c 0
 800 777.595703125 777.595703125 800 750 800 c 0
 736.202148438 800 723.702148438 794.3984375 714.651367188 785.348632812 c 2
 450 520.696289062 l 1
 185.348632812 785.348632812 l 2
 176.297851562 794.3984375 163.797851562 800 150 800 c 0
EndSplineSet
EndChar

StartChar: sfu_p.7
Encoding: 43 -1 55
Width: 0
Flags: W
HStem: -100 100<109.23 150 750 790.77>
AnchorPoint: "MarkBaseSet" -50 50 mark 0
LayerCount: 2
Fore
SplineSet
150 200 m 0
 122.404296875 200 100 177.595703125 100 150 c 0
 100 132.639648438 108.8671875 117.333007812 122.315429688 108.3671875 c 2
 284.866210938 0 l 1
 150 0 l 2
 122.404296875 0 100 -22.404296875 100 -50 c 0
 100 -77.595703125 122.404296875 -100 150 -100 c 2
 750 -100 l 2
 777.595703125 -100 800 -77.595703125 800 -50 c 0
 800 -22.404296875 777.595703125 0 750 0 c 2
 615.133789062 0 l 1
 777.684570312 108.3671875 l 2
 791.1328125 117.333007812 800 132.639648438 800 150 c 0
 800 177.595703125 777.595703125 200 750 200 c 0
 739.764648438 200 730.244140625 196.91796875 722.315429688 191.6328125 c 2
 450 10.0888671875 l 1
 177.684570312 191.6328125 l 2
 169.755859375 196.91796875 160.235351562 200 150 200 c 0
EndSplineSet
EndChar

StartChar: sfu_p.8
Encoding: 44 -1 56
Width: 0
Flags: W
HStem: -100 100<109.23 150 750 790.77>
AnchorPoint: "MarkBaseSet" -50 50 mark 0
LayerCount: 2
Fore
SplineSet
150 300 m 0
 122.404296875 300 100 277.595703125 100 250 c 0
 100 236.202148438 105.6015625 223.702148438 114.651367188 214.651367188 c 2
 329.302734375 0 l 1
 150 0 l 2
 122.404296875 0 100 -22.404296875 100 -50 c 0
 100 -77.595703125 122.404296875 -100 150 -100 c 0
 350 -100 550 -100 750 -100 c 0
 777.595703125 -100 800 -77.595703125 800 -50 c 0
 800 -22.404296875 777.595703125 0 750 0 c 2
 570.697265625 0 l 1
 785.348632812 214.651367188 l 2
 794.3984375 223.702148438 800 236.202148438 800 250 c 0
 800 277.595703125 777.595703125 300 750 300 c 0
 736.202148438 300 723.702148438 294.3984375 714.651367188 285.348632812 c 2
 450 20.6962890625 l 1
 185.348632812 285.348632812 l 2
 176.297851562 294.3984375 163.797851562 300 150 300 c 0
EndSplineSet
EndChar

StartChar: sfv_p
Encoding: 45 -1 57
Width: 1000
HStem: -100 100<109.23 790.77> 700 100<109.078 191.364 408.636 491.364 708.636 790.924>
VStem: 0 100<9.2299 90.7701 562.216 690.998> 800 100<9.2299 90.7701 562.216 690.995>
LayerCount: 2
Fore
SplineSet
750 700 m 0
 726.59375 700 706.921875 683.881835938 701.489257812 662.1484375 c 2
 600 256.193359375 l 1
 498.510742188 662.1484375 l 2
 493.078125 683.881835938 473.40625 700 450 700 c 0
 426.59375 700 406.921875 683.881835938 401.489257812 662.1484375 c 2
 300 256.193359375 l 1
 198.510742188 662.1484375 l 2
 193.078125 683.881835938 173.40625 700 150 700 c 0
 124.227539062 700 101.680664062 679.944335938 100 653.672851562 c 1
 100 647.353515625 l 2
 100.196289062 644.24609375 100.68359375 641.072265625 101.489257812 637.8515625 c 2
 235.951171875 100 l 1
 150 100 l 2
 122.404296875 100 100 77.595703125 100 50 c 0
 100 22.404296875 122.404296875 0 150 0 c 2
 750 0 l 2
 777.595703125 0 800 22.404296875 800 50 c 0
 800 77.595703125 777.595703125 100 750 100 c 2
 664.048828125 100 l 1
 798.510742188 637.8515625 l 2
 799.31640625 641.07421875 799.803710938 644.25 800 647.358398438 c 2
 800 653.662109375 l 1
 798.323242188 679.9375 775.772460938 700 750 700 c 0
50 800 m 2
 850 800 l 2
 877.594726562 799.997070312 899.997070312 777.594726562 900 750 c 2
 900 -50 l 2
 899.997070312 -77.59375 877.594726562 -99.9970703125 850 -100 c 2
 50 -100 l 2
 22.4052734375 -99.9970703125 0.0029296875 -77.59375 0 -50 c 2
 0 750 l 2
 0.0029296875 777.594726562 22.4052734375 800 50 800 c 2
364.048828125 100 m 1
 450 443.806640625 l 1
 535.951171875 100 l 1
 364.048828125 100 l 1
EndSplineSet
Substitution2: "Single Substitution lookup 38 subtable" sfv_p.3
Substitution2: "Single Substitution lookup 34 subtable" sfv_p.1
Substitution2: "Single Substitution lookup 30 subtable" sfv_p.3
Substitution2: "Single Substitution lookup 26 subtable" sfv_p.2
Substitution2: "Single Substitution lookup 24 subtable" sfv_p.7
Substitution2: "Single Substitution lookup 20 subtable" sfv_p.5
Substitution2: "Single Substitution lookup 18 subtable" sfv_p.8
Substitution2: "Single Substitution lookup 14 subtable" sfv_p.6
Substitution2: "Single Substitution lookup 12 subtable" sfv_p.7
Substitution2: "Single Substitution lookup 8 subtable" sfv_p.4
Substitution2: "Single Substitution lookup 6 subtable" sfv_p.7
Substitution2: "Single Substitution lookup 2 subtable" sfv_p.5
EndChar

StartChar: sfv_p.1
Encoding: 46 -1 58
Width: 1000
HStem: 0 100<109.23 150 750 790.77>
VStem: 99.8996 98.6112<634.149 691.004> 701.489 98.6107<634.149 691.003>
LayerCount: 2
Fore
SplineSet
364.047851562 100 m 1
 450 443.806640625 l 1
 535.952148438 100 l 1
 364.047851562 100 l 1
150 100 m 2
 122.404296875 100 100 77.595703125 100 50 c 0
 100 22.404296875 122.404296875 0 150 0 c 2
 750 0 l 2
 777.595703125 0 800 22.404296875 800 50 c 0
 800 77.595703125 777.595703125 100 750 100 c 2
 664.047851562 100 l 1
 798.510742188 637.8515625 l 2
 799.5914924 642.174437682 800.099928736 646.413899613 800.099928736 650.519830592 c 0
 800.099928736 678.320814179 776.790393516 700 750 700 c 0
 726.59375 700 706.921875 683.881835938 701.489257812 662.1484375 c 2
 600 256.193359375 l 1
 498.510742188 662.1484375 l 2
 493.078125 683.881835938 473.40625 700 450 700 c 0
 426.59375 700 406.921875 683.881835938 401.489257812 662.1484375 c 2
 300 256.193359375 l 1
 198.510742188 662.1484375 l 2
 193.078125 683.881835938 173.40625 700 150 700 c 0
 123.206121538 700 99.8995736279 678.323542092 99.8995736279 650.522798368 c 0
 99.8995736279 646.415986452 100.408171748 642.17552968 101.489257812 637.8515625 c 2
 235.952148438 100 l 1
 150 100 l 2
EndSplineSet
EndChar

StartChar: sfv_p.2
Encoding: 47 -1 59
Width: 1000
HStem: 0 100<9.2299 50 450 490.77>
VStem: -0.0467918 99.3652<616.268 691.052> 200.682 98.6367<616.268 691.291> 400.682 99.3652<616.268 691.054>
AnchorPoint: "MarkBaseSet" -50 50 basechar 0
LayerCount: 2
Fore
SplineSet
209.029296875 100 m 1
 250 345.82421875 l 1
 290.970703125 100 l 1
 209.029296875 100 l 1
50 100 m 2
 22.404296875 100 0 77.595703125 0 50 c 0
 0 22.404296875 22.404296875 0 50 0 c 2
 450 0 l 2
 477.595703125 0 500 22.404296875 500 50 c 0
 500 77.595703125 477.595703125 100 450 100 c 2
 409.029296875 100 l 1
 499.318359375 641.734375 l 2
 499.810714769 644.688686369 500.046856861 647.590900322 500.046856861 650.425750502 c 0
 500.046856861 678.521838985 476.851294417 700.000976562 450 700.000976562 c 0
 425.219726562 700.000976562 404.625976562 681.935546875 400.681640625 658.267578125 c 2
 350 354.177734375 l 1
 299.318359375 658.267578125 l 2
 295.374023438 681.935546875 274.780273438 700.000976562 250 700.000976562 c 0
 225.219726562 700.000976562 204.625976562 681.935546875 200.681640625 658.267578125 c 2
 150 354.177734375 l 1
 99.318359375 658.267578125 l 2
 95.3740234375 681.935546875 74.7802734375 700.000976562 50 700.000976562 c 0
 23.1427263535 700.000976562 -0.0467917957251 678.514149707 -0.0467917957251 650.4242573 c 0
 -0.0467917957251 647.589767251 0.18933291906 644.688042215 0.681640625 641.734375 c 2
 90.970703125 100 l 1
 50 100 l 2
EndSplineSet
EndChar

StartChar: sfv_p.3
Encoding: 48 -1 60
Width: 1000
HStem: 300 100<109.23 150 750 790.77>
AnchorPoint: "MarkBaseSet" -50 50 basechar 0
LayerCount: 2
Fore
SplineSet
372.159179688 400 m 1
 450 607.575195312 l 1
 527.840820312 400 l 1
 372.159179688 400 l 1
150 400 m 2
 122.404296875 400 100 377.595703125 100 350 c 0
 100 322.404296875 122.404296875 300 150 300 c 2
 750 300 l 2
 777.595703125 300 800 322.404296875 800 350 c 0
 800 377.595703125 777.595703125 400 750 400 c 2
 672.159179688 400 l 1
 796.833984375 732.465820312 l 2
 799.111528888 738.539101091 800.157758895 744.559193792 800.157758895 750.357978152 c 0
 800.157758895 777.62576125 777.023642542 800 750 800 c 0
 728.572265625 800 710.275390625 786.4921875 703.166015625 767.534179688 c 2
 600 492.42578125 l 1
 496.833984375 767.534179688 l 2
 489.724609375 786.4921875 471.427734375 800 450 800 c 0
 428.572265625 800 410.275390625 786.4921875 403.166015625 767.534179688 c 2
 300 492.42578125 l 1
 196.833984375 767.534179688 l 2
 189.724609375 786.4921875 171.427734375 800 150 800 c 0
 122.979745896 800 99.8385462869 777.647961068 99.8385462869 750.37349372 c 0
 99.8385462869 744.571111701 100.88588209 738.545947993 103.166015625 732.465820312 c 2
 227.840820312 400 l 1
 150 400 l 2
EndSplineSet
EndChar

StartChar: sfv_p.4
Encoding: 49 -1 61
Width: 1000
HStem: 300 100<9.2299 50 450 490.77>
VStem: -0.100426 98.6112<734.149 791.004> 401.489 98.6107<734.149 791.003>
AnchorPoint: "MarkBaseSet" -50 50 basechar 0
LayerCount: 2
Fore
SplineSet
214.047851562 400 m 1
 250 543.806640625 l 1
 285.952148438 400 l 1
 214.047851562 400 l 1
50 400 m 2
 22.404296875 400 0 377.595703125 0 350 c 0
 0 322.404296875 22.404296875 300 50 300 c 2
 450 300 l 2
 477.595703125 300 500 322.404296875 500 350 c 0
 500 377.595703125 477.595703125 400 450 400 c 2
 414.047851562 400 l 1
 498.510742188 737.8515625 l 2
 499.5914924 742.174437682 500.099928736 746.413899613 500.099928736 750.519830592 c 0
 500.099928736 778.320814179 476.790393516 800 450 800 c 0
 426.59375 800 406.921875 783.881835938 401.489257812 762.1484375 c 2
 350 556.194335938 l 1
 298.510742188 762.1484375 l 2
 293.078125 783.881835938 273.40625 800 250 800 c 0
 226.59375 800 206.921875 783.881835938 201.489257812 762.1484375 c 2
 150 556.194335938 l 1
 98.5107421875 762.1484375 l 2
 93.078125 783.881835938 73.40625 800 50 800 c 0
 23.2061215381 800 -0.100426372079 778.323542092 -0.100426372079 750.522798368 c 0
 -0.100426372079 746.415986452 0.408171747798 742.17552968 1.4892578125 737.8515625 c 2
 85.9521484375 400 l 1
 50 400 l 2
EndSplineSet
EndChar

StartChar: sfv_p.5
Encoding: 50 -1 62
Width: 1000
HStem: 500 100<109.23 150 750 790.77>
AnchorPoint: "MarkBaseSet" -50 50 basechar 0
LayerCount: 2
Fore
SplineSet
399.991210938 600 m 1
 450 666.677734375 l 1
 500.008789062 600 l 1
 399.991210938 600 l 1
150 600 m 2
 122.404296875 600 100 577.595703125 100 550 c 0
 100 522.404296875 122.404296875 500 150 500 c 2
 750 500 l 2
 777.595703125 500 800 522.404296875 800 550 c 0
 800 577.595703125 777.595703125 600 750 600 c 2
 699.991210938 600 l 1
 790.0234375 720.041992188 l 2
 796.287109375 728.393554688 800 738.766601562 800 750 c 0
 800 777.595703125 777.595703125 800 750 800 c 0
 733.637695312 800 719.100585938 792.123046875 709.9765625 779.958007812 c 2
 600 633.323242188 l 1
 490.0234375 779.958007812 l 2
 480.899414062 792.123046875 466.362304688 800 450 800 c 0
 433.637695312 800 419.100585938 792.123046875 409.9765625 779.958007812 c 2
 300 633.323242188 l 1
 190.0234375 779.958007812 l 2
 180.899414062 792.123046875 166.362304688 800 150 800 c 0
 122.404296875 800 100 777.595703125 100 750 c 0
 100 738.766601562 103.712890625 728.393554688 109.9765625 720.041992188 c 2
 200.008789062 600 l 1
 150 600 l 2
EndSplineSet
EndChar

StartChar: sfv_p.6
Encoding: 51 -1 63
Width: 1000
HStem: 400 100<109.23 150 750 790.77>
AnchorPoint: "MarkBaseSet" -50 50 basechar 0
LayerCount: 2
Fore
SplineSet
380.90625 500 m 1
 450 638.1875 l 1
 519.09375 500 l 1
 380.90625 500 l 1
150 500 m 2
 122.404296875 500 100 477.595703125 100 450 c 0
 100 422.404296875 122.404296875 400 150 400 c 2
 750 400 l 2
 777.595703125 400 800 422.404296875 800 450 c 0
 800 477.595703125 777.595703125 500 750 500 c 2
 680.90625 500 l 1
 794.75 727.6875 l 2
 798.109375 734.40625 800 741.984375 800 750 c 0
 800 777.595703125 777.595703125 800 750 800 c 0
 730.419921875 800 713.454101562 788.721679688 705.25 772.3125 c 2
 600 561.813476562 l 1
 494.75 772.3125 l 2
 486.545898438 788.721679688 469.580078125 800 450 800 c 0
 430.419921875 800 413.454101562 788.721679688 405.25 772.3125 c 2
 300 561.813476562 l 1
 194.75 772.3125 l 2
 186.545898438 788.721679688 169.580078125 800 150 800 c 0
 122.404296875 800 100 777.595703125 100 750 c 0
 100 741.984375 101.890625 734.40625 105.25 727.6875 c 2
 219.09375 500 l 1
 150 500 l 2
EndSplineSet
EndChar

StartChar: sfv_p.7
Encoding: 52 -1 64
Width: 0
Flags: W
HStem: -100 100<109.23 150 750 790.77>
AnchorPoint: "MarkBaseSet" -50 50 mark 0
LayerCount: 2
Fore
SplineSet
399.991210938 0 m 1
 450 66.677734375 l 1
 500.008789062 0 l 1
 399.991210938 0 l 1
150 0 m 2
 122.404296875 0 100 -22.404296875 100 -50 c 0
 100 -77.595703125 122.404296875 -100 150 -100 c 2
 750 -100 l 2
 777.595703125 -100 800 -77.595703125 800 -50 c 0
 800 -22.404296875 777.595703125 0 750 0 c 2
 699.991210938 0 l 1
 790.0234375 120.041992188 l 2
 796.287109375 128.393554688 800 138.766601562 800 150 c 0
 800 177.595703125 777.595703125 200 750 200 c 0
 733.637695312 200 719.100585938 192.123046875 709.9765625 179.958007812 c 2
 600 33.3232421875 l 1
 490.0234375 179.958007812 l 2
 480.899414062 192.123046875 466.362304688 200 450 200 c 0
 433.637695312 200 419.100585938 192.123046875 409.9765625 179.958007812 c 2
 300 33.3232421875 l 1
 190.0234375 179.958007812 l 2
 180.899414062 192.123046875 166.362304688 200 150 200 c 0
 122.404296875 200 100 177.595703125 100 150 c 0
 100 138.766601562 103.712890625 128.393554688 109.9765625 120.041992188 c 2
 200.008789062 0 l 1
 150 0 l 2
EndSplineSet
EndChar

StartChar: sfv_p.8
Encoding: 53 -1 65
Width: 0
Flags: W
HStem: -100 100<109.23 150 750 790.77>
AnchorPoint: "MarkBaseSet" -50 50 mark 0
LayerCount: 2
Fore
SplineSet
380.90625 0 m 1
 450 138.1875 l 1
 519.09375 0 l 1
 380.90625 0 l 1
150 0 m 2
 122.404296875 0 100 -22.404296875 100 -50 c 0
 100 -77.595703125 122.404296875 -100 150 -100 c 2
 750 -100 l 2
 777.595703125 -100 800 -77.595703125 800 -50 c 0
 800 -22.404296875 777.595703125 0 750 0 c 2
 680.90625 0 l 1
 794.75 227.6875 l 2
 798.109375 234.40625 800 241.984375 800 250 c 0
 800 277.595703125 777.595703125 300 750 300 c 0
 730.419921875 300 713.454101562 288.721679688 705.25 272.3125 c 2
 600 61.8125 l 1
 494.75 272.3125 l 2
 486.545898438 288.721679688 469.580078125 300 450 300 c 0
 430.419921875 300 413.454101562 288.721679688 405.25 272.3125 c 2
 300 61.8125 l 1
 194.75 272.3125 l 2
 186.545898438 288.721679688 169.580078125 300 150 300 c 0
 122.404296875 300 100 277.595703125 100 250 c 0
 100 241.984375 101.890625 234.40625 105.25 227.6875 c 2
 219.09375 0 l 1
 150 0 l 2
EndSplineSet
EndChar

StartChar: sfu_r
Encoding: 54 -1 66
Width: 1000
HStem: -100 100<408.725 491.275> 700 100<109.23 790.77>
VStem: 0 100<599.562 690.77> 800 100<599.562 690.77>
LayerCount: 2
Fore
SplineSet
750 700 m 2
 150 700 l 2
 122.404296875 700 100 677.595703125 100 650 c 0
 100 641.984375 101.890625 634.40625 105.249023438 627.6875 c 2
 405.249023438 27.6875 l 2
 413.454101562 11.2783203125 430.419921875 0 450 0 c 0
 469.580078125 0 486.545898438 11.2783203125 494.750976562 27.6875 c 2
 794.750976562 627.6875 l 2
 798.109375 634.40625 800 641.984375 800 650 c 0
 800 677.595703125 777.595703125 700 750 700 c 2
50 800 m 2
 850 800 l 2
 877.594726562 799.997070312 899.997070312 777.594726562 900 750 c 2
 900 -50 l 2
 899.997070312 -77.5947265625 877.594726562 -99.9970703125 850 -100 c 2
 50 -100 l 2
 22.4052734375 -99.9970703125 0.0029296875 -77.5947265625 0 -50 c 2
 0 750 l 2
 0.0029296875 777.594726562 22.4052734375 800 50 800 c 2
450 161.813476562 m 1
 230.90625 600 l 1
 669.09375 600 l 1
 450 161.813476562 l 1
EndSplineSet
Substitution2: "Single Substitution lookup 38 subtable" sfu_r.3
Substitution2: "Single Substitution lookup 34 subtable" sfu_r.1
Substitution2: "Single Substitution lookup 30 subtable" sfu_r.3
Substitution2: "Single Substitution lookup 26 subtable" sfu_r.2
Substitution2: "Single Substitution lookup 24 subtable" sfu_r.7
Substitution2: "Single Substitution lookup 20 subtable" sfu_r.5
Substitution2: "Single Substitution lookup 18 subtable" sfu_r.8
Substitution2: "Single Substitution lookup 14 subtable" sfu_r.6
Substitution2: "Single Substitution lookup 12 subtable" sfu_r.7
Substitution2: "Single Substitution lookup 8 subtable" sfu_r.4
Substitution2: "Single Substitution lookup 6 subtable" sfu_r.7
Substitution2: "Single Substitution lookup 2 subtable" sfu_r.5
EndChar

StartChar: sfu_r.1
Encoding: 55 -1 67
Width: 1000
LayerCount: 2
Fore
SplineSet
450 161.813476562 m 1
 230.90625 600 l 1
 669.09375 600 l 1
 450 161.813476562 l 1
450 0 m 0
 469.580078125 0 486.545898438 11.2783203125 494.750976562 27.6875 c 2
 794.750976562 627.6875 l 2
 798.109375 634.40625 800 641.984375 800 650 c 0
 800 677.595703125 777.595703125 700 750 700 c 2
 150 700 l 2
 122.404296875 700 100 677.595703125 100 650 c 0
 100 641.984375 101.890625 634.40625 105.249023438 627.6875 c 2
 405.249023438 27.6875 l 2
 413.454101562 11.2783203125 430.419921875 0 450 0 c 0
EndSplineSet
EndChar

StartChar: sfu_r.2
Encoding: 56 -1 68
Width: 1000
AnchorPoint: "MarkBaseSet" -50 50 basechar 0
LayerCount: 2
Fore
SplineSet
250 208.143554688 m 1
 119.380859375 600 l 1
 380.619140625 600 l 1
 250 208.143554688 l 1
250 0 m 0
 272.07421875 0 290.826171875 14.3359375 297.447265625 34.197265625 c 2
 497.447265625 634.197265625 l 2
 499.291043655 639.72891379 500.144134762 645.183086809 500.144134762 650.441660354 c 0
 500.144134762 677.884343891 476.910740348 700 450 700 c 2
 50 700 l 2
 23.0899986271 700 -0.146521025218 677.899970884 -0.146521025218 650.452733054 c 0
 -0.146521025218 645.191392598 0.707299518773 639.733570194 2.552734375 634.197265625 c 2
 202.552734375 34.197265625 l 2
 209.173828125 14.3359375 227.92578125 0 250 0 c 0
EndSplineSet
EndChar

StartChar: sfu_r.3
Encoding: 57 -1 69
Width: 1000
AnchorPoint: "MarkBaseSet" -50 50 basechar 0
LayerCount: 2
Fore
SplineSet
450 433.322265625 m 1
 249.9921875 700 l 1
 650.0078125 700 l 1
 450 433.322265625 l 1
800 750 m 0
 800 777.595703125 777.595703125 800 750 800 c 2
 150 800 l 2
 122.404296875 800 100 777.595703125 100 750 c 0
 100 738.766601562 103.712890625 728.393554688 109.9765625 720.041992188 c 2
 409.9765625 320.041992188 l 2
 419.100585938 307.876953125 433.637695312 300 450 300 c 0
 466.362304688 300 480.899414062 307.876953125 490.0234375 320.041992188 c 2
 790.0234375 720.041992188 l 2
 796.287109375 728.393554688 800 738.766601562 800 750 c 0
EndSplineSet
EndChar

StartChar: sfu_r.4
Encoding: 58 -1 70
Width: 1000
AnchorPoint: "MarkBaseSet" -50 50 basechar 0
LayerCount: 2
Fore
SplineSet
250 461.813476562 m 1
 130.90625 700 l 1
 369.09375 700 l 1
 250 461.813476562 l 1
250 300 m 0
 269.580078125 300 286.545898438 311.278320312 294.750976562 327.6875 c 2
 494.750976562 727.6875 l 2
 498.109375 734.40625 500 741.984375 500 750 c 0
 500 777.595703125 477.595703125 800 450 800 c 2
 50 800 l 2
 22.404296875 800 0 777.595703125 0 750 c 0
 0 741.984375 1.890625 734.40625 5.2490234375 727.6875 c 2
 205.249023438 327.6875 l 2
 213.454101562 311.278320312 230.419921875 300 250 300 c 0
EndSplineSet
EndChar

StartChar: sfu_r.5
Encoding: 59 -1 71
Width: 1000
AnchorPoint: "MarkBaseSet" -50 50 basechar 0
LayerCount: 2
Fore
SplineSet
450 610.088867188 m 1
 315.1328125 700 l 1
 584.8671875 700 l 1
 450 610.088867188 l 1
422.315429688 508.3671875 m 2
 430.460998494 502.937133838 440.23056561 500.22155758 450.000511589 500.22155758 c 0
 459.769139946 500.22155758 469.538147063 502.936401417 477.684570312 508.3671875 c 2
 777.684570312 708.3671875 l 2
 791.1328125 717.333007812 800 732.639648438 800 750 c 0
 800 777.595703125 777.595703125 800 750 800 c 2
 150 800 l 2
 122.404296875 800 100 777.595703125 100 750 c 0
 100 732.639648438 108.8671875 717.333007812 122.315429688 708.3671875 c 2
 422.315429688 508.3671875 l 2
EndSplineSet
EndChar

StartChar: sfu_r.6
Encoding: 60 -1 72
Width: 1000
AnchorPoint: "MarkBaseSet" -50 50 basechar 0
LayerCount: 2
Fore
SplineSet
450 520.696289062 m 1
 270.696289062 700 l 1
 629.303710938 700 l 1
 450 520.696289062 l 1
450 400 m 0
 463.797851562 400 476.297851562 405.6015625 485.348632812 414.651367188 c 2
 785.348632812 714.651367188 l 2
 794.3984375 723.702148438 800 736.202148438 800 750 c 0
 800 777.595703125 777.595703125 800 750 800 c 2
 150 800 l 2
 122.404296875 800 100 777.595703125 100 750 c 0
 100 736.202148438 105.6015625 723.702148438 114.651367188 714.651367188 c 2
 414.651367188 414.651367188 l 2
 423.702148438 405.6015625 436.202148438 400 450 400 c 0
EndSplineSet
EndChar

StartChar: sfu_r.7
Encoding: 61 -1 73
Width: 0
Flags: W
AnchorPoint: "MarkBaseSet" -50 50 mark 0
LayerCount: 2
Fore
SplineSet
450 10.0888671875 m 1
 315.1328125 100 l 1
 584.8671875 100 l 1
 450 10.0888671875 l 1
422.315429688 -91.6328125 m 2
 430.460998494 -97.0628661615 440.23056561 -99.7784424199 450.000511589 -99.7784424199 c 0
 459.769139946 -99.7784424199 469.538147063 -97.0635985834 477.684570312 -91.6328125 c 2
 777.684570312 108.3671875 l 2
 791.1328125 117.333007812 800 132.639648438 800 150 c 0
 800 177.595703125 777.595703125 200 750 200 c 2
 150 200 l 2
 122.404296875 200 100 177.595703125 100 150 c 0
 100 132.639648438 108.8671875 117.333007812 122.315429688 108.3671875 c 2
 422.315429688 -91.6328125 l 2
EndSplineSet
EndChar

StartChar: sfu_r.8
Encoding: 62 -1 74
Width: 0
Flags: W
AnchorPoint: "MarkBaseSet" -50 50 mark 0
LayerCount: 2
Fore
SplineSet
450 20.6962890625 m 1
 270.696289062 200 l 1
 629.303710938 200 l 1
 450 20.6962890625 l 1
450 -100 m 0
 463.797851562 -100 476.297851562 -94.3984375 485.348632812 -85.3486328125 c 2
 785.348632812 214.651367188 l 2
 794.3984375 223.702148438 800 236.202148438 800 250 c 0
 800 277.595703125 777.595703125 300 750 300 c 2
 150 300 l 2
 122.404296875 300 100 277.595703125 100 250 c 0
 100 236.202148438 105.6015625 223.702148438 114.651367188 214.651367188 c 2
 414.651367188 -85.3486328125 l 2
 423.702148438 -94.3984375 436.202148438 -100 450 -100 c 0
EndSplineSet
EndChar

StartChar: sfv_r
Encoding: 63 -1 75
Width: 1000
HStem: -100 100<258.636 341.364 558.636 641.364> 700 100<109.078 790.924>
VStem: 0 100<562.852 690.998> 800 100<562.852 690.995>
LayerCount: 2
Fore
SplineSet
750 700 m 2
 150 700 l 2
 124.227539062 700 101.680664062 679.944335938 100 653.672851562 c 1
 100 647.353515625 l 2
 100.196289062 644.24609375 100.68359375 641.072265625 101.489257812 637.8515625 c 2
 251.489257812 37.8515625 l 2
 256.921875 16.1181640625 276.59375 0 300 0 c 0
 323.40625 0 343.078125 16.1181640625 348.510742188 37.8515625 c 2
 450 443.806640625 l 1
 551.489257812 37.8515625 l 2
 556.921875 16.1181640625 576.59375 0 600 0 c 0
 623.40625 0 643.078125 16.1181640625 648.510742188 37.8515625 c 2
 798.510742188 637.8515625 l 2
 799.31640625 641.07421875 799.803710938 644.25 800 647.358398438 c 2
 800 653.662109375 l 1
 798.323242188 679.9375 775.772460938 700 750 700 c 2
50 800 m 2
 850 800 l 2
 877.594726562 799.997070312 899.997070312 777.594726562 900 750 c 2
 900 -50 l 2
 899.997070312 -77.59375 877.594726562 -99.9970703125 850 -100 c 2
 50 -100 l 2
 22.4052734375 -99.9970703125 0.0029296875 -77.59375 0 -50 c 2
 0 750 l 2
 0.0029296875 777.594726562 22.4052734375 800 50 800 c 2
600 256.193359375 m 1
 514.048828125 600 l 1
 685.951171875 600 l 1
 600 256.193359375 l 1
300 256.193359375 m 1
 214.048828125 600 l 1
 385.951171875 600 l 1
 300 256.193359375 l 1
EndSplineSet
Substitution2: "Single Substitution lookup 38 subtable" sfv_r.3
Substitution2: "Single Substitution lookup 34 subtable" sfv_r.1
Substitution2: "Single Substitution lookup 30 subtable" sfv_r.3
Substitution2: "Single Substitution lookup 26 subtable" sfv_r.2
Substitution2: "Single Substitution lookup 24 subtable" sfv_r.7
Substitution2: "Single Substitution lookup 20 subtable" sfv_r.5
Substitution2: "Single Substitution lookup 18 subtable" sfv_r.8
Substitution2: "Single Substitution lookup 14 subtable" sfv_r.6
Substitution2: "Single Substitution lookup 12 subtable" sfv_r.7
Substitution2: "Single Substitution lookup 8 subtable" sfv_r.4
Substitution2: "Single Substitution lookup 6 subtable" sfv_r.7
Substitution2: "Single Substitution lookup 2 subtable" sfv_r.5
EndChar

StartChar: sfv_r.1
Encoding: 64 -1 76
Width: 1000
LayerCount: 2
Fore
SplineSet
600 256.193359375 m 1
 514.048828125 600 l 1
 685.951171875 600 l 1
 600 256.193359375 l 1
300 256.193359375 m 1
 214.048828125 600 l 1
 385.951171875 600 l 1
 300 256.193359375 l 1
300 0 m 0
 323.40625 0 343.078125 16.1181640625 348.510742188 37.8515625 c 2
 450 443.806640625 l 1
 551.489257812 37.8515625 l 2
 556.921875 16.1181640625 576.59375 0 600 0 c 0
 623.40625 0 643.078125 16.1181640625 648.510742188 37.8515625 c 2
 798.510742188 637.8515625 l 2
 799.5914924 642.174437682 800.099928736 646.413899613 800.099928736 650.519830592 c 0
 800.099928736 678.320814179 776.790393516 700 750 700 c 2
 150 700 l 2
 123.206121538 700 99.8995736279 678.323542092 99.8995736279 650.522798368 c 0
 99.8995736279 646.415986452 100.408171748 642.17552968 101.489257812 637.8515625 c 2
 251.489257812 37.8515625 l 2
 256.921875 16.1181640625 276.59375 0 300 0 c 0
EndSplineSet
EndChar

StartChar: sfv_r.2
Encoding: 65 -1 77
Width: 1000
VStem: 100.682 98.6367<8.71 83.7334> 300.682 98.6367<8.71 83.7334>
AnchorPoint: "MarkBaseSet" -50 50 basechar 0
LayerCount: 2
Fore
SplineSet
350 354.176757812 m 1
 309.029296875 600 l 1
 390.970703125 600 l 1
 350 354.176757812 l 1
150 354.176757812 m 1
 109.029296875 600 l 1
 190.970703125 600 l 1
 150 354.176757812 l 1
150 0 m 0
 174.780273438 0 195.374023438 18.0654296875 199.318359375 41.7333984375 c 2
 250 345.823242188 l 1
 300.681640625 41.7333984375 l 2
 304.625976562 18.0654296875 325.219726562 0 350 0 c 0
 374.780273438 0 395.374023438 18.0654296875 399.318359375 41.7333984375 c 2
 499.318359375 641.733398438 l 2
 499.810714769 644.687709807 500.046856861 647.58992376 500.046856861 650.424773939 c 0
 500.046856861 678.520862423 476.851294417 700 450 700 c 2
 50 700 l 2
 23.1427263535 700 -0.0467917957251 678.513173144 -0.0467917957251 650.423280737 c 0
 -0.0467917957251 647.588790689 0.18933291906 644.687065652 0.681640625 641.733398438 c 2
 100.681640625 41.7333984375 l 2
 104.625976562 18.0654296875 125.219726562 0 150 0 c 0
EndSplineSet
EndChar

StartChar: sfv_r.3
Encoding: 66 -1 78
Width: 1000
Flags: W
AnchorPoint: "MarkBaseSet" -50 50 basechar 0
LayerCount: 2
Fore
SplineSet
600 492.424804688 m 1
 522.159179688 700 l 1
 677.840820312 700 l 1
 600 492.424804688 l 1
300 492.424804688 m 1
 222.159179688 700 l 1
 377.840820312 700 l 1
 300 492.424804688 l 1
300 300 m 0
 321.427734375 300 339.724609375 313.5078125 346.833984375 332.465820312 c 2
 450 607.575195312 l 1
 553.166015625 332.465820312 l 2
 560.275390625 313.5078125 578.572265625 300 600 300 c 0
 621.427734375 300 639.724609375 313.5078125 646.833984375 332.465820312 c 2
 796.833984375 732.465820312 l 2
 799.111284788 738.538906834 800.157409524 744.55880868 800.157409524 750.357421718 c 0
 800.157409524 777.625456867 777.023826359 800 750 800 c 2
 150 800 l 2
 122.979562246 800 99.8388957198 777.647657224 99.8388957198 750.372937585 c 0
 99.8388957198 744.570726709 100.886126241 738.545753741 103.166015625 732.465820312 c 2
 253.166015625 332.465820312 l 2
 260.275390625 313.5078125 278.572265625 300 300 300 c 0
EndSplineSet
EndChar

StartChar: sfv_r.4
Encoding: 67 -1 79
Width: 1000
AnchorPoint: "MarkBaseSet" -50 50 basechar 0
LayerCount: 2
Fore
SplineSet
350 556.193359375 m 1
 314.048828125 700 l 1
 385.951171875 700 l 1
 350 556.193359375 l 1
150 556.193359375 m 1
 114.048828125 700 l 1
 185.951171875 700 l 1
 150 556.193359375 l 1
150 300 m 0
 173.40625 300 193.078125 316.118164062 198.510742188 337.8515625 c 2
 250 543.806640625 l 1
 301.489257812 337.8515625 l 2
 306.921875 316.118164062 326.59375 300 350 300 c 0
 373.40625 300 393.078125 316.118164062 398.510742188 337.8515625 c 2
 498.510742188 737.8515625 l 2
 499.5914924 742.174437682 500.099928736 746.413899613 500.099928736 750.519830592 c 0
 500.099928736 778.320814179 476.790393516 800 450 800 c 2
 50 800 l 2
 23.2061215381 800 -0.100426372079 778.323542092 -0.100426372079 750.522798368 c 0
 -0.100426372079 746.415986452 0.408171747798 742.17552968 1.4892578125 737.8515625 c 2
 101.489257812 337.8515625 l 2
 106.921875 316.118164062 126.59375 300 150 300 c 0
EndSplineSet
EndChar

StartChar: sfv_r.5
Encoding: 68 -1 80
Width: 1000
AnchorPoint: "MarkBaseSet" -50 50 basechar 0
LayerCount: 2
Fore
SplineSet
600 633.323242188 m 1
 549.9921875 700 l 1
 650.0078125 700 l 1
 600 633.323242188 l 1
300 633.323242188 m 1
 249.9921875 700 l 1
 350.0078125 700 l 1
 300 633.323242188 l 1
300 500 m 0
 316.362304688 500 330.899414062 507.876953125 340.0234375 520.041992188 c 2
 450 666.676757812 l 1
 559.9765625 520.041992188 l 2
 569.100585938 507.876953125 583.637695312 500 600 500 c 0
 616.362304688 500 630.899414062 507.876953125 640.0234375 520.041992188 c 2
 790.0234375 720.041992188 l 2
 796.287109375 728.393554688 800 738.766601562 800 750 c 0
 800 777.595703125 777.595703125 800 750 800 c 2
 150 800 l 2
 122.404296875 800 100 777.595703125 100 750 c 0
 100 738.766601562 103.712890625 728.393554688 109.9765625 720.041992188 c 2
 259.9765625 520.041992188 l 2
 269.100585938 507.876953125 283.637695312 500 300 500 c 0
EndSplineSet
EndChar

StartChar: sfv_r.6
Encoding: 69 -1 81
Width: 1000
AnchorPoint: "MarkBaseSet" -50 50 basechar 0
LayerCount: 2
Fore
SplineSet
600 561.8125 m 1
 530.90625 700 l 1
 669.09375 700 l 1
 600 561.8125 l 1
300 561.8125 m 1
 230.90625 700 l 1
 369.09375 700 l 1
 300 561.8125 l 1
300 400 m 0
 319.580078125 400 336.545898438 411.278320312 344.75 427.6875 c 2
 450 638.1875 l 1
 555.25 427.6875 l 2
 563.454101562 411.278320312 580.419921875 400 600 400 c 0
 619.580078125 400 636.545898438 411.278320312 644.75 427.6875 c 2
 794.75 727.6875 l 2
 798.109375 734.40625 800 741.984375 800 750 c 0
 800 777.595703125 777.595703125 800 750 800 c 2
 150 800 l 2
 122.404296875 800 100 777.595703125 100 750 c 0
 100 741.984375 101.890625 734.40625 105.25 727.6875 c 2
 255.25 427.6875 l 2
 263.454101562 411.278320312 280.419921875 400 300 400 c 0
EndSplineSet
EndChar

StartChar: sfv_r.7
Encoding: 70 -1 82
Width: 0
Flags: W
AnchorPoint: "MarkBaseSet" -50 50 mark 0
LayerCount: 2
Fore
SplineSet
600 33.3232421875 m 1
 549.9921875 100 l 1
 650.0078125 100 l 1
 600 33.3232421875 l 1
300 33.3232421875 m 1
 249.9921875 100 l 1
 350.0078125 100 l 1
 300 33.3232421875 l 1
300 -100 m 0
 316.362304688 -100 330.899414062 -92.123046875 340.0234375 -79.9580078125 c 2
 450 66.6767578125 l 1
 559.9765625 -79.9580078125 l 2
 569.100585938 -92.123046875 583.637695312 -100 600 -100 c 0
 616.362304688 -100 630.899414062 -92.123046875 640.0234375 -79.9580078125 c 2
 790.0234375 120.041992188 l 2
 796.287109375 128.393554688 800 138.766601562 800 150 c 0
 800 177.595703125 777.595703125 200 750 200 c 2
 150 200 l 2
 122.404296875 200 100 177.595703125 100 150 c 0
 100 138.766601562 103.712890625 128.393554688 109.9765625 120.041992188 c 2
 259.9765625 -79.9580078125 l 2
 269.100585938 -92.123046875 283.637695312 -100 300 -100 c 0
EndSplineSet
EndChar

StartChar: sfv_r.8
Encoding: 71 -1 83
Width: 0
Flags: W
AnchorPoint: "MarkBaseSet" -50 50 mark 0
LayerCount: 2
Fore
SplineSet
600 61.8125 m 1
 530.90625 200 l 1
 669.09375 200 l 1
 600 61.8125 l 1
300 61.8125 m 1
 230.90625 200 l 1
 369.09375 200 l 1
 300 61.8125 l 1
300 -100 m 0
 319.580078125 -100 336.545898438 -88.7216796875 344.75 -72.3125 c 2
 450 138.1875 l 1
 555.25 -72.3125 l 2
 563.454101562 -88.7216796875 580.419921875 -100 600 -100 c 0
 619.580078125 -100 636.545898438 -88.7216796875 644.75 -72.3125 c 2
 794.75 227.6875 l 2
 798.109375 234.40625 800 241.984375 800 250 c 0
 800 277.595703125 777.595703125 300 750 300 c 2
 150 300 l 2
 122.404296875 300 100 277.595703125 100 250 c 0
 100 241.984375 101.890625 234.40625 105.25 227.6875 c 2
 255.25 -72.3125 l 2
 263.454101562 -88.7216796875 280.419921875 -100 300 -100 c 0
EndSplineSet
EndChar

StartChar: sfu_a
Encoding: 72 -1 84
Width: 1000
HStem: -100 100<408.725 491.275> 700 100<109.23 191.275 708.725 790.77>
VStem: 0 100<599.562 690.77> 800 100<599.562 690.77>
LayerCount: 2
Fore
SplineSet
750 700 m 0
 730.419921875 700 713.454101562 688.721679688 705.249023438 672.3125 c 2
 450 161.813476562 l 1
 194.750976562 672.3125 l 2
 186.545898438 688.721679688 169.580078125 700 150 700 c 0
 122.404296875 700 100 677.595703125 100 650 c 0
 100 641.984375 101.890625 634.40625 105.249023438 627.6875 c 2
 405.249023438 27.6875 l 2
 413.454101562 11.2783203125 430.419921875 0 450 0 c 0
 469.580078125 0 486.545898438 11.2783203125 494.750976562 27.6875 c 2
 794.750976562 627.6875 l 2
 798.109375 634.40625 800 641.984375 800 650 c 0
 800 677.595703125 777.595703125 700 750 700 c 0
50 800 m 2
 850 800 l 2
 877.594726562 799.997070312 899.997070312 777.594726562 900 750 c 2
 900 -50 l 2
 899.997070312 -77.5947265625 877.594726562 -99.9970703125 850 -100 c 2
 50 -100 l 2
 22.4052734375 -99.9970703125 0.0029296875 -77.5947265625 0 -50 c 2
 0 750 l 2
 0.0029296875 777.594726562 22.4052734375 800 50 800 c 2
EndSplineSet
Substitution2: "Single Substitution lookup 38 subtable" sfu_a.3
Substitution2: "Single Substitution lookup 34 subtable" sfu_a.1
Substitution2: "Single Substitution lookup 30 subtable" sfu_a.3
Substitution2: "Single Substitution lookup 26 subtable" sfu_a.2
Substitution2: "Single Substitution lookup 24 subtable" sfu_a.7
Substitution2: "Single Substitution lookup 20 subtable" sfu_a.5
Substitution2: "Single Substitution lookup 18 subtable" sfu_a.8
Substitution2: "Single Substitution lookup 14 subtable" sfu_a.6
Substitution2: "Single Substitution lookup 12 subtable" sfu_a.7
Substitution2: "Single Substitution lookup 8 subtable" sfu_a.4
Substitution2: "Single Substitution lookup 6 subtable" sfu_a.7
Substitution2: "Single Substitution lookup 2 subtable" sfu_a.5
EndChar

StartChar: sfu_a.1
Encoding: 73 -1 85
Width: 1000
LayerCount: 2
Fore
SplineSet
150 700 m 0
 122.404296875 700 100 677.595703125 100 650 c 0
 100 641.984375 101.890625 634.40625 105.249023438 627.6875 c 2
 405.249023438 27.6875 l 2
 413.454101562 11.2783203125 430.419921875 0 450 0 c 0
 469.580078125 0 486.545898438 11.2783203125 494.750976562 27.6875 c 2
 794.750976562 627.6875 l 2
 798.109375 634.40625 800 641.984375 800 650 c 0
 800 677.595703125 777.595703125 700 750 700 c 0
 730.419921875 700 713.454101562 688.721679688 705.249023438 672.3125 c 2
 450 161.813476562 l 1
 194.750976562 672.3125 l 2
 186.545898438 688.721679688 169.580078125 700 150 700 c 0
EndSplineSet
EndChar

StartChar: sfu_a.2
Encoding: 74 -1 86
Width: 1000
AnchorPoint: "MarkBaseSet" -50 50 basechar 0
LayerCount: 2
Fore
SplineSet
50 700 m 0
 23.0899986271 700 -0.146521025218 677.899970884 -0.146521025218 650.452733054 c 0
 -0.146521025218 645.191392598 0.707299518773 639.733570194 2.552734375 634.197265625 c 2
 202.552734375 34.197265625 l 2
 209.173828125 14.3359375 227.92578125 0 250 0 c 0
 272.07421875 0 290.826171875 14.3359375 297.447265625 34.197265625 c 2
 497.447265625 634.197265625 l 2
 499.291043655 639.72891379 500.144134762 645.183086809 500.144134762 650.441660354 c 0
 500.144134762 677.884343891 476.910740348 700 450 700 c 0
 427.92578125 700 409.173828125 685.6640625 402.552734375 665.802734375 c 2
 250 208.143554688 l 1
 97.447265625 665.802734375 l 2
 90.826171875 685.6640625 72.07421875 700 50 700 c 0
EndSplineSet
EndChar

StartChar: sfu_a.3
Encoding: 75 -1 87
Width: 1000
AnchorPoint: "MarkBaseSet" -50 50 basechar 0
LayerCount: 2
Fore
SplineSet
150 800 m 0
 122.404296875 800 100 777.595703125 100 750 c 0
 100 738.766601562 103.712890625 728.393554688 109.9765625 720.041992188 c 2
 409.9765625 320.041992188 l 2
 419.100585938 307.876953125 433.637695312 300 450 300 c 0
 466.362304688 300 480.899414062 307.876953125 490.0234375 320.041992188 c 2
 790.0234375 720.041992188 l 2
 796.287109375 728.393554688 800 738.766601562 800 750 c 0
 800 777.595703125 777.595703125 800 750 800 c 0
 733.637695312 800 719.100585938 792.123046875 709.9765625 779.958007812 c 2
 450 433.322265625 l 1
 190.0234375 779.958007812 l 2
 180.899414062 792.123046875 166.362304688 800 150 800 c 0
EndSplineSet
EndChar

StartChar: sfu_a.4
Encoding: 76 -1 88
Width: 1000
AnchorPoint: "MarkBaseSet" -50 50 basechar 0
LayerCount: 2
Fore
SplineSet
50 800 m 0
 22.404296875 800 0 777.595703125 0 750 c 0
 0 741.984375 1.890625 734.40625 5.2490234375 727.6875 c 2
 205.249023438 327.6875 l 2
 213.454101562 311.278320312 230.419921875 300 250 300 c 0
 269.580078125 300 286.545898438 311.278320312 294.750976562 327.6875 c 2
 494.750976562 727.6875 l 2
 498.109375 734.40625 500 741.984375 500 750 c 0
 500 777.595703125 477.595703125 800 450 800 c 0
 430.419921875 800 413.454101562 788.721679688 405.249023438 772.3125 c 2
 250 461.813476562 l 1
 94.7509765625 772.3125 l 2
 86.5458984375 788.721679688 69.580078125 800 50 800 c 0
EndSplineSet
EndChar

StartChar: sfu_a.5
Encoding: 77 -1 89
Width: 1000
HStem: 500.222 299.778
AnchorPoint: "MarkBaseSet" -50 50 basechar 0
LayerCount: 2
Fore
SplineSet
150 800 m 0
 122.404296875 800 100 777.595703125 100 750 c 0
 100 732.639648438 108.8671875 717.333007812 122.315429688 708.3671875 c 2
 422.315429688 508.3671875 l 2
 430.460998494 502.937133838 440.23056561 500.22155758 450.000511589 500.22155758 c 0
 459.769139946 500.22155758 469.538147063 502.936401417 477.684570312 508.3671875 c 2
 777.684570312 708.3671875 l 2
 791.1328125 717.333007812 800 732.639648438 800 750 c 0
 800 777.595703125 777.595703125 800 750 800 c 0
 739.764648438 800 730.244140625 796.91796875 722.315429688 791.6328125 c 2
 450 610.088867188 l 1
 177.684570312 791.6328125 l 2
 169.755859375 796.91796875 160.235351562 800 150 800 c 0
EndSplineSet
EndChar

StartChar: sfu_a.6
Encoding: 78 -1 90
Width: 1000
AnchorPoint: "MarkBaseSet" -50 50 basechar 0
LayerCount: 2
Fore
SplineSet
150 800 m 0
 122.404296875 800 100 777.595703125 100 750 c 0
 100 736.202148438 105.6015625 723.702148438 114.651367188 714.651367188 c 2
 414.651367188 414.651367188 l 2
 423.702148438 405.6015625 436.202148438 400 450 400 c 0
 463.797851562 400 476.297851562 405.6015625 485.348632812 414.651367188 c 2
 785.348632812 714.651367188 l 2
 794.3984375 723.702148438 800 736.202148438 800 750 c 0
 800 777.595703125 777.595703125 800 750 800 c 0
 736.202148438 800 723.702148438 794.3984375 714.651367188 785.348632812 c 2
 450 520.696289062 l 1
 185.348632812 785.348632812 l 2
 176.297851562 794.3984375 163.797851562 800 150 800 c 0
EndSplineSet
EndChar

StartChar: sfu_a.7
Encoding: 79 -1 91
Width: 0
Flags: W
HStem: -99.7784 299.778
AnchorPoint: "MarkBaseSet" -50 50 mark 0
LayerCount: 2
Fore
SplineSet
150 200 m 0
 122.404296875 200 100 177.595703125 100 150 c 0
 100 132.639648438 108.8671875 117.333007812 122.315429688 108.3671875 c 2
 422.315429688 -91.6328125 l 2
 430.460998494 -97.0628661615 440.23056561 -99.7784424199 450.000511589 -99.7784424199 c 0
 459.769139946 -99.7784424199 469.538147063 -97.0635985834 477.684570312 -91.6328125 c 2
 777.684570312 108.3671875 l 2
 791.1328125 117.333007812 800 132.639648438 800 150 c 0
 800 177.595703125 777.595703125 200 750 200 c 0
 739.764648438 200 730.244140625 196.91796875 722.315429688 191.6328125 c 2
 450 10.0888671875 l 1
 177.684570312 191.6328125 l 2
 169.755859375 196.91796875 160.235351562 200 150 200 c 0
EndSplineSet
EndChar

StartChar: sfu_a.8
Encoding: 80 -1 92
Width: 0
Flags: W
AnchorPoint: "MarkBaseSet" -50 50 mark 0
LayerCount: 2
Fore
SplineSet
150 300 m 0
 122.404296875 300 100 277.595703125 100 250 c 0
 100 236.202148438 105.6015625 223.702148438 114.651367188 214.651367188 c 2
 414.651367188 -85.3486328125 l 2
 423.702148438 -94.3984375 436.202148438 -100 450 -100 c 0
 463.797851562 -100 476.297851562 -94.3984375 485.348632812 -85.3486328125 c 2
 785.348632812 214.651367188 l 2
 794.3984375 223.702148438 800 236.202148438 800 250 c 0
 800 277.595703125 777.595703125 300 750 300 c 0
 736.202148438 300 723.702148438 294.3984375 714.651367188 285.348632812 c 2
 450 20.6962890625 l 1
 185.348632812 285.348632812 l 2
 176.297851562 294.3984375 163.797851562 300 150 300 c 0
EndSplineSet
EndChar

StartChar: sfv_a
Encoding: 81 -1 93
Width: 1000
HStem: -100 100<258.636 341.364 558.636 641.364> 700 100<109.078 191.364 408.636 491.364 708.636 790.924>
VStem: 0 100<562.852 690.998> 800 100<562.852 690.995>
LayerCount: 2
Fore
SplineSet
750 700 m 0
 726.59375 700 706.921875 683.881835938 701.489257812 662.1484375 c 2
 600 256.193359375 l 1
 498.510742188 662.1484375 l 2
 493.078125 683.881835938 473.40625 700 450 700 c 0
 426.59375 700 406.921875 683.881835938 401.489257812 662.1484375 c 2
 300 256.193359375 l 1
 198.510742188 662.1484375 l 2
 193.078125 683.881835938 173.40625 700 150 700 c 0
 124.227539062 700 101.680664062 679.944335938 100 653.672851562 c 1
 100 647.353515625 l 2
 100.196289062 644.24609375 100.68359375 641.072265625 101.489257812 637.8515625 c 2
 251.489257812 37.8515625 l 2
 256.921875 16.1181640625 276.59375 0 300 0 c 0
 323.40625 0 343.078125 16.1181640625 348.510742188 37.8515625 c 2
 450 443.806640625 l 1
 551.489257812 37.8515625 l 2
 556.921875 16.1181640625 576.59375 0 600 0 c 0
 623.40625 0 643.078125 16.1181640625 648.510742188 37.8515625 c 2
 798.510742188 637.8515625 l 2
 799.31640625 641.07421875 799.803710938 644.25 800 647.358398438 c 2
 800 653.662109375 l 1
 798.323242188 679.9375 775.772460938 700 750 700 c 0
50 800 m 2
 850 800 l 2
 877.594726562 799.997070312 899.997070312 777.594726562 900 750 c 2
 900 -50 l 2
 899.997070312 -77.59375 877.594726562 -99.9970703125 850 -100 c 2
 50 -100 l 2
 22.4052734375 -99.9970703125 0.0029296875 -77.59375 0 -50 c 2
 0 750 l 2
 0.0029296875 777.594726562 22.4052734375 800 50 800 c 2
EndSplineSet
Substitution2: "Single Substitution lookup 38 subtable" sfv_a.3
Substitution2: "Single Substitution lookup 34 subtable" sfv_a.1
Substitution2: "Single Substitution lookup 30 subtable" sfv_a.3
Substitution2: "Single Substitution lookup 26 subtable" sfv_a.2
Substitution2: "Single Substitution lookup 24 subtable" sfv_a.7
Substitution2: "Single Substitution lookup 20 subtable" sfv_a.5
Substitution2: "Single Substitution lookup 18 subtable" sfv_a.8
Substitution2: "Single Substitution lookup 14 subtable" sfv_a.6
Substitution2: "Single Substitution lookup 12 subtable" sfv_a.7
Substitution2: "Single Substitution lookup 8 subtable" sfv_a.4
Substitution2: "Single Substitution lookup 6 subtable" sfv_a.7
Substitution2: "Single Substitution lookup 2 subtable" sfv_a.5
EndChar

StartChar: sfv_a.1
Encoding: 82 -1 94
Width: 1000
VStem: 99.8996 98.6112<634.149 691.004> 701.489 98.6107<634.149 691.003>
LayerCount: 2
Fore
SplineSet
600 0 m 0
 623.40625 0 643.078125 16.1181640625 648.510742188 37.8515625 c 2
 798.510742188 637.8515625 l 2
 799.5914924 642.174437682 800.099928736 646.413899613 800.099928736 650.519830592 c 0
 800.099928736 678.320814179 776.790393516 700 750 700 c 0
 726.59375 700 706.921875 683.881835938 701.489257812 662.1484375 c 2
 600 256.193359375 l 1
 498.510742188 662.1484375 l 2
 493.078125 683.881835938 473.40625 700 450 700 c 0
 426.59375 700 406.921875 683.881835938 401.489257812 662.1484375 c 2
 300 256.193359375 l 1
 198.510742188 662.1484375 l 2
 193.078125 683.881835938 173.40625 700 150 700 c 0
 123.206121538 700 99.8995736279 678.323542092 99.8995736279 650.522798368 c 0
 99.8995736279 646.415986452 100.408171748 642.17552968 101.489257812 637.8515625 c 2
 251.489257812 37.8515625 l 2
 256.921875 16.1181640625 276.59375 0 300 0 c 0
 323.40625 0 343.078125 16.1181640625 348.510742188 37.8515625 c 2
 450 443.806640625 l 1
 551.489257812 37.8515625 l 2
 556.921875 16.1181640625 576.59375 0 600 0 c 0
EndSplineSet
EndChar

StartChar: sfv_a.2
Encoding: 83 -1 95
Width: 1000
VStem: -0.0467918 99.3652<616.267 691.051> 100.682 98.6367<8.71 83.7334> 200.682 98.6367<616.267 691.29> 300.682 98.6367<8.71 83.7334> 400.682 99.3652<616.267 691.053>
AnchorPoint: "MarkBaseSet" -50 50 basechar 0
LayerCount: 2
Fore
SplineSet
350 0 m 0
 374.780273438 0 395.374023438 18.0654296875 399.318359375 41.7333984375 c 2
 499.318359375 641.733398438 l 2
 499.810714769 644.687709807 500.046856861 647.58992376 500.046856861 650.424773939 c 0
 500.046856861 678.520862423 476.851294417 700 450 700 c 0
 425.219726562 700 404.625976562 681.934570312 400.681640625 658.266601562 c 2
 350 354.176757812 l 1
 299.318359375 658.266601562 l 2
 295.374023438 681.934570312 274.780273438 700 250 700 c 0
 225.219726562 700 204.625976562 681.934570312 200.681640625 658.266601562 c 2
 150 354.176757812 l 1
 99.318359375 658.266601562 l 2
 95.3740234375 681.934570312 74.7802734375 700 50 700 c 0
 23.1427263535 700 -0.0467917957251 678.513173144 -0.0467917957251 650.423280737 c 0
 -0.0467917957251 647.588790689 0.18933291906 644.687065652 0.681640625 641.733398438 c 2
 100.681640625 41.7333984375 l 2
 104.625976562 18.0654296875 125.219726562 0 150 0 c 0
 174.780273438 0 195.374023438 18.0654296875 199.318359375 41.7333984375 c 2
 250 345.823242188 l 1
 300.681640625 41.7333984375 l 2
 304.625976562 18.0654296875 325.219726562 0 350 0 c 0
EndSplineSet
EndChar

StartChar: sfv_a.3
Encoding: 84 -1 96
Width: 1000
AnchorPoint: "MarkBaseSet" -50 50 basechar 0
LayerCount: 2
Fore
SplineSet
600 300 m 0
 621.427734375 300 639.724609375 313.5078125 646.833984375 332.465820312 c 2
 796.833984375 732.465820312 l 2
 799.111284788 738.538906834 800.157409524 744.55880868 800.157409524 750.357421718 c 0
 800.157409524 777.625456867 777.023826359 800 750 800 c 0
 728.572265625 800 710.275390625 786.4921875 703.166015625 767.534179688 c 2
 600 492.424804688 l 1
 496.833984375 767.534179688 l 2
 489.724609375 786.4921875 471.427734375 800 450 800 c 0
 428.572265625 800 410.275390625 786.4921875 403.166015625 767.534179688 c 2
 300 492.424804688 l 1
 196.833984375 767.534179688 l 2
 189.724609375 786.4921875 171.427734375 800 150 800 c 0
 122.979562246 800 99.8388957198 777.647657224 99.8388957198 750.372937585 c 0
 99.8388957198 744.570726709 100.886126241 738.545753741 103.166015625 732.465820312 c 2
 253.166015625 332.465820312 l 2
 260.275390625 313.5078125 278.572265625 300 300 300 c 0
 321.427734375 300 339.724609375 313.5078125 346.833984375 332.465820312 c 2
 450 607.575195312 l 1
 553.166015625 332.465820312 l 2
 560.275390625 313.5078125 578.572265625 300 600 300 c 0
EndSplineSet
EndChar

StartChar: sfv_a.4
Encoding: 85 -1 97
Width: 1000
VStem: -0.100426 98.6112<734.149 791.004> 401.489 98.6107<734.149 791.003>
AnchorPoint: "MarkBaseSet" -50 50 basechar 0
LayerCount: 2
Fore
SplineSet
350 300 m 0
 373.40625 300 393.078125 316.118164062 398.510742188 337.8515625 c 2
 498.510742188 737.8515625 l 2
 499.5914924 742.174437682 500.099928736 746.413899613 500.099928736 750.519830592 c 0
 500.099928736 778.320814179 476.790393516 800 450 800 c 0
 426.59375 800 406.921875 783.881835938 401.489257812 762.1484375 c 2
 350 556.193359375 l 1
 298.510742188 762.1484375 l 2
 293.078125 783.881835938 273.40625 800 250 800 c 0
 226.59375 800 206.921875 783.881835938 201.489257812 762.1484375 c 2
 150 556.193359375 l 1
 98.5107421875 762.1484375 l 2
 93.078125 783.881835938 73.40625 800 50 800 c 0
 23.2061215381 800 -0.100426372079 778.323542092 -0.100426372079 750.522798368 c 0
 -0.100426372079 746.415986452 0.408171747798 742.17552968 1.4892578125 737.8515625 c 2
 101.489257812 337.8515625 l 2
 106.921875 316.118164062 126.59375 300 150 300 c 0
 173.40625 300 193.078125 316.118164062 198.510742188 337.8515625 c 2
 250 543.806640625 l 1
 301.489257812 337.8515625 l 2
 306.921875 316.118164062 326.59375 300 350 300 c 0
EndSplineSet
EndChar

StartChar: sfv_a.5
Encoding: 86 -1 98
Width: 1000
HStem: 500 300
AnchorPoint: "MarkBaseSet" -50 50 basechar 0
LayerCount: 2
Fore
SplineSet
600 500 m 0
 616.362304688 500 630.899414062 507.876953125 640.0234375 520.041992188 c 2
 790.0234375 720.041992188 l 2
 796.287109375 728.393554688 800 738.766601562 800 750 c 0
 800 777.595703125 777.595703125 800 750 800 c 0
 733.637695312 800 719.100585938 792.123046875 709.9765625 779.958007812 c 2
 600 633.323242188 l 1
 490.0234375 779.958007812 l 2
 480.899414062 792.123046875 466.362304688 800 450 800 c 0
 433.637695312 800 419.100585938 792.123046875 409.9765625 779.958007812 c 2
 300 633.323242188 l 1
 190.0234375 779.958007812 l 2
 180.899414062 792.123046875 166.362304688 800 150 800 c 0
 122.404296875 800 100 777.595703125 100 750 c 0
 100 738.766601562 103.712890625 728.393554688 109.9765625 720.041992188 c 2
 259.9765625 520.041992188 l 2
 269.100585938 507.876953125 283.637695312 500 300 500 c 0
 316.362304688 500 330.899414062 507.876953125 340.0234375 520.041992188 c 2
 450 666.676757812 l 1
 559.9765625 520.041992188 l 2
 569.100585938 507.876953125 583.637695312 500 600 500 c 0
EndSplineSet
EndChar

StartChar: sfv_a.6
Encoding: 87 -1 99
Width: 1000
AnchorPoint: "MarkBaseSet" -50 50 basechar 0
LayerCount: 2
Fore
SplineSet
600 400 m 0
 619.580078125 400 636.545898438 411.278320312 644.75 427.6875 c 2
 794.75 727.6875 l 2
 798.109375 734.40625 800 741.984375 800 750 c 0
 800 777.595703125 777.595703125 800 750 800 c 0
 730.419921875 800 713.454101562 788.721679688 705.25 772.3125 c 2
 600 561.8125 l 1
 494.75 772.3125 l 2
 486.545898438 788.721679688 469.580078125 800 450 800 c 0
 430.419921875 800 413.454101562 788.721679688 405.25 772.3125 c 2
 300 561.8125 l 1
 194.75 772.3125 l 2
 186.545898438 788.721679688 169.580078125 800 150 800 c 0
 122.404296875 800 100 777.595703125 100 750 c 0
 100 741.984375 101.890625 734.40625 105.25 727.6875 c 2
 255.25 427.6875 l 2
 263.454101562 411.278320312 280.419921875 400 300 400 c 0
 319.580078125 400 336.545898438 411.278320312 344.75 427.6875 c 2
 450 638.1875 l 1
 555.25 427.6875 l 2
 563.454101562 411.278320312 580.419921875 400 600 400 c 0
EndSplineSet
EndChar

StartChar: sfv_a.7
Encoding: 88 -1 100
Width: 0
Flags: W
HStem: -100 300
AnchorPoint: "MarkBaseSet" -50 50 mark 0
LayerCount: 2
Fore
SplineSet
600 -100 m 0
 616.362304688 -100 630.899414062 -92.123046875 640.0234375 -79.9580078125 c 2
 790.0234375 120.041992188 l 2
 796.287109375 128.393554688 800 138.766601562 800 150 c 0
 800 177.595703125 777.595703125 200 750 200 c 0
 733.637695312 200 719.100585938 192.123046875 709.9765625 179.958007812 c 2
 600 33.3232421875 l 1
 490.0234375 179.958007812 l 2
 480.899414062 192.123046875 466.362304688 200 450 200 c 0
 433.637695312 200 419.100585938 192.123046875 409.9765625 179.958007812 c 2
 300 33.3232421875 l 1
 190.0234375 179.958007812 l 2
 180.899414062 192.123046875 166.362304688 200 150 200 c 0
 122.404296875 200 100 177.595703125 100 150 c 0
 100 138.766601562 103.712890625 128.393554688 109.9765625 120.041992188 c 2
 259.9765625 -79.9580078125 l 2
 269.100585938 -92.123046875 283.637695312 -100 300 -100 c 0
 316.362304688 -100 330.899414062 -92.123046875 340.0234375 -79.9580078125 c 2
 450 66.6767578125 l 1
 559.9765625 -79.9580078125 l 2
 569.100585938 -92.123046875 583.637695312 -100 600 -100 c 0
EndSplineSet
EndChar

StartChar: sfv_a.8
Encoding: 89 -1 101
Width: 0
Flags: W
AnchorPoint: "MarkBaseSet" -50 50 mark 0
LayerCount: 2
Fore
SplineSet
600 -100 m 0
 619.580078125 -100 636.545898438 -88.7216796875 644.75 -72.3125 c 2
 794.75 227.6875 l 2
 798.109375 234.40625 800 241.984375 800 250 c 0
 800 277.595703125 777.595703125 300 750 300 c 0
 730.419921875 300 713.454101562 288.721679688 705.25 272.3125 c 2
 600 61.8125 l 1
 494.75 272.3125 l 2
 486.545898438 288.721679688 469.580078125 300 450 300 c 0
 430.419921875 300 413.454101562 288.721679688 405.25 272.3125 c 2
 300 61.8125 l 1
 194.75 272.3125 l 2
 186.545898438 288.721679688 169.580078125 300 150 300 c 0
 122.404296875 300 100 277.595703125 100 250 c 0
 100 241.984375 101.890625 234.40625 105.25 227.6875 c 2
 255.25 -72.3125 l 2
 263.454101562 -88.7216796875 280.419921875 -100 300 -100 c 0
 319.580078125 -100 336.545898438 -88.7216796875 344.75 -72.3125 c 2
 450 138.1875 l 1
 555.25 -72.3125 l 2
 563.454101562 -88.7216796875 580.419921875 -100 600 -100 c 0
EndSplineSet
EndChar

StartChar: nsfu_b
Encoding: 90 -1 102
Width: 1000
HStem: -100 100<109.23 790.77> 100 500<109.23 700> 700 100<109.23 790.77>
VStem: 0 100<9.2299 90.7701 609.23 690.77> 800 100<9.2299 690.77>
CounterMasks: 1 e0
LayerCount: 2
Fore
SplineSet
750 700 m 2
 150 700 l 2
 122.404296875 700 100 677.595703125 100 650 c 0
 100 622.404296875 122.404296875 600 150 600 c 2
 700 600 l 1
 700 100 l 1
 150 100 l 2
 122.404296875 100 100 77.595703125 100 50 c 0
 100 22.404296875 122.404296875 0 150 0 c 2
 750 0 l 2
 777.595703125 0 800 22.404296875 800 50 c 2
 800 650 l 2
 800 677.595703125 777.595703125 700 750 700 c 2
50 800 m 2
 850 800 l 2
 877.594726562 799.997070312 899.997070312 777.594726562 900 750 c 2
 900 -50 l 2
 899.997070312 -77.5947265625 877.594726562 -99.9970703125 850 -100 c 2
 50 -100 l 2
 22.4052734375 -99.9970703125 0.0029296875 -77.5947265625 0 -50 c 2
 0 750 l 2
 0.0029296875 777.594726562 22.4052734375 800 50 800 c 2
EndSplineSet
Substitution2: "Single Substitution lookup 38 subtable" nsfu_b.3
Substitution2: "Single Substitution lookup 34 subtable" nsfu_b.1
Substitution2: "Single Substitution lookup 30 subtable" nsfu_b.3
Substitution2: "Single Substitution lookup 26 subtable" nsfu_b.2
Substitution2: "Single Substitution lookup 24 subtable" nsfu_b.7
Substitution2: "Single Substitution lookup 20 subtable" nsfu_b.5
Substitution2: "Single Substitution lookup 18 subtable" nsfu_b.8
Substitution2: "Single Substitution lookup 14 subtable" nsfu_b.6
Substitution2: "Single Substitution lookup 12 subtable" nsfu_b.7
Substitution2: "Single Substitution lookup 8 subtable" nsfu_b.4
Substitution2: "Single Substitution lookup 6 subtable" nsfu_b.7
Substitution2: "Single Substitution lookup 2 subtable" nsfu_b.5
EndChar

StartChar: nsfu_b.1
Encoding: 91 -1 103
Width: 1000
HStem: 0 100<109.23 150> 600 100<109.23 150>
LayerCount: 2
Fore
SplineSet
150 700 m 2
 122.404296875 700 100 677.595703125 100 650 c 0
 100 622.404296875 122.404296875 600 150 600 c 2
 700 600 l 1
 700 100 l 1
 150 100 l 2
 122.404296875 100 100 77.595703125 100 50 c 0
 100 22.404296875 122.404296875 0 150 0 c 2
 750 0 l 2
 777.595703125 0 800 22.404296875 800 50 c 2
 800 650 l 2
 800 677.595703125 777.595703125 700 750 700 c 2
 150 700 l 2
EndSplineSet
EndChar

StartChar: nsfu_b.2
Encoding: 92 -1 104
Width: 1000
HStem: 0 100<9.2299 50> 600 100<9.2299 50>
AnchorPoint: "MarkBaseSet" -50 50 basechar 0
LayerCount: 2
Fore
SplineSet
50 700 m 2
 22.404296875 700 0 677.595703125 0 650 c 0
 0 622.404296875 22.404296875 600 50 600 c 2
 400 600 l 1
 400 100 l 1
 50 100 l 2
 22.404296875 100 0 77.595703125 0 50 c 0
 0 22.404296875 22.404296875 0 50 0 c 2
 450 0 l 2
 477.595703125 0 500 22.404296875 500 50 c 2
 500 650 l 2
 500 677.595703125 477.595703125 700 450 700 c 2
 50 700 l 2
EndSplineSet
EndChar

StartChar: nsfu_b.3
Encoding: 93 -1 105
Width: 1000
HStem: 300 100<109.23 150> 700 100<109.23 150>
AnchorPoint: "MarkBaseSet" -50 50 basechar 0
LayerCount: 2
Fore
SplineSet
150 800 m 2
 122.404296875 800 100 777.595703125 100 750 c 0
 100 722.404296875 122.404296875 700 150 700 c 2
 700 700 l 1
 700 400 l 1
 150 400 l 2
 122.404296875 400 100 377.595703125 100 350 c 0
 100 322.404296875 122.404296875 300 150 300 c 2
 750 300 l 2
 777.595703125 300 800 322.404296875 800 350 c 2
 800 750 l 2
 800 777.595703125 777.595703125 800 750 800 c 2
 150 800 l 2
EndSplineSet
EndChar

StartChar: nsfu_b.4
Encoding: 94 -1 106
Width: 1000
HStem: 300 100<9.2299 50> 700 100<9.2299 50>
AnchorPoint: "MarkBaseSet" -50 50 basechar 0
LayerCount: 2
Fore
SplineSet
50 800 m 2
 22.404296875 800 0 777.595703125 0 750 c 0
 0 722.404296875 22.404296875 700 50 700 c 2
 400 700 l 1
 400 400 l 1
 50 400 l 2
 22.404296875 400 0 377.595703125 0 350 c 0
 0 322.404296875 22.404296875 300 50 300 c 2
 450 300 l 2
 477.595703125 300 500 322.404296875 500 350 c 2
 500 750 l 2
 500 777.595703125 477.595703125 800 450 800 c 2
 50 800 l 2
EndSplineSet
EndChar

StartChar: nsfu_b.5
Encoding: 95 -1 107
Width: 1000
Flags: W
HStem: 500 100<109.23 150> 700 100<109.23 150>
AnchorPoint: "MarkBaseSet" -50 50 basechar 0
LayerCount: 2
Fore
SplineSet
150 800 m 2
 122.404296875 800 100 777.595703125 100 750 c 0
 100 722.404296875 122.404296875 700 150 700 c 2
 700 700 l 1
 700 600 l 1
 150 600 l 2
 122.404296875 600 100 577.595703125 100 550 c 0
 100 522.404296875 122.404296875 500 150 500 c 2
 750 500 l 2
 777.595703125 500 800 522.404296875 800 550 c 2
 800 750 l 2
 800 777.595703125 777.595703125 800 750 800 c 2
 150 800 l 2
EndSplineSet
EndChar

StartChar: nsfu_b.6
Encoding: 96 -1 108
Width: 1000
HStem: 400 100<109.23 150> 700 100<109.23 150>
AnchorPoint: "MarkBaseSet" -50 50 basechar 0
LayerCount: 2
Fore
SplineSet
150 800 m 2
 122.404296875 800 100 777.595703125 100 750 c 0
 100 722.404296875 122.404296875 700 150 700 c 2
 700 700 l 1
 700 500 l 1
 150 500 l 2
 122.404296875 500 100 477.595703125 100 450 c 0
 100 422.404296875 122.404296875 400 150 400 c 2
 750 400 l 2
 777.595703125 400 800 422.404296875 800 450 c 2
 800 750 l 2
 800 777.595703125 777.595703125 800 750 800 c 2
 150 800 l 2
EndSplineSet
EndChar

StartChar: nsfu_b.7
Encoding: 97 -1 109
Width: 0
Flags: W
HStem: -100 100<109.23 150> 100 100<109.23 150>
AnchorPoint: "MarkBaseSet" -50 50 mark 0
LayerCount: 2
Fore
SplineSet
150 200 m 2
 122.404296875 200 100 177.595703125 100 150 c 0
 100 122.404296875 122.404296875 100 150 100 c 2
 700 100 l 1
 700 0 l 1
 150 0 l 2
 122.404296875 0 100 -22.404296875 100 -50 c 0
 100 -77.595703125 122.404296875 -100 150 -100 c 2
 750 -100 l 2
 777.595703125 -100 800 -77.595703125 800 -50 c 2
 800 150 l 2
 800 177.595703125 777.595703125 200 750 200 c 2
 150 200 l 2
EndSplineSet
EndChar

StartChar: nsfu_b.8
Encoding: 98 -1 110
Width: 0
Flags: W
HStem: -100 100<109.23 150> 200 100<109.23 150>
AnchorPoint: "MarkBaseSet" -50 50 mark 0
LayerCount: 2
Fore
SplineSet
150 300 m 2
 122.404296875 300 100 277.595703125 100 250 c 0
 100 222.404296875 122.404296875 200 150 200 c 2
 700 200 l 1
 700 0 l 1
 150 0 l 2
 122.404296875 0 100 -22.404296875 100 -50 c 0
 100 -77.595703125 122.404296875 -100 150 -100 c 2
 750 -100 l 2
 777.595703125 -100 800 -77.595703125 800 -50 c 2
 800 250 l 2
 800 277.595703125 777.595703125 300 750 300 c 2
 150 300 l 2
EndSplineSet
EndChar

StartChar: nsfv_b
Encoding: 99 -1 111
Width: 1000
HStem: -100 100<109.23 390.77 509.23 790.77> 100 500<109.23 300 509.23 700> 700 100<109.23 390.77 509.23 790.77>
VStem: 0 300<100 600> 0 100<9.2299 90.7701 609.23 690.77> 400 300<100 600> 400 100<9.2299 90.7701 609.23 690.77> 800 100<9.2299 690.77>
CounterMasks: 1 e0
LayerCount: 2
Fore
SplineSet
750 700 m 2xe3
 550 700 l 2
 522.404296875 700 500 677.595703125 500 650 c 0xe3
 500 622.404296875 522.404296875 600 550 600 c 2
 700 600 l 1
 700 100 l 1xe5
 550 100 l 2
 522.404296875 100 500 77.595703125 500 50 c 0
 500 22.404296875 522.404296875 0 550 0 c 2
 750 0 l 2
 777.595703125 0 800 22.404296875 800 50 c 2
 800 650 l 2
 800 677.595703125 777.595703125 700 750 700 c 2xe3
350 700 m 2
 150 700 l 2
 122.404296875 700 100 677.595703125 100 650 c 0xeb
 100 622.404296875 122.404296875 600 150 600 c 2
 300 600 l 1
 300 100 l 1xf1
 150 100 l 2
 122.404296875 100 100 77.595703125 100 50 c 0xe9
 100 22.404296875 122.404296875 0 150 0 c 2
 350 0 l 2
 377.595703125 0 400 22.404296875 400 50 c 2
 400 650 l 2
 400 677.595703125 377.595703125 700 350 700 c 2
50 800 m 2
 850 800 l 2
 877.594726562 799.997070312 899.997070312 777.594726562 900 750 c 2
 900 -50 l 2
 899.997070312 -77.59375 877.594726562 -99.9970703125 850 -100 c 2
 50 -100 l 2
 22.4052734375 -99.9970703125 0.0029296875 -77.59375 0 -50 c 2
 0 750 l 2
 0.0029296875 777.594726562 22.4052734375 800 50 800 c 2
EndSplineSet
Substitution2: "Single Substitution lookup 38 subtable" nsfv_b.3
Substitution2: "Single Substitution lookup 34 subtable" nsfv_b.1
Substitution2: "Single Substitution lookup 30 subtable" nsfv_b.3
Substitution2: "Single Substitution lookup 26 subtable" nsfv_b.2
Substitution2: "Single Substitution lookup 24 subtable" nsfv_b.7
Substitution2: "Single Substitution lookup 20 subtable" nsfv_b.5
Substitution2: "Single Substitution lookup 18 subtable" nsfv_b.8
Substitution2: "Single Substitution lookup 14 subtable" nsfv_b.6
Substitution2: "Single Substitution lookup 12 subtable" nsfv_b.7
Substitution2: "Single Substitution lookup 8 subtable" nsfv_b.4
Substitution2: "Single Substitution lookup 6 subtable" nsfv_b.7
Substitution2: "Single Substitution lookup 2 subtable" nsfv_b.5
EndChar

StartChar: nsfv_b.1
Encoding: 100 -1 112
Width: 1000
HStem: 0 100<109.23 150 509.23 550> 600 100<109.23 150 509.23 550>
LayerCount: 2
Fore
SplineSet
150 700 m 2
 122.404296875 700 100 677.595703125 100 650 c 0
 100 622.404296875 122.404296875 600 150 600 c 2
 300 600 l 1
 300 100 l 1
 150 100 l 2
 122.404296875 100 100 77.595703125 100 50 c 0
 100 22.404296875 122.404296875 0 150 0 c 2
 350 0 l 2
 377.595703125 0 400 22.404296875 400 50 c 2
 400 650 l 2
 400 677.595703125 377.595703125 700 350 700 c 2
 150 700 l 2
550 700 m 2
 522.404296875 700 500 677.595703125 500 650 c 0
 500 622.404296875 522.404296875 600 550 600 c 2
 700 600 l 1
 700 100 l 1
 550 100 l 2
 522.404296875 100 500 77.595703125 500 50 c 0
 500 22.404296875 522.404296875 0 550 0 c 2
 750 0 l 2
 777.595703125 0 800 22.404296875 800 50 c 2
 800 650 l 2
 800 677.595703125 777.595703125 700 750 700 c 2
 550 700 l 2
EndSplineSet
EndChar

StartChar: nsfv_b.2
Encoding: 101 -1 113
Width: 1000
HStem: 0 100<9.2299 50 309.23 350> 600 100<9.2299 50 309.23 350>
VStem: 0 200<9.2299 90.7701 609.23 690.77> 300 200<9.2299 90.7701 609.23 690.77>
AnchorPoint: "MarkBaseSet" -50 50 basechar 0
LayerCount: 2
Fore
SplineSet
50 700 m 2
 22.404296875 700 0 677.595703125 0 650 c 0
 0 622.404296875 22.404296875 600 50 600 c 2
 100 600 l 1
 100 100 l 1
 50 100 l 2
 22.404296875 100 0 77.595703125 0 50 c 0
 0 22.404296875 22.404296875 0 50 0 c 2
 150 0 l 2
 177.595703125 0 200 22.404296875 200 50 c 2
 200 650 l 2
 200 677.595703125 177.595703125 700 150 700 c 2
 50 700 l 2
350 700 m 2
 322.404296875 700 300 677.595703125 300 650 c 0
 300 622.404296875 322.404296875 600 350 600 c 2
 400 600 l 1
 400 100 l 1
 350 100 l 2
 322.404296875 100 300 77.595703125 300 50 c 0
 300 22.404296875 322.404296875 0 350 0 c 2
 450 0 l 2
 477.595703125 0 500 22.404296875 500 50 c 2
 500 650 l 2
 500 677.595703125 477.595703125 700 450 700 c 2
 350 700 l 2
EndSplineSet
EndChar

StartChar: nsfv_b.3
Encoding: 102 -1 114
Width: 1000
HStem: 300 100<109.23 150 509.23 550> 700 100<109.23 150 509.23 550>
AnchorPoint: "MarkBaseSet" -50 50 basechar 0
LayerCount: 2
Fore
SplineSet
150 800 m 2
 122.404296875 800 100 777.595703125 100 750 c 0
 100 722.404296875 122.404296875 700 150 700 c 2
 300 700 l 1
 300 400 l 1
 150 400 l 2
 122.404296875 400 100 377.595703125 100 350 c 0
 100 322.404296875 122.404296875 300 150 300 c 2
 350 300 l 2
 377.595703125 300 400 322.404296875 400 350 c 2
 400 750 l 2
 400 777.595703125 377.595703125 800 350 800 c 2
 150 800 l 2
550 800 m 2
 522.404296875 800 500 777.595703125 500 750 c 0
 500 722.404296875 522.404296875 700 550 700 c 2
 700 700 l 1
 700 400 l 1
 550 400 l 2
 522.404296875 400 500 377.595703125 500 350 c 0
 500 322.404296875 522.404296875 300 550 300 c 2
 750 300 l 2
 777.595703125 300 800 322.404296875 800 350 c 2
 800 750 l 2
 800 777.595703125 777.595703125 800 750 800 c 2
 550 800 l 2
EndSplineSet
EndChar

StartChar: nsfv_b.4
Encoding: 103 -1 115
Width: 1000
HStem: 300 100<9.2299 50 309.23 350> 700 100<9.2299 50 309.23 350>
VStem: 0 200<309.23 390.77 709.23 790.77> 300 200<309.23 390.77 709.23 790.77>
AnchorPoint: "MarkBaseSet" -50 50 basechar 0
LayerCount: 2
Fore
SplineSet
50 800 m 2
 22.404296875 800 0 777.595703125 0 750 c 0
 0 722.404296875 22.404296875 700 50 700 c 2
 100 700 l 1
 100 400 l 1
 50 400 l 2
 22.404296875 400 0 377.595703125 0 350 c 0
 0 322.404296875 22.404296875 300 50 300 c 2
 150 300 l 2
 177.595703125 300 200 322.404296875 200 350 c 2
 200 750 l 2
 200 777.595703125 177.595703125 800 150 800 c 2
 50 800 l 2
350 800 m 2
 322.404296875 800 300 777.595703125 300 750 c 0
 300 722.404296875 322.404296875 700 350 700 c 2
 400 700 l 1
 400 400 l 1
 350 400 l 2
 322.404296875 400 300 377.595703125 300 350 c 0
 300 322.404296875 322.404296875 300 350 300 c 2
 450 300 l 2
 477.595703125 300 500 322.404296875 500 350 c 2
 500 750 l 2
 500 777.595703125 477.595703125 800 450 800 c 2
 350 800 l 2
EndSplineSet
EndChar

StartChar: nsfv_b.5
Encoding: 104 -1 116
Width: 1000
HStem: 500 100<109.23 150 509.23 550> 700 100<109.23 150 509.23 550>
AnchorPoint: "MarkBaseSet" -50 50 basechar 0
LayerCount: 2
Fore
SplineSet
150 800 m 2
 122.404296875 800 100 777.595703125 100 750 c 0
 100 722.404296875 122.404296875 700 150 700 c 2
 300 700 l 1
 300 600 l 1
 150 600 l 2
 122.404296875 600 100 577.595703125 100 550 c 0
 100 522.404296875 122.404296875 500 150 500 c 2
 350 500 l 2
 377.595703125 500 400 522.404296875 400 550 c 2
 400 750 l 2
 400 777.595703125 377.595703125 800 350 800 c 2
 150 800 l 2
550 800 m 2
 522.404296875 800 500 777.595703125 500 750 c 0
 500 722.404296875 522.404296875 700 550 700 c 2
 700 700 l 1
 700 600 l 1
 550 600 l 2
 522.404296875 600 500 577.595703125 500 550 c 0
 500 522.404296875 522.404296875 500 550 500 c 2
 750 500 l 2
 777.595703125 500 800 522.404296875 800 550 c 2
 800 750 l 2
 800 777.595703125 777.595703125 800 750 800 c 2
 550 800 l 2
EndSplineSet
EndChar

StartChar: nsfv_b.6
Encoding: 105 -1 117
Width: 1000
HStem: 400 100<109.23 150 509.23 550> 700 100<109.23 150 509.23 550>
AnchorPoint: "MarkBaseSet" -50 50 basechar 0
LayerCount: 2
Fore
SplineSet
150 800 m 2
 122.404296875 800 100 777.595703125 100 750 c 0
 100 722.404296875 122.404296875 700 150 700 c 2
 300 700 l 1
 300 500 l 1
 150 500 l 2
 122.404296875 500 100 477.595703125 100 450 c 0
 100 422.404296875 122.404296875 400 150 400 c 2
 350 400 l 2
 377.595703125 400 400 422.404296875 400 450 c 2
 400 750 l 2
 400 777.595703125 377.595703125 800 350 800 c 2
 150 800 l 2
550 800 m 2
 522.404296875 800 500 777.595703125 500 750 c 0
 500 722.404296875 522.404296875 700 550 700 c 2
 700 700 l 1
 700 500 l 1
 550 500 l 2
 522.404296875 500 500 477.595703125 500 450 c 0
 500 422.404296875 522.404296875 400 550 400 c 2
 750 400 l 2
 777.595703125 400 800 422.404296875 800 450 c 2
 800 750 l 2
 800 777.595703125 777.595703125 800 750 800 c 2
 550 800 l 2
EndSplineSet
EndChar

StartChar: nsfv_b.7
Encoding: 106 -1 118
Width: 0
Flags: W
HStem: -100 100<109.23 150 509.23 550> 100 100<109.23 150 509.23 550>
AnchorPoint: "MarkBaseSet" -50 50 mark 0
LayerCount: 2
Fore
SplineSet
150 200 m 2
 122.404296875 200 100 177.595703125 100 150 c 0
 100 122.404296875 122.404296875 100 150 100 c 2
 300 100 l 1
 300 0 l 1
 150 0 l 2
 122.404296875 0 100 -22.404296875 100 -50 c 0
 100 -77.595703125 122.404296875 -100 150 -100 c 2
 350 -100 l 2
 377.595703125 -100 400 -77.595703125 400 -50 c 2
 400 150 l 2
 400 177.595703125 377.595703125 200 350 200 c 2
 150 200 l 2
550 200 m 2
 522.404296875 200 500 177.595703125 500 150 c 0
 500 122.404296875 522.404296875 100 550 100 c 2
 700 100 l 1
 700 0 l 1
 550 0 l 2
 522.404296875 0 500 -22.404296875 500 -50 c 0
 500 -77.595703125 522.404296875 -100 550 -100 c 2
 750 -100 l 2
 777.595703125 -100 800 -77.595703125 800 -50 c 2
 800 150 l 2
 800 177.595703125 777.595703125 200 750 200 c 2
 550 200 l 2
EndSplineSet
EndChar

StartChar: nsfv_b.8
Encoding: 107 -1 119
Width: 0
Flags: W
HStem: -100 100<109.23 150 509.23 550> 200 100<109.23 150 509.23 550>
AnchorPoint: "MarkBaseSet" -50 50 mark 0
LayerCount: 2
Fore
SplineSet
150 300 m 2
 122.404296875 300 100 277.595703125 100 250 c 0
 100 222.404296875 122.404296875 200 150 200 c 2
 300 200 l 1
 300 0 l 1
 150 0 l 2
 122.404296875 0 100 -22.404296875 100 -50 c 0
 100 -77.595703125 122.404296875 -100 150 -100 c 2
 350 -100 l 2
 377.595703125 -100 400 -77.595703125 400 -50 c 2
 400 250 l 2
 400 277.595703125 377.595703125 300 350 300 c 2
 150 300 l 2
550 300 m 2
 522.404296875 300 500 277.595703125 500 250 c 0
 500 222.404296875 522.404296875 200 550 200 c 2
 700 200 l 1
 700 0 l 1
 550 0 l 2
 522.404296875 0 500 -22.404296875 500 -50 c 0
 500 -77.595703125 522.404296875 -100 550 -100 c 2
 750 -100 l 2
 777.595703125 -100 800 -77.595703125 800 -50 c 2
 800 250 l 2
 800 277.595703125 777.595703125 300 750 300 c 2
 550 300 l 2
EndSplineSet
EndChar

StartChar: nsfu_a
Encoding: 108 -1 120
Width: 1000
HStem: -100 700<109.23 700> -100 100<709.23 790.77> 700 100<109.23 790.77>
VStem: 0 700<9.2299 600> 0 100<609.23 690.77> 800 100<9.2299 690.77>
LayerCount: 2
Fore
SplineSet
750 700 m 2x74
 150 700 l 2
 122.404296875 700 100 677.595703125 100 650 c 0x6c
 100 622.404296875 122.404296875 600 150 600 c 2
 700 600 l 1xb4
 700 50 l 2
 700 22.404296875 722.404296875 0 750 0 c 0
 777.595703125 0 800 22.404296875 800 50 c 2
 800 650 l 2
 800 677.595703125 777.595703125 700 750 700 c 2x74
50 800 m 2
 850 800 l 2
 877.594726562 799.997070312 899.997070312 777.594726562 900 750 c 2
 900 -50 l 2
 899.997070312 -77.5947265625 877.594726562 -99.9970703125 850 -100 c 2
 50 -100 l 2
 22.4052734375 -99.9970703125 0.0029296875 -77.5947265625 0 -50 c 2
 0 750 l 2
 0.0029296875 777.594726562 22.4052734375 800 50 800 c 2
EndSplineSet
Substitution2: "Single Substitution lookup 38 subtable" nsfu_a.3
Substitution2: "Single Substitution lookup 34 subtable" nsfu_a.1
Substitution2: "Single Substitution lookup 30 subtable" nsfu_a.3
Substitution2: "Single Substitution lookup 26 subtable" nsfu_a.2
Substitution2: "Single Substitution lookup 24 subtable" nsfu_a.7
Substitution2: "Single Substitution lookup 20 subtable" nsfu_a.5
Substitution2: "Single Substitution lookup 18 subtable" nsfu_a.8
Substitution2: "Single Substitution lookup 14 subtable" nsfu_a.6
Substitution2: "Single Substitution lookup 12 subtable" nsfu_a.7
Substitution2: "Single Substitution lookup 8 subtable" nsfu_a.4
Substitution2: "Single Substitution lookup 6 subtable" nsfu_a.7
Substitution2: "Single Substitution lookup 2 subtable" nsfu_a.5
EndChar

StartChar: nsfu_a.1
Encoding: 109 -1 121
Width: 1000
HStem: 600 100<109.23 150>
VStem: 700 100<9.2299 50>
LayerCount: 2
Fore
SplineSet
150 700 m 2
 122.404296875 700 100 677.595703125 100 650 c 0
 100 622.404296875 122.404296875 600 150 600 c 2
 700 600 l 1
 700 50 l 2
 700 22.404296875 722.404296875 0 750 0 c 0
 777.595703125 0 800 22.404296875 800 50 c 2
 800 650 l 2
 800 677.595703125 777.595703125 700 750 700 c 2
 150 700 l 2
EndSplineSet
EndChar

StartChar: nsfu_a.2
Encoding: 110 -1 122
Width: 1000
HStem: 600 100<9.2299 50>
VStem: 400 100<9.2299 50>
AnchorPoint: "MarkBaseSet" -50 50 basechar 0
LayerCount: 2
Fore
SplineSet
50 700 m 2
 22.404296875 700 0 677.595703125 0 650 c 0
 0 622.404296875 22.404296875 600 50 600 c 2
 400 600 l 1
 400 50 l 2
 400 22.404296875 422.404296875 0 450 0 c 0
 477.595703125 0 500 22.404296875 500 50 c 2
 500 650 l 2
 500 677.595703125 477.595703125 700 450 700 c 2
 50 700 l 2
EndSplineSet
EndChar

StartChar: nsfu_a.3
Encoding: 111 -1 123
Width: 1000
HStem: 700 100<109.23 150>
VStem: 700 100<309.23 350>
AnchorPoint: "MarkBaseSet" -50 50 basechar 0
LayerCount: 2
Fore
SplineSet
150 800 m 2
 122.404296875 800 100 777.595703125 100 750 c 0
 100 722.404296875 122.404296875 700 150 700 c 2
 700 700 l 1
 700 350 l 2
 700 322.404296875 722.404296875 300 750 300 c 0
 777.595703125 300 800 322.404296875 800 350 c 2
 800 750 l 2
 800 777.595703125 777.595703125 800 750 800 c 2
 150 800 l 2
EndSplineSet
EndChar

StartChar: nsfu_a.4
Encoding: 112 -1 124
Width: 1000
HStem: 700 100<9.2299 50>
VStem: 400 100<309.23 350>
AnchorPoint: "MarkBaseSet" -50 50 basechar 0
LayerCount: 2
Fore
SplineSet
50 800 m 2
 22.404296875 800 0 777.595703125 0 750 c 0
 0 722.404296875 22.404296875 700 50 700 c 2
 400 700 l 1
 400 350 l 2
 400 322.404296875 422.404296875 300 450 300 c 0
 477.595703125 300 500 322.404296875 500 350 c 2
 500 750 l 2
 500 777.595703125 477.595703125 800 450 800 c 2
 50 800 l 2
EndSplineSet
EndChar

StartChar: nsfu_a.5
Encoding: 113 -1 125
Width: 1000
HStem: 500 300<709.23 790.77> 700 100<109.23 150>
VStem: 700 100<509.23 550>
AnchorPoint: "MarkBaseSet" -50 50 basechar 0
LayerCount: 2
Fore
SplineSet
150 800 m 2x60
 122.404296875 800 100 777.595703125 100 750 c 0
 100 722.404296875 122.404296875 700 150 700 c 2
 700 700 l 1x60
 700 550 l 2
 700 522.404296875 722.404296875 500 750 500 c 0
 777.595703125 500 800 522.404296875 800 550 c 2
 800 750 l 2
 800 777.595703125 777.595703125 800 750 800 c 2xa0
 150 800 l 2x60
EndSplineSet
EndChar

StartChar: nsfu_a.6
Encoding: 114 -1 126
Width: 1000
HStem: 700 100<109.23 150>
VStem: 700 100<409.23 450>
AnchorPoint: "MarkBaseSet" -50 50 basechar 0
LayerCount: 2
Fore
SplineSet
150 800 m 2
 122.404296875 800 100 777.595703125 100 750 c 0
 100 722.404296875 122.404296875 700 150 700 c 2
 700 700 l 1
 700 450 l 2
 700 422.404296875 722.404296875 400 750 400 c 0
 777.595703125 400 800 422.404296875 800 450 c 2
 800 750 l 2
 800 777.595703125 777.595703125 800 750 800 c 2
 150 800 l 2
EndSplineSet
EndChar

StartChar: nsfu_a.7
Encoding: 115 -1 127
Width: 0
Flags: W
HStem: -100 300<709.23 790.77> 100 100<109.23 150>
VStem: 700 100<-90.7701 -50>
AnchorPoint: "MarkBaseSet" -50 50 mark 0
LayerCount: 2
Fore
SplineSet
150 200 m 2x60
 122.404296875 200 100 177.595703125 100 150 c 0
 100 122.404296875 122.404296875 100 150 100 c 2
 700 100 l 1x60
 700 -50 l 2
 700 -77.595703125 722.404296875 -100 750 -100 c 0
 777.595703125 -100 800 -77.595703125 800 -50 c 2
 800 150 l 2
 800 177.595703125 777.595703125 200 750 200 c 2xa0
 150 200 l 2x60
EndSplineSet
EndChar

StartChar: nsfu_a.8
Encoding: 116 -1 128
Width: 0
Flags: W
HStem: 200 100<109.23 150>
VStem: 700 100<-90.7701 -50>
AnchorPoint: "MarkBaseSet" -50 50 mark 0
LayerCount: 2
Fore
SplineSet
150 300 m 2
 122.404296875 300 100 277.595703125 100 250 c 0
 100 222.404296875 122.404296875 200 150 200 c 2
 700 200 l 1
 700 -50 l 2
 700 -77.595703125 722.404296875 -100 750 -100 c 0
 777.595703125 -100 800 -77.595703125 800 -50 c 2
 800 250 l 2
 800 277.595703125 777.595703125 300 750 300 c 2
 150 300 l 2
EndSplineSet
EndChar

StartChar: av_a
Encoding: 117 -1 129
Width: 1000
HStem: -100 100<309.23 390.77 709.23 790.77> 700 100<109.23 390.77 509.23 790.77>
VStem: 0 300<9.2299 600> 0 100<609.23 690.77> 400 300<9.2299 600> 400 100<609.23 690.77> 800 100<9.2299 690.77>
LayerCount: 2
Fore
SplineSet
750 700 m 2xca
 550 700 l 2
 522.404296875 700 500 677.595703125 500 650 c 0xc6
 500 622.404296875 522.404296875 600 550 600 c 2
 700 600 l 1
 700 50 l 2
 700 22.404296875 722.404296875 0 750 0 c 0
 777.595703125 0 800 22.404296875 800 50 c 2
 800 650 l 2
 800 677.595703125 777.595703125 700 750 700 c 2xca
350 700 m 2
 150 700 l 2
 122.404296875 700 100 677.595703125 100 650 c 0xd6
 100 622.404296875 122.404296875 600 150 600 c 2
 300 600 l 1
 300 50 l 2
 300 22.404296875 322.404296875 0 350 0 c 0
 377.595703125 0 400 22.404296875 400 50 c 2xea
 400 650 l 2
 400 677.595703125 377.595703125 700 350 700 c 2
50 800 m 2
 850 800 l 2
 877.594726562 799.997070312 899.997070312 777.594726562 900 750 c 2
 900 -50 l 2
 899.997070312 -77.59375 877.594726562 -99.9970703125 850 -100 c 2
 50 -100 l 2
 22.4052734375 -99.9970703125 0.0029296875 -77.59375 0 -50 c 2
 0 750 l 2
 0.0029296875 777.594726562 22.4052734375 800 50 800 c 2
EndSplineSet
Substitution2: "Single Substitution lookup 38 subtable" av_a.3
Substitution2: "Single Substitution lookup 34 subtable" av_a.1
Substitution2: "Single Substitution lookup 30 subtable" av_a.3
Substitution2: "Single Substitution lookup 26 subtable" av_a.2
Substitution2: "Single Substitution lookup 24 subtable" av_a.7
Substitution2: "Single Substitution lookup 20 subtable" av_a.5
Substitution2: "Single Substitution lookup 18 subtable" av_a.8
Substitution2: "Single Substitution lookup 14 subtable" av_a.6
Substitution2: "Single Substitution lookup 12 subtable" av_a.7
Substitution2: "Single Substitution lookup 8 subtable" av_a.4
Substitution2: "Single Substitution lookup 6 subtable" av_a.7
Substitution2: "Single Substitution lookup 2 subtable" av_a.5
EndChar

StartChar: av_a.1
Encoding: 118 -1 130
Width: 1000
HStem: 600 100<109.23 150 509.23 550>
VStem: 300 100<9.2299 50> 700 100<9.2299 50>
LayerCount: 2
Fore
SplineSet
150 700 m 2
 122.404296875 700 100 677.595703125 100 650 c 0
 100 622.404296875 122.404296875 600 150 600 c 2
 300 600 l 1
 300 50 l 2
 300 22.404296875 322.404296875 0 350 0 c 0
 377.595703125 0 400 22.404296875 400 50 c 2
 400 650 l 2
 400 677.595703125 377.595703125 700 350 700 c 2
 150 700 l 2
550 700 m 2
 522.404296875 700 500 677.595703125 500 650 c 0
 500 622.404296875 522.404296875 600 550 600 c 2
 700 600 l 1
 700 50 l 2
 700 22.404296875 722.404296875 0 750 0 c 0
 777.595703125 0 800 22.404296875 800 50 c 2
 800 650 l 2
 800 677.595703125 777.595703125 700 750 700 c 2
 550 700 l 2
EndSplineSet
EndChar

StartChar: av_a.2
Encoding: 119 -1 131
Width: 1000
HStem: 600 100<9.2299 50 309.23 350>
VStem: 100 100<9.2299 50> 400 100<9.2299 50>
AnchorPoint: "MarkBaseSet" -50 50 basechar 0
LayerCount: 2
Fore
SplineSet
50 700 m 2
 22.404296875 700 0 677.595703125 0 650 c 0
 0 622.404296875 22.404296875 600 50 600 c 2
 100 600 l 1
 100 50 l 2
 100 22.404296875 122.404296875 0 150 0 c 0
 177.595703125 0 200 22.404296875 200 50 c 2
 200 650 l 2
 200 677.595703125 177.595703125 700 150 700 c 2
 50 700 l 2
350 700 m 2
 322.404296875 700 300 677.595703125 300 650 c 0
 300 622.404296875 322.404296875 600 350 600 c 2
 400 600 l 1
 400 50 l 2
 400 22.404296875 422.404296875 0 450 0 c 0
 477.595703125 0 500 22.404296875 500 50 c 2
 500 650 l 2
 500 677.595703125 477.595703125 700 450 700 c 2
 350 700 l 2
EndSplineSet
EndChar

StartChar: av_a.3
Encoding: 120 -1 132
Width: 1000
HStem: 700 100<109.23 150 509.23 550>
VStem: 300 100<309.23 350> 700 100<309.23 350>
AnchorPoint: "MarkBaseSet" -50 50 basechar 0
LayerCount: 2
Fore
SplineSet
150 800 m 2
 122.404296875 800 100 777.595703125 100 750 c 0
 100 722.404296875 122.404296875 700 150 700 c 2
 300 700 l 1
 300 350 l 2
 300 322.404296875 322.404296875 300 350 300 c 0
 377.595703125 300 400 322.404296875 400 350 c 2
 400 750 l 2
 400 777.595703125 377.595703125 800 350 800 c 2
 150 800 l 2
550 800 m 2
 522.404296875 800 500 777.595703125 500 750 c 0
 500 722.404296875 522.404296875 700 550 700 c 2
 700 700 l 1
 700 350 l 2
 700 322.404296875 722.404296875 300 750 300 c 0
 777.595703125 300 800 322.404296875 800 350 c 2
 800 750 l 2
 800 777.595703125 777.595703125 800 750 800 c 2
 550 800 l 2
EndSplineSet
EndChar

StartChar: av_a.4
Encoding: 121 -1 133
Width: 1000
HStem: 700 100<9.2299 50 309.23 350>
VStem: 100 100<309.23 350> 400 100<309.23 350>
AnchorPoint: "MarkBaseSet" -50 50 basechar 0
LayerCount: 2
Fore
SplineSet
50 800 m 2
 22.404296875 800 0 777.595703125 0 750 c 0
 0 722.404296875 22.404296875 700 50 700 c 2
 100 700 l 1
 100 350 l 2
 100 322.404296875 122.404296875 300 150 300 c 0
 177.595703125 300 200 322.404296875 200 350 c 2
 200 750 l 2
 200 777.595703125 177.595703125 800 150 800 c 2
 50 800 l 2
350 800 m 2
 322.404296875 800 300 777.595703125 300 750 c 0
 300 722.404296875 322.404296875 700 350 700 c 2
 400 700 l 1
 400 350 l 2
 400 322.404296875 422.404296875 300 450 300 c 0
 477.595703125 300 500 322.404296875 500 350 c 2
 500 750 l 2
 500 777.595703125 477.595703125 800 450 800 c 2
 350 800 l 2
EndSplineSet
EndChar

StartChar: av_a.5
Encoding: 122 -1 134
Width: 1000
HStem: 700 100<109.23 150 509.23 550>
VStem: 300 100<509.23 550> 700 100<509.23 550>
AnchorPoint: "MarkBaseSet" -50 50 basechar 0
LayerCount: 2
Fore
SplineSet
150 800 m 2
 122.404296875 800 100 777.595703125 100 750 c 0
 100 722.404296875 122.404296875 700 150 700 c 2
 300 700 l 1
 300 550 l 2
 300 522.404296875 322.404296875 500 350 500 c 0
 377.595703125 500 400 522.404296875 400 550 c 2
 400 750 l 2
 400 777.595703125 377.595703125 800 350 800 c 2
 150 800 l 2
550 800 m 2
 522.404296875 800 500 777.595703125 500 750 c 0
 500 722.404296875 522.404296875 700 550 700 c 2
 700 700 l 1
 700 550 l 2
 700 522.404296875 722.404296875 500 750 500 c 0
 777.595703125 500 800 522.404296875 800 550 c 2
 800 750 l 2
 800 777.595703125 777.595703125 800 750 800 c 2
 550 800 l 2
EndSplineSet
EndChar

StartChar: av_a.6
Encoding: 123 -1 135
Width: 1000
HStem: 700 100<109.23 150 509.23 550>
VStem: 300 100<409.23 450> 700 100<409.23 450>
AnchorPoint: "MarkBaseSet" -50 50 basechar 0
LayerCount: 2
Fore
SplineSet
150 800 m 2
 122.404296875 800 100 777.595703125 100 750 c 0
 100 722.404296875 122.404296875 700 150 700 c 2
 300 700 l 1
 300 450 l 2
 300 422.404296875 322.404296875 400 350 400 c 0
 377.595703125 400 400 422.404296875 400 450 c 2
 400 750 l 2
 400 777.595703125 377.595703125 800 350 800 c 2
 150 800 l 2
550 800 m 2
 522.404296875 800 500 777.595703125 500 750 c 0
 500 722.404296875 522.404296875 700 550 700 c 2
 700 700 l 1
 700 450 l 2
 700 422.404296875 722.404296875 400 750 400 c 0
 777.595703125 400 800 422.404296875 800 450 c 2
 800 750 l 2
 800 777.595703125 777.595703125 800 750 800 c 2
 550 800 l 2
EndSplineSet
EndChar

StartChar: av_a.7
Encoding: 124 -1 136
Width: 0
Flags: W
HStem: 100 100<109.23 150 509.23 550>
VStem: 300 100<-90.7701 -50> 700 100<-90.7701 -50>
AnchorPoint: "MarkBaseSet" -50 50 mark 0
LayerCount: 2
Fore
SplineSet
150 200 m 2
 122.404296875 200 100 177.595703125 100 150 c 0
 100 122.404296875 122.404296875 100 150 100 c 2
 300 100 l 1
 300 -50 l 2
 300 -77.595703125 322.404296875 -100 350 -100 c 0
 377.595703125 -100 400 -77.595703125 400 -50 c 2
 400 150 l 2
 400 177.595703125 377.595703125 200 350 200 c 2
 150 200 l 2
550 200 m 2
 522.404296875 200 500 177.595703125 500 150 c 0
 500 122.404296875 522.404296875 100 550 100 c 2
 700 100 l 1
 700 -50 l 2
 700 -77.595703125 722.404296875 -100 750 -100 c 0
 777.595703125 -100 800 -77.595703125 800 -50 c 2
 800 150 l 2
 800 177.595703125 777.595703125 200 750 200 c 2
 550 200 l 2
EndSplineSet
EndChar

StartChar: av_a.8
Encoding: 125 -1 137
Width: 0
Flags: W
HStem: 200 100<109.23 150 509.23 550>
VStem: 300 100<-90.7701 -50> 700 100<-90.7701 -50>
AnchorPoint: "MarkBaseSet" -50 50 mark 0
LayerCount: 2
Fore
SplineSet
150 300 m 2
 122.404296875 300 100 277.595703125 100 250 c 0
 100 222.404296875 122.404296875 200 150 200 c 2
 300 200 l 1
 300 -50 l 2
 300 -77.595703125 322.404296875 -100 350 -100 c 0
 377.595703125 -100 400 -77.595703125 400 -50 c 2
 400 250 l 2
 400 277.595703125 377.595703125 300 350 300 c 2
 150 300 l 2
550 300 m 2
 522.404296875 300 500 277.595703125 500 250 c 0
 500 222.404296875 522.404296875 200 550 200 c 2
 700 200 l 1
 700 -50 l 2
 700 -77.595703125 722.404296875 -100 750 -100 c 0
 777.595703125 -100 800 -77.595703125 800 -50 c 2
 800 250 l 2
 800 277.595703125 777.595703125 300 750 300 c 2
 550 300 l 2
EndSplineSet
EndChar

StartChar: pu_g_m
Encoding: 126 -1 138
Width: 1000
HStem: -100 100<329.671 570.329> 100 500<352.675 547.325> 700 100<329.671 570.329>
VStem: 0 100<229.671 470.329> 200 500<252.675 447.325> 800 100<229.671 470.329>
CounterMasks: 1 fc
LayerCount: 2
Fore
SplineSet
450 700 m 0
 256.731445312 700 100 543.268554688 100 350 c 0
 100 156.731445312 256.731445312 0 450 0 c 0
 643.268554688 0 800 156.731445312 800 350 c 0
 800 543.268554688 643.268554688 700 450 700 c 0
50 800 m 2
 850 800 l 2
 877.594726562 799.997070312 899.997070312 777.594726562 900 750 c 2
 900 -50 l 2
 899.997070312 -77.5947265625 877.594726562 -99.9970703125 850 -100 c 2
 50 -100 l 2
 22.4052734375 -99.9970703125 0.0029296875 -77.5947265625 0 -50 c 2
 0 750 l 2
 0.0029296875 777.594726562 22.4052734375 800 50 800 c 2
200 350 m 0
 200 488.102539062 311.897460938 600 450 600 c 0
 588.102539062 600 700 488.102539062 700 350 c 0
 700 211.897460938 588.102539062 100 450 100 c 0
 311.897460938 100 200 211.897460938 200 350 c 0
EndSplineSet
Substitution2: "Single Substitution lookup 38 subtable" pu_g_m.3
Substitution2: "Single Substitution lookup 34 subtable" pu_g_m.1
Substitution2: "Single Substitution lookup 30 subtable" pu_g_m.3
Substitution2: "Single Substitution lookup 26 subtable" pu_g_m.2
Substitution2: "Single Substitution lookup 24 subtable" pu_g_m.7
Substitution2: "Single Substitution lookup 20 subtable" pu_g_m.5
Substitution2: "Single Substitution lookup 18 subtable" pu_g_m.8
Substitution2: "Single Substitution lookup 14 subtable" pu_g_m.6
Substitution2: "Single Substitution lookup 12 subtable" pu_g_m.7
Substitution2: "Single Substitution lookup 8 subtable" pu_g_m.4
Substitution2: "Single Substitution lookup 6 subtable" pu_g_m.7
Substitution2: "Single Substitution lookup 2 subtable" pu_g_m.5
EndChar

StartChar: pu_g_m.1
Encoding: 127 -1 139
Width: 1000
HStem: 0 100<353.435 546.565> 600 100<353.435 546.565>
VStem: 100 100<253.435 446.565> 700 100<253.435 446.565>
LayerCount: 2
Fore
SplineSet
200 350 m 0
 200 488.102539062 311.897460938 600 450 600 c 0
 588.102539062 600 700 488.102539062 700 350 c 0
 700 211.897460938 588.102539062 100 450 100 c 0
 311.897460938 100 200 211.897460938 200 350 c 0
100 350 m 0
 100 156.731445312 256.731445312 0 450 0 c 0
 643.268554688 0 800 156.731445312 800 350 c 0
 800 543.268554688 643.268554688 700 450 700 c 0
 256.731445312 700 100 543.268554688 100 350 c 0
EndSplineSet
EndChar

StartChar: pu_g_m.2
Encoding: 128 -1 140
Width: 1000
Flags: W
HStem: 0 100<190.542 309.458> 600 100<190.542 309.458>
VStem: 0 100<225.494 474.51> 400 100<225.49 474.506>
AnchorPoint: "MarkBaseSet" -50 50 basechar 0
LayerCount: 2
Fore
SplineSet
100 350 m 0
 100 443.540039062 132.913085938 528.309570312 182.03515625 571.471679688 c 0
 204.31640625 591.049804688 227.229492188 600 250 600 c 0
 272.770507812 600 295.68359375 591.049804688 317.96484375 571.471679688 c 0
 367.044921875 528.345703125 400 443.502929688 400 350 c 0
 400 256.459960938 367.086914062 171.690429688 317.96484375 128.528320312 c 0
 295.68359375 108.950195312 272.770507812 100 250 100 c 0
 227.229492188 100 204.31640625 108.950195312 182.03515625 128.528320312 c 0
 132.955078125 171.654296875 100 256.497070312 100 350 c 0
0 350 m 0
 0 223.35546875 46.1005859375 114.875976562 116.077148438 53.3896484375 c 0
 153.055664062 20.8974609375 199.1328125 0 250 0 c 0
 300.8671875 0 346.944335938 20.8974609375 383.922851562 53.3896484375 c 0
 453.9296875 114.90234375 500 223.326171875 500 350 c 0
 500 476.64453125 453.899414062 585.124023438 383.922851562 646.610351562 c 0
 346.944335938 679.102539062 300.8671875 700 250 700 c 0
 199.1328125 700 153.055664062 679.102539062 116.077148438 646.610351562 c 0
 46.0703125 585.09765625 0 476.673828125 0 350 c 0
EndSplineSet
EndChar

StartChar: pu_g_m.3
Encoding: 129 -1 141
Width: 1000
HStem: 300 100<325.49 574.506> 700 100<325.494 574.51>
VStem: 100 100<490.542 609.458> 700 100<490.542 609.458>
AnchorPoint: "MarkBaseSet" -50 50 basechar 0
LayerCount: 2
Fore
SplineSet
200 550 m 0
 200 572.770507812 208.950195312 595.68359375 228.528320312 617.96484375 c 0
 271.654296875 667.044921875 356.497070312 700 450 700 c 0
 543.540039062 700 628.309570312 667.086914062 671.471679688 617.96484375 c 0
 691.049804688 595.68359375 700 572.770507812 700 550 c 0
 700 527.229492188 691.049804688 504.31640625 671.471679688 482.03515625 c 0
 628.345703125 432.955078125 543.502929688 400 450 400 c 0
 356.459960938 400 271.690429688 432.913085938 228.528320312 482.03515625 c 0
 208.950195312 504.31640625 200 527.229492188 200 550 c 0
100 550 m 0
 100 499.1328125 120.897460938 453.055664062 153.389648438 416.077148438 c 0
 214.90234375 346.0703125 323.326171875 300 450 300 c 0
 576.64453125 300 685.124023438 346.100585938 746.610351562 416.077148438 c 0
 779.102539062 453.055664062 800 499.1328125 800 550 c 0
 800 600.8671875 779.102539062 646.944335938 746.610351562 683.922851562 c 0
 685.09765625 753.9296875 576.673828125 800 450 800 c 0
 323.35546875 800 214.875976562 753.899414062 153.389648438 683.922851562 c 0
 120.897460938 646.944335938 100 600.8671875 100 550 c 0
EndSplineSet
EndChar

StartChar: pu_g_m.4
Encoding: 130 -1 142
Width: 1000
HStem: 300 100<173.937 326.063> 700 100<173.937 326.063>
VStem: 0 100<473.937 626.063> 400 100<473.937 626.063>
AnchorPoint: "MarkBaseSet" -50 50 basechar 0
LayerCount: 2
Fore
SplineSet
100 550 m 0
 100 632.874023438 167.125976562 700 250 700 c 0
 332.874023438 700 400 632.874023438 400 550 c 0
 400 467.125976562 332.874023438 400 250 400 c 0
 167.125976562 400 100 467.125976562 100 550 c 0
0 550 m 0
 0 411.959960938 111.959960938 300 250 300 c 0
 388.040039062 300 500 411.959960938 500 550 c 0
 500 688.040039062 388.040039062 800 250 800 c 0
 111.959960938 800 0 688.040039062 0 550 c 0
EndSplineSet
EndChar

StartChar: pu_g_m.5
Encoding: 131 -1 143
Width: 1000
HStem: 500 100<268.687 630.1> 700 100<269.9 631.313>
AnchorPoint: "MarkBaseSet" -50 50 basechar 0
LayerCount: 2
Fore
SplineSet
450 600 m 0
 358.876021601 600 280.305603808 610.917617877 223.482421875 638.872070312 c 0
 215.353515625 642.872070312 209.104492188 646.841796875 204.958984375 650.014648438 c 1
 216.46875 658.823242188 231.8515625 666.131835938 255.426757812 673.84375 c 0
 302.786132812 689.334960938 372.720703125 700 450 700 c 0
 541.123978399 700 619.694396192 689.082382123 676.517578125 661.127929688 c 0
 684.646484375 657.127929688 690.895507812 653.158203125 695.041015625 649.985351562 c 1
 683.53125 641.176757812 668.1484375 633.868164062 644.573242188 626.15625 c 0
 597.213867188 610.665039062 527.279296875 600 450 600 c 0
100 650 m 0
 100 601.665830159 136.015554653 573.263156577 166.283203125 556.0390625 c 0
 236.044346566 516.344951119 339.201487282 500 450 500 c 0
 560.849124409 500 663.922617406 516.326153609 733.716796875 556.0390625 c 0
 764.016284983 573.281275226 800 601.642051014 800 650 c 0
 800 698.334169841 763.984445347 726.736843423 733.716796875 743.9609375 c 0
 663.955653434 783.655048881 560.798512718 800 450 800 c 0
 339.150875591 800 236.077382594 783.673846391 166.283203125 743.9609375 c 0
 135.983715017 726.718724774 100 698.357948986 100 650 c 0
EndSplineSet
EndChar

StartChar: pu_g_m.6
Encoding: 132 -1 144
Width: 1000
HStem: 400 100<302.537 597.469> 700 100<302.531 597.463>
VStem: 100 100<564.161 635.839> 700 100<564.161 635.839>
AnchorPoint: "MarkBaseSet" -50 50 basechar 0
LayerCount: 2
Fore
SplineSet
200 600 m 0
 200 608.466796875 204.381835938 621.439453125 223.391601562 637.665039062 c 0
 269.891601562 677.35546875 359.235351562 700 450 700 c 0
 540.86791481 700 630.013215193 677.43800279 676.608398438 637.665039062 c 0
 695.618164062 621.439453125 700 608.466796875 700 600 c 0
 700 591.533203125 695.618164062 578.560546875 676.608398438 562.334960938 c 0
 630.108398438 522.64453125 540.764648438 500 450 500 c 0
 359.13208519 500 269.986784807 522.56199721 223.391601562 562.334960938 c 0
 204.381835938 578.560546875 200 591.533203125 200 600 c 0
100 600 m 0
 100 553.23828125 125.465820312 514.467773438 158.525390625 486.25 c 0
 224.000384738 430.362961715 330.712368945 400 450 400 c 0
 569.285944862 400 676.01147351 430.373083478 741.474609375 486.25 c 0
 774.534179688 514.467773438 800 553.23828125 800 600 c 0
 800 646.76171875 774.534179688 685.532226562 741.474609375 713.75 c 0
 675.999615262 769.637038285 569.287631055 800 450 800 c 0
 330.714055138 800 223.98852649 769.626916522 158.525390625 713.75 c 0
 125.465820312 685.532226562 100 646.76171875 100 600 c 0
EndSplineSet
EndChar

StartChar: pu_g_m.7
Encoding: 133 -1 145
Width: 0
Flags: WO
HStem: -100 100<268.687 630.1> 100 100<269.9 631.313>
AnchorPoint: "MarkBaseSet" -50 50 mark 0
LayerCount: 2
Fore
SplineSet
450 0 m 0
 358.876021601 0 280.305603808 10.9176178772 223.482421875 38.8720703125 c 0
 215.353515625 42.8720703125 209.104492188 46.841796875 204.958984375 50.0146484375 c 1
 216.46875 58.8232421875 231.8515625 66.1318359375 255.426757812 73.84375 c 0
 302.786132812 89.3349609375 372.720703125 100 450 100 c 0
 541.123978399 100 619.694396192 89.0823821228 676.517578125 61.1279296875 c 0
 684.646484375 57.1279296875 690.895507812 53.158203125 695.041015625 49.9853515625 c 1
 683.53125 41.1767578125 668.1484375 33.8681640625 644.573242188 26.15625 c 0
 597.213867188 10.6650390625 527.279296875 0 450 0 c 0
100 50 m 0
 100 1.66583015884 136.015554653 -26.7368434227 166.283203125 -43.9609375 c 0
 236.044346566 -83.6550488808 339.201487282 -100 450 -100 c 0
 560.849124409 -100 663.922617406 -83.6738463907 733.716796875 -43.9609375 c 0
 764.016284983 -26.7187247742 800 1.64205101406 800 50 c 0
 800 98.3341698412 763.984445347 126.736843423 733.716796875 143.9609375 c 0
 663.955653434 183.655048881 560.798512718 200 450 200 c 0
 339.150875591 200 236.077382594 183.673846391 166.283203125 143.9609375 c 0
 135.983715017 126.718724774 100 98.3579489859 100 50 c 0
EndSplineSet
EndChar

StartChar: pu_g_m.8
Encoding: 134 -1 146
Width: 0
Flags: W
HStem: -100 100<302.537 597.469> 200 100<302.531 597.463>
VStem: 100 100<64.1614 135.839> 700 100<64.1614 135.839>
AnchorPoint: "MarkBaseSet" -50 50 mark 0
LayerCount: 2
Fore
SplineSet
200 100 m 0
 200 108.466796875 204.381835938 121.439453125 223.391601562 137.665039062 c 0
 269.891601562 177.35546875 359.235351562 200 450 200 c 0
 540.86791481 200 630.013215193 177.43800279 676.608398438 137.665039062 c 0
 695.618164062 121.439453125 700 108.466796875 700 100 c 0
 700 91.533203125 695.618164062 78.560546875 676.608398438 62.3349609375 c 0
 630.108398438 22.64453125 540.764648438 0 450 0 c 0
 359.13208519 0 269.986784807 22.5619972104 223.391601562 62.3349609375 c 0
 204.381835938 78.560546875 200 91.533203125 200 100 c 0
100 100 m 0
 100 53.23828125 125.465820312 14.4677734375 158.525390625 -13.75 c 0
 224.000384738 -69.6370382848 330.712368945 -100 450 -100 c 0
 569.285944862 -100 676.01147351 -69.6269165218 741.474609375 -13.75 c 0
 774.534179688 14.4677734375 800 53.23828125 800 100 c 0
 800 146.76171875 774.534179688 185.532226562 741.474609375 213.75 c 0
 675.999615262 269.637038285 569.287631055 300 450 300 c 0
 330.714055138 300 223.98852649 269.626916522 158.525390625 213.75 c 0
 125.465820312 185.532226562 100 146.76171875 100 100 c 0
EndSplineSet
EndChar

StartChar: nsfu_g
Encoding: 135 -1 147
Width: 1000
HStem: -100 100<229.133 372.181 527.813 670.867> 700 100<229.133 372.187 527.819 670.867>
VStem: 0 100<188.798 511.198> 200 200<202.042 497.958> 500 200<202.042 497.958> 800 100<188.802 511.202>
LayerCount: 2
Fore
SplineSet
600 700 m 0
 527.208984375 700 477.565429688 640.567382812 450 586.109375 c 1
 422.408203125 640.6171875 372.8203125 700 300 700 c 0
 253.229492188 700 214.473632812 674.502929688 186.266601562 641.440429688 c 0
 130.405367525 575.965096023 100 469.245378789 100 350 c 0
 100 230.757204989 130.415696344 124.022797498 186.266601562 58.5595703125 c 0
 214.473632812 25.4970703125 253.229492188 0 300 0 c 0
 372.791015625 0 422.434570312 59.43359375 450 113.890625 c 1
 477.591796875 59.3828125 527.1796875 0 600 0 c 0
 646.770507812 0 685.526367188 25.4970703125 713.733398438 58.5595703125 c 0
 769.594532624 124.03478694 800 230.755350866 800 350 c 0
 800 469.243516832 769.58440161 575.97708769 713.733398438 641.440429688 c 0
 685.526367188 674.502929688 646.770507812 700 600 700 c 0
50 800 m 2
 850 800 l 2
 877.594726562 799.997070312 899.997070312 777.594726562 900 750 c 2
 900 -50 l 2
 899.997070312 -77.59375 877.594726562 -99.9970703125 850 -100 c 2
 50 -100 l 2
 22.4052734375 -99.9970703125 0.0029296875 -77.59375 0 -50 c 2
 0 750 l 2
 0.0029296875 777.594726562 22.4052734375 800 50 800 c 2
700 350 m 0
 700 259.169632917 677.392930383 170.011478897 637.6328125 123.407226562 c 0
 621.395507812 104.375 608.420898438 100 600 100 c 0
 591.579101562 100 578.604492188 104.375 562.3671875 123.407226562 c 0
 522.689453125 169.9140625 500 259.2734375 500 350 c 0
 500 440.829716873 522.606344892 529.99041262 562.3671875 576.592773438 c 0
 578.604492188 595.625 591.579101562 600 600 600 c 0
 608.420898438 600 621.395507812 595.625 637.6328125 576.592773438 c 0
 677.310546875 530.0859375 700 440.7265625 700 350 c 0
400 350 m 0
 400 259.169632917 377.392930383 170.011478897 337.6328125 123.407226562 c 0
 321.395507812 104.375 308.420898438 100 300 100 c 0
 291.579101562 100 278.604492188 104.375 262.3671875 123.407226562 c 0
 222.689453125 169.9140625 200 259.2734375 200 350 c 0
 200 440.829716873 222.606344892 529.99041262 262.3671875 576.592773438 c 0
 278.604492188 595.625 291.579101562 600 300 600 c 0
 308.420898438 600 321.395507812 595.625 337.6328125 576.592773438 c 0
 377.310546875 530.0859375 400 440.7265625 400 350 c 0
EndSplineSet
Substitution2: "Single Substitution lookup 38 subtable" nsfu_g.3
Substitution2: "Single Substitution lookup 34 subtable" nsfu_g.1
Substitution2: "Single Substitution lookup 30 subtable" nsfu_g.3
Substitution2: "Single Substitution lookup 26 subtable" nsfu_g.2
Substitution2: "Single Substitution lookup 24 subtable" nsfu_g.7
Substitution2: "Single Substitution lookup 20 subtable" nsfu_g.5
Substitution2: "Single Substitution lookup 18 subtable" nsfu_g.8
Substitution2: "Single Substitution lookup 14 subtable" nsfu_g.6
Substitution2: "Single Substitution lookup 12 subtable" nsfu_g.7
Substitution2: "Single Substitution lookup 8 subtable" nsfu_g.4
Substitution2: "Single Substitution lookup 6 subtable" nsfu_g.7
Substitution2: "Single Substitution lookup 2 subtable" nsfu_g.5
EndChar

StartChar: nsfu_g.1
Encoding: 136 -1 148
Width: 1000
HStem: 0 100<264.161 335.817 564.179 635.839> 600 100<264.161 335.821 564.183 635.839>
VStem: 100 100<202.531 497.463> 400 100<202.017 497.983> 700 100<202.537 497.469>
CounterMasks: 1 38
LayerCount: 2
Fore
SplineSet
500 350 m 0
 500 440.86791481 522.56199721 530.013215193 562.334960938 576.608398438 c 0
 578.560546875 595.618164062 591.533203125 600 600 600 c 0
 608.466796875 600 621.439453125 595.618164062 637.665039062 576.608398438 c 0
 677.35546875 530.108398438 700 440.764648438 700 350 c 0
 700 259.13208519 677.43800279 169.986784807 637.665039062 123.391601562 c 0
 621.439453125 104.381835938 608.466796875 100 600 100 c 0
 591.533203125 100 578.560546875 104.381835938 562.334960938 123.391601562 c 0
 522.64453125 169.891601562 500 259.235351562 500 350 c 0
200 350 m 0
 200 440.86791481 222.56199721 530.013215193 262.334960938 576.608398438 c 0
 278.560546875 595.618164062 291.533203125 600 300 600 c 0
 308.466796875 600 321.439453125 595.618164062 337.665039062 576.608398438 c 0
 377.35546875 530.108398438 400 440.764648438 400 350 c 0
 400 259.13208519 377.43800279 169.986784807 337.665039062 123.391601562 c 0
 321.439453125 104.381835938 308.466796875 100 300 100 c 0
 291.533203125 100 278.560546875 104.381835938 262.334960938 123.391601562 c 0
 222.64453125 169.891601562 200 259.235351562 200 350 c 0
450 586.19140625 m 1
 422.405627419 640.688406704 372.801606678 700 300 700 c 0
 253.23828125 700 214.467773438 674.534179688 186.25 641.474609375 c 0
 130.362961715 575.999615262 100 469.287631055 100 350 c 0
 100 230.714055138 130.373083478 123.98852649 186.25 58.525390625 c 0
 214.467773438 25.4658203125 253.23828125 0 300 0 c 0
 372.771787342 0 422.43120674 59.3621107087 450 113.80859375 c 1
 477.594372581 59.3115932963 527.198393322 0 600 0 c 0
 646.76171875 0 685.532226562 25.4658203125 713.75 58.525390625 c 0
 769.637038285 124.000384738 800 230.712368945 800 350 c 0
 800 469.285944862 769.626916522 576.01147351 713.75 641.474609375 c 0
 685.532226562 674.534179688 646.76171875 700 600 700 c 0
 527.228212658 700 477.56879326 640.637889291 450 586.19140625 c 1
EndSplineSet
EndChar

StartChar: nsfu_g.2
Encoding: 137 -1 149
Width: 1000
VStem: 0 100<169.9 531.313> 200 100<170.034 529.966> 400 100<168.687 530.1>
CounterMasks: 1 e0
AnchorPoint: "MarkBaseSet" -50 50 basechar 0
LayerCount: 2
Fore
SplineSet
300 350 m 0
 300 441.123978399 310.917617877 519.694396192 338.872070312 576.517578125 c 0
 342.872070312 584.646484375 346.841796875 590.895507812 350.014648438 595.041015625 c 1
 358.823242188 583.53125 366.131835938 568.1484375 373.84375 544.573242188 c 0
 389.334960938 497.213867188 400 427.279296875 400 350 c 0
 400 258.876021601 389.082382123 180.305603808 361.127929688 123.482421875 c 0
 357.127929688 115.353515625 353.158203125 109.104492188 349.985351562 104.958984375 c 1
 341.176757812 116.46875 333.868164062 131.8515625 326.15625 155.426757812 c 0
 310.665039062 202.786132812 300 272.720703125 300 350 c 0
100 350 m 0
 100 441.123978399 110.917617877 519.694396192 138.872070312 576.517578125 c 0
 142.872070312 584.646484375 146.841796875 590.895507812 150.014648438 595.041015625 c 1
 158.823242188 583.53125 166.131835938 568.1484375 173.84375 544.573242188 c 0
 189.334960938 497.213867188 200 427.279296875 200 350 c 0
 200 258.876021601 189.082382123 180.305603808 161.127929688 123.482421875 c 0
 157.127929688 115.353515625 153.158203125 109.104492188 149.985351562 104.958984375 c 1
 141.176757812 116.46875 133.868164062 131.8515625 126.15625 155.426757812 c 0
 110.665039062 202.786132812 100 272.720703125 100 350 c 0
250 622.439453125 m 1
 232.324444959 657.506475934 203.449191775 700 150 700 c 0
 101.665830159 700 73.2631565773 663.984445347 56.0390625 633.716796875 c 0
 16.3449511192 563.955653434 0 460.798512718 0 350 c 0
 0 239.150875591 16.3261536093 136.077382594 56.0390625 66.283203125 c 0
 73.2812752258 35.983715017 101.642051014 0 150 0 c 0
 203.438862538 0 232.333036429 42.5105689214 250 77.560546875 c 1
 267.675555041 42.493524066 296.550808225 0 350 0 c 0
 398.334169841 0 426.736843423 36.0155546529 443.9609375 66.283203125 c 0
 483.655048881 136.044346566 500 239.201487282 500 350 c 0
 500 460.849124409 483.673846391 563.922617406 443.9609375 633.716796875 c 0
 426.718724774 664.016284983 398.357948986 700 350 700 c 0
 296.561137462 700 267.666963571 657.489431079 250 622.439453125 c 1
EndSplineSet
EndChar

StartChar: nsfu_g.3
Encoding: 138 -1 150
Width: 1000
HStem: 300 99.8627<249.631 350.161 549.833 650.369> 700.137 99.8627<249.631 350.167 549.839 650.369>
VStem: 100 100<459.8 640.2> 400 100<458.89 641.11> 700 100<459.8 640.2>
CounterMasks: 1 38
AnchorPoint: "MarkBaseSet" -50 50 basechar 0
LayerCount: 2
Fore
SplineSet
500 550 m 0
 500 610.704101562 525.51171875 660.211914062 555.03125 683.268554688 c 0
 569.430195159 694.514770484 584.715313068 700.137329119 599.999971602 700.137329119 c 0
 615.28562563 700.137329119 630.570820222 694.514038062 644.96875 683.268554688 c 0
 674.48828125 660.211914062 700 610.704101562 700 550 c 0
 700 489.295898438 674.48828125 439.788085938 644.96875 416.731445312 c 0
 630.569804841 405.485229516 615.284686932 399.862670881 600.000028398 399.862670881 c 0
 584.71437437 399.862670881 569.429179778 405.485961938 555.03125 416.731445312 c 0
 525.51171875 439.788085938 500 489.295898438 500 550 c 0
200 550 m 0
 200 610.704101562 225.51171875 660.211914062 255.03125 683.268554688 c 0
 269.430195159 694.514770484 284.715313068 700.137329119 299.999971602 700.137329119 c 0
 315.28562563 700.137329119 330.570820222 694.514038062 344.96875 683.268554688 c 0
 374.48828125 660.211914062 400 610.704101562 400 550 c 0
 400 489.295898438 374.48828125 439.788085938 344.96875 416.731445312 c 0
 330.569804841 405.485229516 315.284686932 399.862670881 300.000028398 399.862670881 c 0
 284.71437437 399.862670881 269.429179778 405.485961938 255.03125 416.731445312 c 0
 225.51171875 439.788085938 200 489.295898438 200 550 c 0
450 716.286132812 m 1
 419.215976501 759.507559459 366.408188832 800 300 800 c 0
 259.993164062 800 223.34765625 785.390625 193.552734375 762.120117188 c 0
 134.18359375 715.75 100 636.571289062 100 550 c 0
 100 463.428710938 134.18359375 384.25 193.552734375 337.879882812 c 0
 223.34765625 314.609375 259.993164062 300 300 300 c 0
 366.373665567 300 419.239136618 340.52495784 450 383.713867188 c 1
 480.784023499 340.492440541 533.591811168 300 600 300 c 0
 640.006835938 300 676.65234375 314.609375 706.447265625 337.879882812 c 0
 765.81640625 384.25 800 463.428710938 800 550 c 0
 800 636.571289062 765.81640625 715.75 706.447265625 762.120117188 c 0
 676.65234375 785.390625 640.006835938 800 600 800 c 0
 533.626334433 800 480.760863382 759.47504216 450 716.286132812 c 1
EndSplineSet
EndChar

StartChar: nsfu_g.4
Encoding: 139 -1 151
Width: 1000
VStem: 0 100<436.139 663.849> 200 100<435.604 664.396> 400 100<436.151 663.861>
CounterMasks: 1 e0
AnchorPoint: "MarkBaseSet" -50 50 basechar 0
LayerCount: 2
Fore
SplineSet
300 550 m 0
 300 605.775390625 313.7109375 662.30859375 337.5703125 690.260742188 c 0
 346.623046875 700.866210938 350 700 350 700 c 1
 350 700 353.376953125 700.866210938 362.4296875 690.260742188 c 0
 386.217773438 662.390625 400 605.685546875 400 550 c 0
 400 494.224609375 386.2890625 437.69140625 362.4296875 409.739257812 c 0
 353.376953125 399.133789062 350 400 350 400 c 1
 350 400 346.623046875 399.133789062 337.5703125 409.739257812 c 0
 313.782226562 437.609375 300 494.314453125 300 550 c 0
100 550 m 0
 100 605.775390625 113.7109375 662.30859375 137.5703125 690.260742188 c 0
 146.623046875 700.866210938 150 700 150 700 c 1
 150 700 153.376953125 700.866210938 162.4296875 690.260742188 c 0
 186.217773438 662.390625 200 605.685546875 200 550 c 0
 200 494.224609375 186.2890625 437.69140625 162.4296875 409.739257812 c 0
 153.376953125 399.133789062 150 400 150 400 c 1
 150 400 146.623046875 399.133789062 137.5703125 409.739257812 c 0
 113.782226562 437.609375 100 494.314453125 100 550 c 0
250 740.1640625 m 1
 228.946093219 770.64645797 195.248305059 800 150 800 c 0
 112.442382812 800 82.296875 779.508789062 61.4853515625 755.126953125 c 0
 21.491917052 708.270542839 0 634.25233873 0 550 c 0
 0 465.764931735 21.5121533007 391.705748321 61.4853515625 344.873046875 c 0
 82.296875 320.491210938 112.442382812 300 150 300 c 0
 195.240313466 300 228.954231574 329.365324953 250 359.8359375 c 1
 271.053906781 329.35354203 304.751694941 300 350 300 c 0
 387.557617188 300 417.703125 320.491210938 438.514648438 344.873046875 c 0
 478.508082948 391.729457161 500 465.74766127 500 550 c 0
 500 634.235068265 478.487846699 708.294251679 438.514648438 755.126953125 c 0
 417.703125 779.508789062 387.557617188 800 350 800 c 0
 304.759686534 800 271.045768426 770.634675047 250 740.1640625 c 1
EndSplineSet
EndChar

StartChar: nsfu_g.5
Encoding: 140 -1 152
Width: 1000
HStem: 500 100<221.418 379.441 520.557 678.584> 700 100<221.416 379.443 520.559 678.582>
VStem: 100 100<620.745 679.247> 400 100<620.779 679.221> 700 100<620.753 679.255>
CounterMasks: 1 38
AnchorPoint: "MarkBaseSet" -50 50 basechar 0
LayerCount: 2
Fore
SplineSet
500 650 m 0
 500 654.361328125 501.48828125 660.026367188 508.048828125 667.4921875 c 0
 525.033203125 686.822265625 561.639648438 700 600 700 c 0
 638.3984375 700 674.932617188 686.861328125 691.951171875 667.4921875 c 0
 698.51171875 660.026367188 700 654.361328125 700 650 c 0
 700 645.638671875 698.51171875 639.973632812 691.951171875 632.5078125 c 0
 674.966796875 613.177734375 638.360351562 600 600 600 c 0
 561.6015625 600 525.067382812 613.138671875 508.048828125 632.5078125 c 0
 501.48828125 639.973632812 500 645.638671875 500 650 c 0
200 650 m 0
 200 654.361328125 201.48828125 660.026367188 208.048828125 667.4921875 c 0
 225.033203125 686.822265625 261.639648438 700 300 700 c 0
 338.3984375 700 374.932617188 686.861328125 391.951171875 667.4921875 c 0
 398.51171875 660.026367188 400 654.361328125 400 650 c 0
 400 645.638671875 398.51171875 639.973632812 391.951171875 632.5078125 c 0
 374.966796875 613.177734375 338.360351562 600 300 600 c 0
 261.6015625 600 225.067382812 613.138671875 208.048828125 632.5078125 c 0
 201.48828125 639.973632812 200 645.638671875 200 650 c 0
100 650 m 0
 100 617.541992188 113.435546875 588.712890625 132.91015625 566.548828125 c 0
 168.282226562 526.29296875 228.419921875 500 300 500 c 0
 361.068359375 500 413.864257812 519.17578125 449.998046875 549.803710938 c 1
 486.137695312 519.157226562 538.900390625 500 600 500 c 0
 671.55078125 500 731.74609375 526.32421875 767.08984375 566.548828125 c 0
 786.564453125 588.712890625 800 617.541992188 800 650 c 0
 800 682.458007812 786.564453125 711.287109375 767.08984375 733.451171875 c 0
 731.717773438 773.70703125 671.580078125 800 600 800 c 0
 538.931640625 800 486.135742188 780.82421875 450.001953125 750.196289062 c 1
 413.862304688 780.842773438 361.099609375 800 300 800 c 0
 228.44921875 800 168.25390625 773.67578125 132.91015625 733.451171875 c 0
 113.435546875 711.287109375 100 682.458007812 100 650 c 0
EndSplineSet
EndChar

StartChar: nsfu_g.6
Encoding: 141 -1 153
Width: 1000
HStem: 400 100<239.393 361.637 538.363 660.607> 700 100<239.393 361.637 538.363 660.607>
VStem: 100 100<539.393 660.607> 400 100<538.248 661.752> 700 100<539.393 660.607>
CounterMasks: 1 38
AnchorPoint: "MarkBaseSet" -50 50 basechar 0
LayerCount: 2
Fore
SplineSet
500 600 m 0
 500 655.259765625 544.740234375 700 600 700 c 0
 655.259765625 700 700 655.259765625 700 600 c 0
 700 544.740234375 655.259765625 500 600 500 c 0
 544.740234375 500 500 544.740234375 500 600 c 0
200 600 m 0
 200 655.259765625 244.740234375 700 300 700 c 0
 355.259765625 700 400 655.259765625 400 600 c 0
 400 544.740234375 355.259765625 500 300 500 c 0
 244.740234375 500 200 544.740234375 200 600 c 0
100 600 m 0
 100 489.57421875 189.57421875 400 300 400 c 0
 359.723632812 400 413.34765625 426.202148438 450 467.733398438 c 1
 486.65234375 426.202148438 540.276367188 400 600 400 c 0
 710.42578125 400 800 489.57421875 800 600 c 0
 800 710.42578125 710.42578125 800 600 800 c 0
 540.276367188 800 486.65234375 773.797851562 450 732.266601562 c 1
 413.34765625 773.797851562 359.723632812 800 300 800 c 0
 189.57421875 800 100 710.42578125 100 600 c 0
EndSplineSet
EndChar

StartChar: nsfu_g.7
Encoding: 142 -1 154
Width: 0
Flags: W
HStem: -100 100<221.418 379.441 520.557 678.584> 100 100<221.416 379.443 520.559 678.582>
VStem: 100 100<20.745 79.2472> 400 100<20.7792 79.2208> 700 100<20.7528 79.255>
CounterMasks: 1 38
AnchorPoint: "MarkBaseSet" -50 50 mark 0
LayerCount: 2
Fore
SplineSet
500 50 m 0
 500 54.361328125 501.48828125 60.0263671875 508.048828125 67.4921875 c 0
 525.033203125 86.822265625 561.639648438 100 600 100 c 0
 638.3984375 100 674.932617188 86.861328125 691.951171875 67.4921875 c 0
 698.51171875 60.0263671875 700 54.361328125 700 50 c 0
 700 45.638671875 698.51171875 39.9736328125 691.951171875 32.5078125 c 0
 674.966796875 13.177734375 638.360351562 0 600 0 c 0
 561.6015625 0 525.067382812 13.138671875 508.048828125 32.5078125 c 0
 501.48828125 39.9736328125 500 45.638671875 500 50 c 0
200 50 m 0
 200 54.361328125 201.48828125 60.0263671875 208.048828125 67.4921875 c 0
 225.033203125 86.822265625 261.639648438 100 300 100 c 0
 338.3984375 100 374.932617188 86.861328125 391.951171875 67.4921875 c 0
 398.51171875 60.0263671875 400 54.361328125 400 50 c 0
 400 45.638671875 398.51171875 39.9736328125 391.951171875 32.5078125 c 0
 374.966796875 13.177734375 338.360351562 0 300 0 c 0
 261.6015625 0 225.067382812 13.138671875 208.048828125 32.5078125 c 0
 201.48828125 39.9736328125 200 45.638671875 200 50 c 0
100 50 m 0
 100 17.5419921875 113.435546875 -11.287109375 132.91015625 -33.451171875 c 0
 168.282226562 -73.70703125 228.419921875 -100 300 -100 c 0
 361.068359375 -100 413.864257812 -80.82421875 449.998046875 -50.1962890625 c 1
 486.137695312 -80.8427734375 538.900390625 -100 600 -100 c 0
 671.55078125 -100 731.74609375 -73.67578125 767.08984375 -33.451171875 c 0
 786.564453125 -11.287109375 800 17.5419921875 800 50 c 0
 800 82.4580078125 786.564453125 111.287109375 767.08984375 133.451171875 c 0
 731.717773438 173.70703125 671.580078125 200 600 200 c 0
 538.931640625 200 486.135742188 180.82421875 450.001953125 150.196289062 c 1
 413.862304688 180.842773438 361.099609375 200 300 200 c 0
 228.44921875 200 168.25390625 173.67578125 132.91015625 133.451171875 c 0
 113.435546875 111.287109375 100 82.4580078125 100 50 c 0
EndSplineSet
EndChar

StartChar: nsfu_g.8
Encoding: 143 -1 155
Width: 0
Flags: W
HStem: -100 100<239.393 361.637 538.363 660.607> 200 100<239.393 361.637 538.363 660.607>
VStem: 100 100<39.3929 160.607> 400 100<38.2481 161.752> 700 100<39.3929 160.607>
CounterMasks: 1 38
AnchorPoint: "MarkBaseSet" -50 50 mark 0
LayerCount: 2
Fore
SplineSet
500 100 m 0
 500 155.259765625 544.740234375 200 600 200 c 0
 655.259765625 200 700 155.259765625 700 100 c 0
 700 44.740234375 655.259765625 0 600 0 c 0
 544.740234375 0 500 44.740234375 500 100 c 0
200 100 m 0
 200 155.259765625 244.740234375 200 300 200 c 0
 355.259765625 200 400 155.259765625 400 100 c 0
 400 44.740234375 355.259765625 0 300 0 c 0
 244.740234375 0 200 44.740234375 200 100 c 0
100 100 m 0
 100 -10.42578125 189.57421875 -100 300 -100 c 0
 359.723632812 -100 413.34765625 -73.7978515625 450 -32.2666015625 c 1
 486.65234375 -73.7978515625 540.276367188 -100 600 -100 c 0
 710.42578125 -100 800 -10.42578125 800 100 c 0
 800 210.42578125 710.42578125 300 600 300 c 0
 540.276367188 300 486.65234375 273.797851562 450 232.266601562 c 1
 413.34765625 273.797851562 359.723632812 300 300 300 c 0
 189.57421875 300 100 210.42578125 100 100 c 0
EndSplineSet
EndChar

StartChar: nv_v
Encoding: 144 -1 156
Width: 1000
HStem: -100 100<409.964 490.036> 700 100<409.964 490.036>
VStem: 0 100<309.964 390.036> 800 100<309.964 390.036>
LayerCount: 2
Fore
SplineSet
450 700 m 0
 436.202148438 700 423.702148438 694.399414062 414.651367188 685.348632812 c 2
 114.651367188 385.348632812 l 2
 105.600585938 376.297851562 100 363.797851562 100 350 c 0
 100 336.202148438 105.600585938 323.702148438 114.651367188 314.651367188 c 2
 414.651367188 14.6513671875 l 2
 423.702148438 5.6005859375 436.202148438 0 450 0 c 0
 463.797851562 0 476.297851562 5.6005859375 485.348632812 14.6513671875 c 2
 785.348632812 314.651367188 l 2
 794.399414062 323.702148438 800 336.202148438 800 350 c 0
 800 363.797851562 794.399414062 376.297851562 785.348632812 385.348632812 c 2
 485.348632812 685.348632812 l 2
 476.297851562 694.399414062 463.797851562 700 450 700 c 0
50 800 m 2
 850 800 l 2
 877.594726562 799.997070312 899.997070312 777.594726562 900 750 c 2
 900 -50 l 2
 899.997070312 -77.5947265625 877.594726562 -99.9970703125 850 -100 c 2
 50 -100 l 2
 22.4052734375 -99.9970703125 0.0029296875 -77.5947265625 0 -50 c 2
 0 750 l 2
 0.0029296875 777.594726562 22.4052734375 800 50 800 c 2
450 120.697265625 m 1
 220.697265625 350 l 1
 450 579.302734375 l 1
 679.302734375 350 l 1
 450 120.697265625 l 1
EndSplineSet
Substitution2: "Single Substitution lookup 38 subtable" nv_v.3
Substitution2: "Single Substitution lookup 34 subtable" nv_v.1
Substitution2: "Single Substitution lookup 30 subtable" nv_v.3
Substitution2: "Single Substitution lookup 26 subtable" nv_v.2
Substitution2: "Single Substitution lookup 24 subtable" nv_v.7
Substitution2: "Single Substitution lookup 20 subtable" nv_v.5
Substitution2: "Single Substitution lookup 18 subtable" nv_v.8
Substitution2: "Single Substitution lookup 14 subtable" nv_v.6
Substitution2: "Single Substitution lookup 12 subtable" nv_v.7
Substitution2: "Single Substitution lookup 8 subtable" nv_v.4
Substitution2: "Single Substitution lookup 6 subtable" nv_v.7
Substitution2: "Single Substitution lookup 2 subtable" nv_v.5
EndChar

StartChar: nv_v.1
Encoding: 145 -1 157
Width: 1000
LayerCount: 2
Fore
SplineSet
450 120.697265625 m 1
 220.697265625 350 l 1
 450 579.302734375 l 1
 679.302734375 350 l 1
 450 120.697265625 l 1
450 0 m 0
 463.797851562 0 476.297851562 5.6005859375 485.348632812 14.6513671875 c 2
 785.348632812 314.651367188 l 2
 794.399414062 323.702148438 800 336.202148438 800 350 c 0
 800 363.797851562 794.399414062 376.297851562 785.348632812 385.348632812 c 2
 485.348632812 685.348632812 l 2
 476.297851562 694.399414062 463.797851562 700 450 700 c 0
 436.202148438 700 423.702148438 694.399414062 414.651367188 685.348632812 c 2
 114.651367188 385.348632812 l 2
 105.600585938 376.297851562 100 363.797851562 100 350 c 0
 100 336.202148438 105.600585938 323.702148438 114.651367188 314.651367188 c 2
 414.651367188 14.6513671875 l 2
 423.702148438 5.6005859375 436.202148438 0 450 0 c 0
EndSplineSet
EndChar

StartChar: nv_v.2
Encoding: 146 -1 158
Width: 1000
AnchorPoint: "MarkBaseSet" -50 50 basechar 0
LayerCount: 2
Fore
SplineSet
250 140.1328125 m 1
 110.088867188 350 l 1
 250 559.8671875 l 1
 389.911132812 350 l 1
 250 140.1328125 l 1
250 0 m 0
 267.360351562 0 282.666992188 8.8671875 291.631835938 22.3154296875 c 2
 491.631835938 322.315429688 l 2
 497.062255837 330.460815386 499.777832048 340.230126381 499.777832048 349.999852719 c 0
 499.777832048 359.768700681 497.062744119 369.537963911 491.631835938 377.684570312 c 2
 291.631835938 677.684570312 l 2
 282.666992188 691.1328125 267.360351562 700 250 700 c 0
 232.639648438 700 217.333007812 691.1328125 208.368164062 677.684570312 c 2
 8.3681640625 377.684570312 l 2
 2.93774416258 369.539184614 0.222167952287 359.769873619 0.222167952287 350.000147281 c 0
 0.222167952287 340.231299319 2.93725588132 330.462036089 8.3681640625 322.315429688 c 2
 208.368164062 22.3154296875 l 2
 217.333007812 8.8671875 232.639648438 0 250 0 c 0
EndSplineSet
EndChar

StartChar: nv_v.3
Encoding: 147 -1 159
Width: 1000
AnchorPoint: "MarkBaseSet" -50 50 basechar 0
LayerCount: 2
Fore
SplineSet
450 410.088867188 m 1
 240.1328125 550 l 1
 450 689.911132812 l 1
 659.8671875 550 l 1
 450 410.088867188 l 1
800 550 m 0
 800 567.360351562 791.1328125 582.666992188 777.684570312 591.631835938 c 2
 477.684570312 791.631835938 l 2
 469.539184614 797.062255837 459.769873619 799.777832048 450.000147281 799.777832048 c 0
 440.231299319 799.777832048 430.462036089 797.062744119 422.315429688 791.631835938 c 2
 122.315429688 591.631835938 l 2
 108.8671875 582.666992188 100 567.360351562 100 550 c 0
 100 532.639648438 108.8671875 517.333007812 122.315429688 508.368164062 c 2
 422.315429688 308.368164062 l 2
 430.460815386 302.937744163 440.230126381 300.222167952 449.999852719 300.222167952 c 0
 459.768700681 300.222167952 469.537963911 302.937255881 477.684570312 308.368164062 c 2
 777.684570312 508.368164062 l 2
 791.1328125 517.333007812 800 532.639648438 800 550 c 0
EndSplineSet
EndChar

StartChar: nv_v.4
Encoding: 148 -1 160
Width: 1000
AnchorPoint: "MarkBaseSet" -50 50 basechar 0
LayerCount: 2
Fore
SplineSet
250 420.697265625 m 1
 120.697265625 550 l 1
 250 679.302734375 l 1
 379.302734375 550 l 1
 250 420.697265625 l 1
250 300 m 0
 263.797851562 300 276.297851562 305.600585938 285.348632812 314.651367188 c 2
 485.348632812 514.651367188 l 2
 494.399414062 523.702148438 500 536.202148438 500 550 c 0
 500 563.797851562 494.399414062 576.297851562 485.348632812 585.348632812 c 2
 285.348632812 785.348632812 l 2
 276.297851562 794.399414062 263.797851562 800 250 800 c 0
 236.202148438 800 223.702148438 794.399414062 214.651367188 785.348632812 c 2
 14.6513671875 585.348632812 l 2
 5.6005859375 576.297851562 0 563.797851562 0 550 c 0
 0 536.202148438 5.6005859375 523.702148438 14.6513671875 514.651367188 c 2
 214.651367188 314.651367188 l 2
 223.702148438 305.600585938 236.202148438 300 250 300 c 0
EndSplineSet
EndChar

StartChar: nv_v.5
Encoding: 149 -1 161
Width: 1000
AnchorPoint: "MarkBaseSet" -50 50 basechar 0
LayerCount: 2
Fore
SplineSet
450 602.71484375 m 1
 308.14453125 650 l 1
 450 697.28515625 l 1
 591.85546875 650 l 1
 450 602.71484375 l 1
434.197265625 502.552734375 m 2
 439.177734375 500.892578125 444.588867188 500.0625 450 500.0625 c 0
 455.411132812 500.0625 460.822265625 500.892578125 465.802734375 502.552734375 c 2
 765.802734375 602.552734375 l 2
 785.6640625 609.172851562 800 627.92578125 800 650 c 0
 800 672.07421875 785.6640625 690.827148438 765.802734375 697.447265625 c 2
 465.802734375 797.447265625 l 2
 460.822265625 799.107421875 455.411132812 799.9375 450 799.9375 c 0
 444.588867188 799.9375 439.177734375 799.107421875 434.197265625 797.447265625 c 2
 134.197265625 697.447265625 l 2
 114.3359375 690.827148438 100 672.07421875 100 650 c 0
 100 627.92578125 114.3359375 609.172851562 134.197265625 602.552734375 c 2
 434.197265625 502.552734375 l 2
EndSplineSet
EndChar

StartChar: nv_v.6
Encoding: 150 -1 162
Width: 1000
AnchorPoint: "MarkBaseSet" -50 50 basechar 0
LayerCount: 2
Fore
SplineSet
450 505.90625 m 1
 261.8125 600 l 1
 450 694.09375 l 1
 638.1875 600 l 1
 450 505.90625 l 1
427.6875 405.25 m 2
 434.502197248 401.842651376 442.251043454 400.138793939 450.000100362 400.138793939 c 0
 457.748602081 400.138793939 465.497314471 401.842407235 472.3125 405.25 c 2
 772.3125 555.25 l 2
 788.721679688 563.454101562 800 580.419921875 800 600 c 0
 800 619.580078125 788.721679688 636.545898438 772.3125 644.75 c 2
 472.3125 794.75 l 2
 465.497802752 798.157348624 457.748956546 799.861206061 449.999899638 799.861206061 c 0
 442.251397919 799.861206061 434.502685529 798.157592765 427.6875 794.75 c 2
 127.6875 644.75 l 2
 111.278320312 636.545898438 100 619.580078125 100 600 c 0
 100 580.419921875 111.278320312 563.454101562 127.6875 555.25 c 2
 427.6875 405.25 l 2
EndSplineSet
EndChar

StartChar: nv_v.7
Encoding: 151 -1 163
Width: 0
Flags: W
AnchorPoint: "MarkBaseSet" -50 50 mark 0
LayerCount: 2
Fore
SplineSet
450 2.71484375 m 1
 308.14453125 50 l 1
 450 97.28515625 l 1
 591.85546875 50 l 1
 450 2.71484375 l 1
434.197265625 -97.447265625 m 2
 439.177734375 -99.107421875 444.588867188 -99.9375 450 -99.9375 c 0
 455.411132812 -99.9375 460.822265625 -99.107421875 465.802734375 -97.447265625 c 2
 765.802734375 2.552734375 l 2
 785.6640625 9.1728515625 800 27.92578125 800 50 c 0
 800 72.07421875 785.6640625 90.8271484375 765.802734375 97.447265625 c 2
 465.802734375 197.447265625 l 2
 460.822265625 199.107421875 455.411132812 199.9375 450 199.9375 c 0
 444.588867188 199.9375 439.177734375 199.107421875 434.197265625 197.447265625 c 2
 134.197265625 97.447265625 l 2
 114.3359375 90.8271484375 100 72.07421875 100 50 c 0
 100 27.92578125 114.3359375 9.1728515625 134.197265625 2.552734375 c 2
 434.197265625 -97.447265625 l 2
EndSplineSet
EndChar

StartChar: nv_v.8
Encoding: 152 -1 164
Width: 0
Flags: W
AnchorPoint: "MarkBaseSet" -50 50 mark 0
LayerCount: 2
Fore
SplineSet
450 5.90625 m 1
 261.8125 100 l 1
 450 194.09375 l 1
 638.1875 100 l 1
 450 5.90625 l 1
427.6875 -94.75 m 2
 434.502197248 -98.1573486241 442.251043454 -99.8612060612 450.000100362 -99.8612060612 c 0
 457.748602081 -99.8612060612 465.497314471 -98.1575927647 472.3125 -94.75 c 2
 772.3125 55.25 l 2
 788.721679688 63.4541015625 800 80.419921875 800 100 c 0
 800 119.580078125 788.721679688 136.545898438 772.3125 144.75 c 2
 472.3125 294.75 l 2
 465.497802752 298.157348624 457.748956546 299.861206061 449.999899638 299.861206061 c 0
 442.251397919 299.861206061 434.502685529 298.157592765 427.6875 294.75 c 2
 127.6875 144.75 l 2
 111.278320312 136.545898438 100 119.580078125 100 100 c 0
 100 80.419921875 111.278320312 63.4541015625 127.6875 55.25 c 2
 427.6875 -94.75 l 2
EndSplineSet
EndChar

StartChar: pa_v
Encoding: 153 -1 165
Width: 1000
HStem: -100 100<258.725 341.275 558.725 641.275> 700 100<258.725 341.275 558.725 641.275>
VStem: 0 100.139<294.875 405.125> 799.861 100.139<294.875 405.125>
LayerCount: 2
Fore
SplineSet
600 700 m 0
 580.419921875 700 563.454101562 688.721679688 555.25 672.3125 c 2
 450 461.8125 l 1
 344.75 672.3125 l 2
 336.545898438 688.721679688 319.580078125 700 300 700 c 0
 280.419921875 700 263.454101562 688.721679688 255.25 672.3125 c 2
 105.25 372.3125 l 2
 101.842651376 365.497802752 100.138793939 357.748956546 100.138793939 349.999899638 c 0
 100.138793939 342.251397919 101.842407235 334.502685529 105.25 327.6875 c 2
 255.25 27.6875 l 2
 263.454101562 11.2783203125 280.419921875 0 300 0 c 0
 319.580078125 0 336.545898438 11.2783203125 344.75 27.6875 c 2
 450 238.1875 l 1
 555.25 27.6875 l 2
 563.454101562 11.2783203125 580.419921875 0 600 0 c 0
 619.580078125 0 636.545898438 11.2783203125 644.75 27.6875 c 2
 794.75 327.6875 l 2
 798.157348624 334.502197248 799.861206061 342.251043454 799.861206061 350.000100362 c 0
 799.861206061 357.748602081 798.157592765 365.497314471 794.75 372.3125 c 2
 644.75 672.3125 l 2
 636.545898438 688.721679688 619.580078125 700 600 700 c 0
50 800 m 2
 850 800 l 2
 877.594726562 799.997070312 899.997070312 777.594726562 900 750 c 2
 900 -50 l 2
 899.997070312 -77.59375 877.594726562 -99.9970703125 850 -100 c 2
 50 -100 l 2
 22.4052734375 -99.9970703125 0.0029296875 -77.59375 0 -50 c 2
 0 750 l 2
 0.0029296875 777.594726562 22.4052734375 800 50 800 c 2
300 161.8125 m 1
 205.90625 350 l 1
 300 538.1875 l 1
 394.09375 350 l 1
 300 161.8125 l 1
600 161.8125 m 1
 505.90625 350 l 1
 600 538.1875 l 1
 694.09375 350 l 1
 600 161.8125 l 1
EndSplineSet
Substitution2: "Single Substitution lookup 38 subtable" pa_v.3
Substitution2: "Single Substitution lookup 34 subtable" pa_v.1
Substitution2: "Single Substitution lookup 30 subtable" pa_v.3
Substitution2: "Single Substitution lookup 26 subtable" pa_v.2
Substitution2: "Single Substitution lookup 24 subtable" pa_v.7
Substitution2: "Single Substitution lookup 20 subtable" pa_v.5
Substitution2: "Single Substitution lookup 18 subtable" pa_v.8
Substitution2: "Single Substitution lookup 14 subtable" pa_v.6
Substitution2: "Single Substitution lookup 12 subtable" pa_v.7
Substitution2: "Single Substitution lookup 8 subtable" pa_v.4
Substitution2: "Single Substitution lookup 6 subtable" pa_v.7
Substitution2: "Single Substitution lookup 2 subtable" pa_v.5
EndChar

StartChar: pa_v.1
Encoding: 154 -1 166
Width: 1000
LayerCount: 2
Fore
SplineSet
300 161.8125 m 1
 205.90625 350 l 1
 300 538.1875 l 1
 394.09375 350 l 1
 300 161.8125 l 1
600 161.8125 m 1
 505.90625 350 l 1
 600 538.1875 l 1
 694.09375 350 l 1
 600 161.8125 l 1
600 0 m 0
 619.580078125 0 636.545898438 11.2783203125 644.75 27.6875 c 2
 794.75 327.6875 l 2
 798.157348624 334.502197248 799.861206061 342.251043454 799.861206061 350.000100362 c 0
 799.861206061 357.748602081 798.157592765 365.497314471 794.75 372.3125 c 2
 644.75 672.3125 l 2
 636.545898438 688.721679688 619.580078125 700 600 700 c 0
 580.419921875 700 563.454101562 688.721679688 555.25 672.3125 c 2
 450 461.8125 l 1
 344.75 672.3125 l 2
 336.545898438 688.721679688 319.580078125 700 300 700 c 0
 280.419921875 700 263.454101562 688.721679688 255.25 672.3125 c 2
 105.25 372.3125 l 2
 101.842651376 365.497802752 100.138793939 357.748956546 100.138793939 349.999899638 c 0
 100.138793939 342.251397919 101.842407235 334.502685529 105.25 327.6875 c 2
 255.25 27.6875 l 2
 263.454101562 11.2783203125 280.419921875 0 300 0 c 0
 319.580078125 0 336.545898438 11.2783203125 344.75 27.6875 c 2
 450 238.1875 l 1
 555.25 27.6875 l 2
 563.454101562 11.2783203125 580.419921875 0 600 0 c 0
EndSplineSet
EndChar

StartChar: pa_v.2
Encoding: 155 -1 167
Width: 1000
AnchorPoint: "MarkBaseSet" -50 50 basechar 0
LayerCount: 2
Fore
SplineSet
150 208.143554688 m 1
 102.71484375 350 l 1
 150 491.856445312 l 1
 197.28515625 350 l 1
 150 208.143554688 l 1
350 208.143554688 m 1
 302.71484375 350 l 1
 350 491.856445312 l 1
 397.28515625 350 l 1
 350 208.143554688 l 1
350 0 m 0
 372.07421875 0 390.826171875 14.3359375 397.447265625 34.197265625 c 2
 497.447265625 334.197265625 l 2
 499.107421875 339.177734375 499.9375 344.588867188 499.9375 350 c 0
 499.9375 355.411132812 499.107421875 360.822265625 497.447265625 365.802734375 c 2
 397.447265625 665.802734375 l 2
 390.826171875 685.6640625 372.07421875 700 350 700 c 0
 327.92578125 700 309.173828125 685.6640625 302.552734375 665.802734375 c 2
 250 508.14453125 l 1
 197.447265625 665.802734375 l 2
 190.826171875 685.6640625 172.07421875 700 150 700 c 0
 127.92578125 700 109.173828125 685.6640625 102.552734375 665.802734375 c 2
 2.552734375 365.802734375 l 2
 0.892578125 360.822265625 0.0625 355.411132812 0.0625 350 c 0
 0.0625 344.588867188 0.892578125 339.177734375 2.552734375 334.197265625 c 2
 102.552734375 34.197265625 l 2
 109.173828125 14.3359375 127.92578125 0 150 0 c 0
 172.07421875 0 190.826171875 14.3359375 197.447265625 34.197265625 c 2
 250 191.85546875 l 1
 302.552734375 34.197265625 l 2
 309.173828125 14.3359375 327.92578125 0 350 0 c 0
EndSplineSet
EndChar

StartChar: pa_v.3
Encoding: 156 -1 168
Width: 1000
AnchorPoint: "MarkBaseSet" -50 50 basechar 0
LayerCount: 2
Fore
SplineSet
300 433.322265625 m 1
 212.4921875 550 l 1
 300 666.677734375 l 1
 387.5078125 550 l 1
 300 433.322265625 l 1
600 433.322265625 m 1
 512.4921875 550 l 1
 600 666.677734375 l 1
 687.5078125 550 l 1
 600 433.322265625 l 1
800 550 m 0
 800 561.233398438 796.287109375 571.606445312 790.0234375 579.958007812 c 2
 640.0234375 779.958007812 l 2
 630.899414062 792.123046875 616.362304688 800 600 800 c 0
 583.637695312 800 569.100585938 792.123046875 559.9765625 779.958007812 c 2
 450 633.322265625 l 1
 340.0234375 779.958007812 l 2
 330.899414062 792.123046875 316.362304688 800 300 800 c 0
 283.637695312 800 269.100585938 792.123046875 259.9765625 779.958007812 c 2
 109.9765625 579.958007812 l 2
 103.712890625 571.606445312 100 561.233398438 100 550 c 0
 100 538.766601562 103.712890625 528.393554688 109.9765625 520.041992188 c 2
 259.9765625 320.041992188 l 2
 269.100585938 307.876953125 283.637695312 300 300 300 c 0
 316.362304688 300 330.899414062 307.876953125 340.0234375 320.041992188 c 2
 450 466.677734375 l 1
 559.9765625 320.041992188 l 2
 569.100585938 307.876953125 583.637695312 300 600 300 c 0
 616.362304688 300 630.899414062 307.876953125 640.0234375 320.041992188 c 2
 790.0234375 520.041992188 l 2
 796.287109375 528.393554688 800 538.766601562 800 550 c 0
EndSplineSet
EndChar

StartChar: pa_v.4
Encoding: 157 -1 169
Width: 1000
AnchorPoint: "MarkBaseSet" -50 50 basechar 0
LayerCount: 2
Fore
SplineSet
150 461.813476562 m 1
 105.90625 550 l 1
 150 638.186523438 l 1
 194.09375 550 l 1
 150 461.813476562 l 1
350 461.813476562 m 1
 305.90625 550 l 1
 350 638.186523438 l 1
 394.09375 550 l 1
 350 461.813476562 l 1
350 300 m 0
 369.580078125 300 386.545898438 311.278320312 394.750976562 327.6875 c 2
 494.750976562 527.6875 l 2
 498.157836905 534.502197283 499.861450202 542.251043534 499.861450202 550.000100482 c 0
 499.861450202 557.74860216 498.158081046 565.497314506 494.750976562 572.3125 c 2
 394.750976562 772.3125 l 2
 386.545898438 788.721679688 369.580078125 800 350 800 c 0
 330.419921875 800 313.454101562 788.721679688 305.249023438 772.3125 c 2
 250 661.814453125 l 1
 194.750976562 772.3125 l 2
 186.545898438 788.721679688 169.580078125 800 150 800 c 0
 130.419921875 800 113.454101562 788.721679688 105.249023438 772.3125 c 2
 5.2490234375 572.3125 l 2
 1.84216309469 565.497802717 0.138549798127 557.748956466 0.138549798127 549.999899518 c 0
 0.138549798127 542.25139784 1.84191895406 534.502685494 5.2490234375 527.6875 c 2
 105.249023438 327.6875 l 2
 113.454101562 311.278320312 130.419921875 300 150 300 c 0
 169.580078125 300 186.545898438 311.278320312 194.750976562 327.6875 c 2
 250 438.185546875 l 1
 305.249023438 327.6875 l 2
 313.454101562 311.278320312 330.419921875 300 350 300 c 0
EndSplineSet
EndChar

StartChar: pa_v.5
Encoding: 158 -1 170
Width: 1000
AnchorPoint: "MarkBaseSet" -50 50 basechar 0
LayerCount: 2
Fore
SplineSet
300 610.088867188 m 1
 240.1328125 650 l 1
 300 689.911132812 l 1
 359.8671875 650 l 1
 300 610.088867188 l 1
600 610.088867188 m 1
 540.1328125 650 l 1
 600 689.911132812 l 1
 659.8671875 650 l 1
 600 610.088867188 l 1
572.315429688 508.3671875 m 2
 580.460998494 502.937133838 590.23056561 500.22155758 600.000511589 500.22155758 c 0
 609.769139946 500.22155758 619.538147063 502.936401417 627.684570312 508.3671875 c 2
 777.684570312 608.3671875 l 2
 791.1328125 617.333007812 800 632.639648438 800 650 c 0
 800 667.360351562 791.1328125 682.666992188 777.684570312 691.6328125 c 2
 627.684570312 791.6328125 l 2
 619.539001506 797.062866162 609.76943439 799.77844242 599.999488411 799.77844242 c 0
 590.230860054 799.77844242 580.461852937 797.063598583 572.315429688 791.6328125 c 2
 450 710.088867188 l 1
 327.684570312 791.6328125 l 2
 319.539001506 797.062866162 309.76943439 799.77844242 299.999488411 799.77844242 c 0
 290.230860054 799.77844242 280.461852937 797.063598583 272.315429688 791.6328125 c 2
 122.315429688 691.6328125 l 2
 108.8671875 682.666992188 100 667.360351562 100 650 c 0
 100 632.639648438 108.8671875 617.333007812 122.315429688 608.3671875 c 2
 272.315429688 508.3671875 l 2
 280.460998494 502.937133838 290.23056561 500.22155758 300.000511589 500.22155758 c 0
 309.769139946 500.22155758 319.538147063 502.936401417 327.684570312 508.3671875 c 2
 450 589.911132812 l 1
 572.315429688 508.3671875 l 2
EndSplineSet
EndChar

StartChar: pa_v.6
Encoding: 159 -1 171
Width: 1000
AnchorPoint: "MarkBaseSet" -50 50 basechar 0
LayerCount: 2
Fore
SplineSet
300 520.696289062 m 1
 220.696289062 600 l 1
 300 679.303710938 l 1
 379.303710938 600 l 1
 300 520.696289062 l 1
600 520.696289062 m 1
 520.696289062 600 l 1
 600 679.303710938 l 1
 679.303710938 600 l 1
 600 520.696289062 l 1
600 400 m 0
 613.797851562 400 626.297851562 405.6015625 635.348632812 414.651367188 c 2
 785.348632812 564.651367188 l 2
 794.3984375 573.702148438 800 586.202148438 800 600 c 0
 800 613.797851562 794.3984375 626.297851562 785.348632812 635.348632812 c 2
 635.348632812 785.348632812 l 2
 626.297851562 794.3984375 613.797851562 800 600 800 c 0
 586.202148438 800 573.702148438 794.3984375 564.651367188 785.348632812 c 2
 450 670.697265625 l 1
 335.348632812 785.348632812 l 2
 326.297851562 794.3984375 313.797851562 800 300 800 c 0
 286.202148438 800 273.702148438 794.3984375 264.651367188 785.348632812 c 2
 114.651367188 635.348632812 l 2
 105.6015625 626.297851562 100 613.797851562 100 600 c 0
 100 586.202148438 105.6015625 573.702148438 114.651367188 564.651367188 c 2
 264.651367188 414.651367188 l 2
 273.702148438 405.6015625 286.202148438 400 300 400 c 0
 313.797851562 400 326.297851562 405.6015625 335.348632812 414.651367188 c 2
 450 529.302734375 l 1
 564.651367188 414.651367188 l 2
 573.702148438 405.6015625 586.202148438 400 600 400 c 0
EndSplineSet
EndChar

StartChar: pa_v.7
Encoding: 160 -1 172
Width: 0
Flags: W
AnchorPoint: "MarkBaseSet" -50 50 mark 0
LayerCount: 2
Fore
SplineSet
300 10.0888671875 m 1
 240.1328125 50 l 1
 300 89.9111328125 l 1
 359.8671875 50 l 1
 300 10.0888671875 l 1
600 10.0888671875 m 1
 540.1328125 50 l 1
 600 89.9111328125 l 1
 659.8671875 50 l 1
 600 10.0888671875 l 1
572.315429688 -91.6328125 m 2
 580.460998494 -97.0628661615 590.23056561 -99.7784424199 600.000511589 -99.7784424199 c 0
 609.769139946 -99.7784424199 619.538147063 -97.0635985834 627.684570312 -91.6328125 c 2
 777.684570312 8.3671875 l 2
 791.1328125 17.3330078125 800 32.6396484375 800 50 c 0
 800 67.3603515625 791.1328125 82.6669921875 777.684570312 91.6328125 c 2
 627.684570312 191.6328125 l 2
 619.539001506 197.062866162 609.76943439 199.77844242 599.999488411 199.77844242 c 0
 590.230860054 199.77844242 580.461852937 197.063598583 572.315429688 191.6328125 c 2
 450 110.088867188 l 1
 327.684570312 191.6328125 l 2
 319.539001506 197.062866162 309.76943439 199.77844242 299.999488411 199.77844242 c 0
 290.230860054 199.77844242 280.461852937 197.063598583 272.315429688 191.6328125 c 2
 122.315429688 91.6328125 l 2
 108.8671875 82.6669921875 100 67.3603515625 100 50 c 0
 100 32.6396484375 108.8671875 17.3330078125 122.315429688 8.3671875 c 2
 272.315429688 -91.6328125 l 2
 280.460998494 -97.0628661615 290.23056561 -99.7784424199 300.000511589 -99.7784424199 c 0
 309.769139946 -99.7784424199 319.538147063 -97.0635985834 327.684570312 -91.6328125 c 2
 450 -10.0888671875 l 1
 572.315429688 -91.6328125 l 2
EndSplineSet
EndChar

StartChar: pa_v.8
Encoding: 161 -1 173
Width: 0
Flags: W
AnchorPoint: "MarkBaseSet" -50 50 mark 0
LayerCount: 2
Fore
SplineSet
300 20.6962890625 m 1
 220.696289062 100 l 1
 300 179.303710938 l 1
 379.303710938 100 l 1
 300 20.6962890625 l 1
600 20.6962890625 m 1
 520.696289062 100 l 1
 600 179.303710938 l 1
 679.303710938 100 l 1
 600 20.6962890625 l 1
600 -100 m 0
 613.797851562 -100 626.297851562 -94.3984375 635.348632812 -85.3486328125 c 2
 785.348632812 64.6513671875 l 2
 794.3984375 73.7021484375 800 86.2021484375 800 100 c 0
 800 113.797851562 794.3984375 126.297851562 785.348632812 135.348632812 c 2
 635.348632812 285.348632812 l 2
 626.297851562 294.3984375 613.797851562 300 600 300 c 0
 586.202148438 300 573.702148438 294.3984375 564.651367188 285.348632812 c 2
 450 170.697265625 l 1
 335.348632812 285.348632812 l 2
 326.297851562 294.3984375 313.797851562 300 300 300 c 0
 286.202148438 300 273.702148438 294.3984375 264.651367188 285.348632812 c 2
 114.651367188 135.348632812 l 2
 105.6015625 126.297851562 100 113.797851562 100 100 c 0
 100 86.2021484375 105.6015625 73.7021484375 114.651367188 64.6513671875 c 2
 264.651367188 -85.3486328125 l 2
 273.702148438 -94.3984375 286.202148438 -100 300 -100 c 0
 313.797851562 -100 326.297851562 -94.3984375 335.348632812 -85.3486328125 c 2
 450 29.302734375 l 1
 564.651367188 -85.3486328125 l 2
 573.702148438 -94.3984375 586.202148438 -100 600 -100 c 0
EndSplineSet
EndChar

StartChar: nv_p
Encoding: 162 -1 174
Width: 1000
HStem: -100 100<109.23 790.77> 700 100<109.23 190.77 709.23 790.77>
VStem: 0 100<9.2299 690.77> 200 500<100 690.77> 800 100<9.2299 690.77>
CounterMasks: 1 38
LayerCount: 2
Fore
SplineSet
50 800 m 2
 850 800 l 2
 877.594726562 799.997070312 899.997070312 777.594726562 900 750 c 2
 900 -50 l 2
 899.997070312 -77.5947265625 877.594726562 -99.9970703125 850 -100 c 2
 50 -100 l 2
 22.4052734375 -99.9970703125 0.0029296875 -77.5947265625 0 -50 c 2
 0 750 l 2
 0.0029296875 777.594726562 22.4052734375 800 50 800 c 2
700 100 m 1
 200 100 l 1
 200 650 l 2
 200 677.595703125 177.595703125 700 150 700 c 0
 122.404296875 700 100 677.595703125 100 650 c 2
 100 50 l 2
 100 22.404296875 122.404296875 0 150 0 c 2
 750 0 l 2
 777.595703125 0 800 22.404296875 800 50 c 2
 800 650 l 2
 800 677.595703125 777.595703125 700 750 700 c 0
 722.404296875 700 700 677.595703125 700 650 c 2
 700 100 l 1
EndSplineSet
Substitution2: "Single Substitution lookup 38 subtable" nv_p.3
Substitution2: "Single Substitution lookup 34 subtable" nv_p.1
Substitution2: "Single Substitution lookup 30 subtable" nv_p.3
Substitution2: "Single Substitution lookup 26 subtable" nv_p.2
Substitution2: "Single Substitution lookup 24 subtable" nv_p.7
Substitution2: "Single Substitution lookup 20 subtable" nv_p.5
Substitution2: "Single Substitution lookup 18 subtable" nv_p.8
Substitution2: "Single Substitution lookup 14 subtable" nv_p.6
Substitution2: "Single Substitution lookup 12 subtable" nv_p.7
Substitution2: "Single Substitution lookup 8 subtable" nv_p.4
Substitution2: "Single Substitution lookup 6 subtable" nv_p.7
Substitution2: "Single Substitution lookup 2 subtable" nv_p.5
EndChar

StartChar: nv_p.1
Encoding: 163 -1 175
Width: 1000
VStem: 100 100<650 690.77> 700 100<650 690.77>
LayerCount: 2
Fore
SplineSet
700 100 m 1
 200 100 l 1
 200 650 l 2
 200 677.595703125 177.595703125 700 150 700 c 0
 122.404296875 700 100 677.595703125 100 650 c 2
 100 50 l 2
 100 22.404296875 122.404296875 0 150 0 c 2
 750 0 l 2
 777.595703125 0 800 22.404296875 800 50 c 2
 800 650 l 2
 800 677.595703125 777.595703125 700 750 700 c 0
 722.404296875 700 700 677.595703125 700 650 c 2
 700 100 l 1
EndSplineSet
EndChar

StartChar: nv_p.2
Encoding: 164 -1 176
Width: 1000
VStem: 0 100<650 690.77> 400 100<650 690.77>
AnchorPoint: "MarkBaseSet" -50 50 basechar 0
LayerCount: 2
Fore
SplineSet
400 100 m 1
 100 100 l 1
 100 650 l 2
 100 677.595703125 77.595703125 700 50 700 c 0
 22.404296875 700 0 677.595703125 0 650 c 2
 0 50 l 2
 0 22.404296875 22.404296875 0 50 0 c 2
 450 0 l 2
 477.595703125 0 500 22.404296875 500 50 c 2
 500 650 l 2
 500 677.595703125 477.595703125 700 450 700 c 0
 422.404296875 700 400 677.595703125 400 650 c 2
 400 100 l 1
EndSplineSet
EndChar

StartChar: nv_p.3
Encoding: 165 -1 177
Width: 1000
VStem: 100 100<750 790.77> 700 100<750 790.77>
AnchorPoint: "MarkBaseSet" -50 50 basechar 0
LayerCount: 2
Fore
SplineSet
700 400 m 1
 200 400 l 1
 200 750 l 2
 200 777.595703125 177.595703125 800 150 800 c 0
 122.404296875 800 100 777.595703125 100 750 c 2
 100 350 l 2
 100 322.404296875 122.404296875 300 150 300 c 2
 750 300 l 2
 777.595703125 300 800 322.404296875 800 350 c 2
 800 750 l 2
 800 777.595703125 777.595703125 800 750 800 c 0
 722.404296875 800 700 777.595703125 700 750 c 2
 700 400 l 1
EndSplineSet
EndChar

StartChar: nv_p.4
Encoding: 166 -1 178
Width: 1000
VStem: 0 100<750 790.77> 400 100<750 790.77>
AnchorPoint: "MarkBaseSet" -50 50 basechar 0
LayerCount: 2
Fore
SplineSet
400 400 m 1
 100 400 l 1
 100 750 l 2
 100 777.595703125 77.595703125 800 50 800 c 0
 22.404296875 800 0 777.595703125 0 750 c 2
 0 350 l 2
 0 322.404296875 22.404296875 300 50 300 c 2
 450 300 l 2
 477.595703125 300 500 322.404296875 500 350 c 2
 500 750 l 2
 500 777.595703125 477.595703125 800 450 800 c 0
 422.404296875 800 400 777.595703125 400 750 c 2
 400 400 l 1
EndSplineSet
EndChar

StartChar: nv_p.5
Encoding: 167 -1 179
Width: 1000
HStem: 500 300<109.23 190.77 709.23 790.77>
VStem: 100 100<750 790.77> 700 100<750 790.77>
AnchorPoint: "MarkBaseSet" -50 50 basechar 0
LayerCount: 2
Fore
SplineSet
700 600 m 1
 200 600 l 1
 200 750 l 2
 200 777.595703125 177.595703125 800 150 800 c 0
 122.404296875 800 100 777.595703125 100 750 c 2
 100 550 l 2
 100 522.404296875 122.404296875 500 150 500 c 2
 750 500 l 2
 777.595703125 500 800 522.404296875 800 550 c 2
 800 750 l 2
 800 777.595703125 777.595703125 800 750 800 c 0
 722.404296875 800 700 777.595703125 700 750 c 2
 700 600 l 1
EndSplineSet
EndChar

StartChar: nv_r
Encoding: 180 -1 180
Width: 1000
HStem: -100 100<109.23 190.77 709.23 790.77> 700 100<109.23 790.77>
VStem: 0 100<9.2299 690.77> 200 500<9.2299 600> 800 100<9.2299 690.77>
CounterMasks: 1 38
LayerCount: 2
Fore
SplineSet
50 800 m 2
 850 800 l 2
 877.594726562 799.997070312 899.997070312 777.594726562 900 750 c 2
 900 -50 l 2
 899.997070312 -77.5947265625 877.594726562 -99.9970703125 850 -100 c 2
 50 -100 l 2
 22.4052734375 -99.9970703125 0.0029296875 -77.5947265625 0 -50 c 2
 0 750 l 2
 0.0029296875 777.594726562 22.4052734375 800 50 800 c 2
200 600 m 1
 700 600 l 1
 700 50 l 2
 700 22.404296875 722.404296875 0 750 0 c 0
 777.595703125 0 800 22.404296875 800 50 c 2
 800 650 l 2
 800 677.595703125 777.595703125 700 750 700 c 2
 150 700 l 2
 122.404296875 700 100 677.595703125 100 650 c 2
 100 50 l 2
 100 22.404296875 122.404296875 0 150 0 c 0
 177.595703125 0 200 22.404296875 200 50 c 2
 200 600 l 1
EndSplineSet
Substitution2: "Single Substitution lookup 38 subtable" nv_r.3
Substitution2: "Single Substitution lookup 34 subtable" nv_r.1
Substitution2: "Single Substitution lookup 30 subtable" nv_r.3
Substitution2: "Single Substitution lookup 26 subtable" nv_r.2
Substitution2: "Single Substitution lookup 24 subtable" nv_r.7
Substitution2: "Single Substitution lookup 20 subtable" nv_r.5
Substitution2: "Single Substitution lookup 18 subtable" nv_r.8
Substitution2: "Single Substitution lookup 14 subtable" nv_r.6
Substitution2: "Single Substitution lookup 12 subtable" nv_r.7
Substitution2: "Single Substitution lookup 8 subtable" nv_r.4
Substitution2: "Single Substitution lookup 6 subtable" nv_r.7
Substitution2: "Single Substitution lookup 2 subtable" nv_r.5
EndChar

